<?xml version="1.0" encoding="UTF-8"?>
<!DOCTYPE svg PUBLIC "-//W3C//DTD SVG 1.1//EN" "http://www.w3.org/Graphics/SVG/1.1/DTD/svg11.dtd">
<!-- Creator: CorelDRAW Home & Student 2018 -->
<svg xmlns="http://www.w3.org/2000/svg" xml:space="preserve" width="52.686mm" height="54.4544mm" version="1.1" style="shape-rendering:geometricPrecision; text-rendering:geometricPrecision; image-rendering:optimizeQuality; fill-rule:evenodd; clip-rule:evenodd"
viewBox="0 0 2429.29 2510.83"
 xmlns:xlink="http://www.w3.org/1999/xlink">
 <defs>
  <style type="text/css">
   <![CDATA[
    .str2 {stroke:black;stroke-width:23.05;stroke-miterlimit:22.9256}
    .str1 {stroke:black;stroke-width:9.22;stroke-miterlimit:22.9256}
    .str0 {stroke:#FFCF61;stroke-width:9.22;stroke-miterlimit:22.9256}
    .fil2 {fill:none}
    .fil1 {fill:black}
    .fil3 {fill:black}
    .fil0 {fill:#FFCF61}
   ]]>
  </style>
 </defs>
 <g id="Layer_x0020_1">
  <metadata id="CorelCorpID_0Corel-Layer"/>
  <g id="_53360864">
   <path class="fil0 str0" d="M351 2428.64l-16.08 -1913.37 905.75 -465.38 978.18 428.42 -112.22 1922.88 -1755.73 14.75 0.11 12.7zm157.6 -1707.23l268.15 0 0 398.13 -268.15 0 0 -398.13zm558.16 -8.42l266.33 0 0 401.46 -266.33 0 0 -401.46zm525.14 -0.13l247.44 0 0 393.19 -247.44 0 0 -393.19zm-1067.71 647.03l285.3 0 0 362.45 -285.3 0 0 -362.45zm545.44 -14.42l259.95 0 0 365.64 -259.95 0 0 -365.64zm522.24 9.92l262.36 0 0 373.41 -262.36 0 0 -373.41zm-664.91 479.62l634.98 0 0 561.14 -634.98 0 0 -561.14z"/>
   <g>
    <g>
     <path class="fil1" d="M371.74 510.39c0,330.45 -48.3,548.93 -3.94,908.69 5.63,45.57 43.75,950.5 -16.09,1010.33l-0.13 0.12 -78.19 78.19c-2.75,2.75 -5.71,3.71 -8.89,2.73 -2.54,-9.86 -1.03,-18.33 -1.03,-29.43l27.23 -27.23c33.95,-207.91 3.73,-916.22 -1.22,-956.41 -44.37,-359.76 3.93,-578.24 3.93,-908.69l78.31 -78.32z"/>
    </g>
    <path class="fil2" d="M332.59 549.55c0,330.45 -48.3,548.93 -3.94,908.69 5.88,47.67 47.32,1035.51 -24.98,1013.06 -2.54,-9.86 -1.03,-18.33 -1.03,-29.43"/>
    <g>
     <path class="fil1" d="M2222.14 474.46c0,283.81 -23.95,569.47 -23.95,868.3 0,372.41 -65.87,654.68 -65.87,1047.97 0,11.29 0,22.58 0,29.94l-78.32 78.31c0,-7.35 0,-18.65 0,-29.94 0,-393.29 65.87,-675.56 65.87,-1047.96 0,-298.85 23.95,-584.49 23.95,-868.31l78.31 -78.31z"/>
    </g>
    <path class="fil2" d="M2182.99 513.62c0,283.82 -23.95,569.47 -23.95,868.31 0,372.4 -65.87,654.68 -65.87,1047.96 0,11.29 0,22.58 0,29.94"/>
    <g>
     <path class="fil1" d="M377.73 2378.76c312.72,-0 619.88,-23.95 946.67,-23.95 109.32,0 645.97,20.26 747.54,0.48l12.47 -12.46c4.29,2.59 5.21,4.9 3.18,6.93l-78.31 78.31c-28.68,28.68 -645.14,5.04 -763.19,5.04 -326.79,0 -633.95,23.95 -946.67,23.95l78.31 -78.31z"/>
    </g>
    <path class="fil2" d="M338.58 2417.92c312.72,0 619.87,-23.95 946.67,-23.95 126.44,0 824.64,27.11 760.01,-11.98"/>
    <g>
     <path class="fil1" d="M78.31 576.26c171.13,0 689.14,-373.82 953.18,-479.07 284.95,-113.59 143.01,-147.46 548.36,7.52 281.37,107.58 545.69,209.85 808.43,359.3 33.82,19.23 44.1,27.94 40.25,31.78l-78.32 78.32c-4.19,4.19 -25.16,2.61 -50.68,2.61l25.55 -25.55c-4.4,-2.67 -9.42,-5.6 -15.11,-8.84 -262.74,-149.45 -527.07,-251.73 -808.43,-359.3 -405.36,-154.98 -263.41,-121.12 -548.36,-7.52 -264.03,105.25 -782.05,479.07 -953.18,479.07l78.31 -78.31z"/>
    </g>
    <path class="fil2" d="M39.16 615.42c171.13,0 689.14,-373.81 953.18,-479.07 284.95,-113.59 143.01,-147.46 548.36,7.52 281.36,107.58 545.69,209.85 808.43,359.3 70.68,40.21 38.5,34.39 -10.44,34.39"/>
    <rect class="fil3 str1" x="916.28" y="1838.36" width="301.04" height="529.27"/>
    <rect class="fil3 str1" x="1252.87" y="1841.48" width="301.04" height="529.27"/>
    <polyline class="fil2 str1" points="322.49,504.54 1228.24,39.16 2222.14,474.46 "/>
    <rect class="fil2 str2" x="916.28" y="1838.36" width="634.98" height="561.14"/>
    <g>
     <path class="fil3" d="M558.53 665.79c-0,152.79 11.07,246.87 -7.76,400 -1.47,11.91 38.9,-19.6 94.95,-20.12 31.59,-0.3 65.87,6.28 98.68,5.97 -2.69,-109.61 27.94,-305.53 2.49,-307.54l78.31 -78.31c33.19,2.61 -29,334.99 11.72,375.71 2.88,2.88 3.79,4.34 3.22,4.91l-78.29 78.29 -0.03 0.03c-2.27,2.27 -28.08,-9.83 -45.12,-3.26 -46.11,17.79 -100.85,2.06 -149.28,2.52 -56.05,0.52 -96.42,32.03 -94.96,20.13 18.84,-153.14 7.76,-247.22 7.76,-400l78.31 -78.31z"/>
    </g>
    <path class="fil2" d="M519.37 704.94c0,152.79 11.08,246.86 -7.76,400 -1.47,11.91 38.91,-19.61 94.95,-20.13 48.44,-0.45 103.18,15.27 149.29,-2.52 21.3,-8.22 56.3,12.74 41.9,-1.65 -40.71,-40.71 21.48,-373.09 -11.72,-375.71"/>
    <g>
     <path class="fil3" d="M543.44 655.72c20.26,0 286.64,0.16 289.31,-2.51l-39.15 39.16 0 0 -0.01 0 0 0 -39.16 39.16c-2.66,2.66 -269.04,2.51 -289.3,2.5l78.31 -78.31z"/>
    </g>
    <path class="fil2" d="M504.28 694.88c20.29,0 287.19,0.15 289.31,-2.51"/>
    <g>
     <path class="fil3" d="M1096.91 640.63c-0,44.02 11.89,374.88 5.68,389.94 -10.81,26.2 38.3,-5.03 89.27,-5.03 8.16,0 47.45,-2.65 84.94,-3.4 3.45,-59.53 9.23,-135.86 17.89,-182.22 1.77,-9.5 8.96,-112.19 -1.87,-115.94l78.31 -78.32c10.84,3.75 3.64,106.44 1.87,115.94 -15.83,84.84 -22.03,270.05 -21.99,268.97l-78.32 78.32c0.62,-15.84 -142.67,-5.04 -159.14,-5.03 -50.98,-0 -100.09,31.23 -89.28,5.03 6.21,-15.07 -5.68,-345.92 -5.68,-389.94l78.32 -78.31z"/>
    </g>
    <path class="fil2" d="M1057.75 679.79c0,44.02 11.89,374.88 5.68,389.94 -10.81,26.21 38.3,-5.03 89.28,-5.03 16.47,0 159.76,-10.81 159.14,5.03 -0.04,1.08 6.16,-184.13 21.99,-268.97 1.78,-9.5 8.97,-112.19 -1.87,-115.94"/>
    <g>
     <path class="fil3" d="M1109.48 633.08c19.65,1.94 234.39,16.44 236.48,20.13l-78.31 78.31c-2.08,-3.68 -216.83,-18.19 -236.48,-20.13l78.31 -78.31z"/>
    </g>
    <path class="fil2" d="M1070.33 672.24c19.65,1.94 234.39,16.44 236.48,20.13"/>
    <g>
     <path class="fil3" d="M1625.21 635.6c0,102.34 6.89,231.52 24.52,332.29 17.45,99.78 -92.24,52.61 123.91,52.61 7.31,0 22.55,-0.81 39.86,-1.07 -2.71,-67.64 -5.9,-149.78 -4.75,-167.15 1.07,-16.03 5.51,-140.42 -5.25,-140.89 -5.85,-0.25 -4.37,1.05 -10.06,2.52l78.31 -78.31c5.69,-1.47 4.21,-2.77 10.06,-2.52 10.76,0.46 6.32,124.85 5.25,140.88 -2.02,30.47 9.3,260.1 7.99,261.41l-78.31 78.31 -0.01 0.01c-6.88,-22.2 -99.57,-14.88 -121.4,-14.88 -216.15,0 -106.47,47.17 -123.92,-52.62 -17.62,-100.77 -24.51,-229.94 -24.51,-332.29l78.31 -78.31z"/>
    </g>
    <path class="fil2" d="M1586.05 674.76c0,102.34 6.89,231.52 24.52,332.29 17.45,99.78 -92.24,52.61 123.92,52.61 21.82,0 114.52,-7.32 121.4,14.88 1.39,0 -10.01,-230.87 -7.98,-261.42 1.07,-16.03 5.51,-140.42 -5.25,-140.88 -5.85,-0.25 -4.37,1.05 -10.06,2.52"/>
    <g>
     <path class="fil3" d="M1652.89 625.53c31.9,1.01 212.08,8.48 231.44,15.1l-78.31 78.31c-19.36,-6.62 -199.55,-14.09 -231.45,-15.1l78.32 -78.32z"/>
    </g>
    <path class="fil2" d="M1613.73 664.69c31.91,1.01 212.09,8.47 231.45,15.1"/>
    <g>
     <path class="fil3" d="M553.5 1282.14c11.52,85.4 16.22,189.8 29.55,279.25 20.42,137.01 -59.75,74.52 114.72,83.24 6.92,0.34 32.63,0.9 60.49,1.05 3.02,-82.5 17.18,-204.76 -5.91,-250 -2.73,-5.35 -1.37,-33.23 -7.4,-30.76l-3.09 3.08 1.65 -2.05 78.32 -78.31c7.7,-7.7 5.92,23.99 8.84,29.73 32.85,64.39 -9.72,284.72 11.72,324.53l-0.11 0.52 -78.31 78.31c-5.04,5.04 -128.03,3.03 -144.51,2.21 -174.47,-8.71 -94.3,53.78 -114.72,-83.23 -13.33,-89.45 -18.03,-193.85 -29.55,-279.25l78.31 -78.31z"/>
    </g>
    <path class="fil2" d="M514.34 1321.3c11.52,85.4 16.22,189.81 29.55,279.25 20.42,137.01 -59.75,74.52 114.72,83.24 17.03,0.85 147.69,2.96 144.62,-2.73 -21.44,-39.81 21.14,-260.14 -11.72,-324.53 -3.12,-6.11 -0.9,-41.7 -10.49,-27.67"/>
    <g>
     <path class="fil3" d="M583.69 1289.69c92.73,8.3 162.4,12.59 251.57,12.59l-78.32 78.31c-89.17,0 -158.84,-4.28 -251.57,-12.58l78.31 -78.32z"/>
    </g>
    <path class="fil2" d="M544.54 1328.85c92.73,8.29 162.4,12.58 251.57,12.58"/>
    <g>
     <path class="fil3" d="M1081.81 1294.72c0,27.16 13.5,347.5 14.88,347.39 37.61,-2.95 42.81,-12.8 111.77,-12.8 12.34,0 31.29,0.66 51.3,1.53 -4.26,-88.74 -4.65,-222.25 -4.69,-262.84l-2.52 2.52c1.42,-1.42 2.16,-2.42 2.52,-3.34l0 -6.47 0 -0.25 78.31 -78.32 0 0.25c0.03,3.36 0.65,4.8 0.01,6.47 0.05,59.89 0.87,338.03 14.87,346.35l0 0 -78.31 78.32c-0.36,0.35 -101.67,-5.91 -139.81,-5.91 -68.96,0 -74.16,9.84 -111.77,12.8 -1.38,0.12 -14.88,-320.23 -14.88,-347.39l78.31 -78.31z"/>
    </g>
    <path class="fil2" d="M1042.65 1333.88c0,27.16 13.49,347.49 14.87,347.38 37.61,-2.95 42.81,-12.8 111.77,-12.8 38.34,0 140.53,6.33 139.81,5.9 -14.63,-8.7 -14.88,-311.93 -14.88,-353.07 0,5.44 1.58,5.97 -2.51,10.07"/>
    <g>
     <path class="fil3" d="M1129.61 1302.28c37.3,0 198.55,20.57 208.81,15.09l-78.31 78.31c-10.25,5.49 -171.51,-15.1 -208.81,-15.1l78.31 -78.31z"/>
    </g>
    <path class="fil2" d="M1090.45 1341.43c37.31,0 198.55,20.58 208.81,15.1"/>
    <g>
     <path class="fil3" d="M1635.27 1299.76c3.49,30.43 20.57,333.99 7.55,349.68 23.54,-3.47 117.73,-4.63 187.54,-6.84 0.35,-54.69 1.81,-73.88 -16.15,-171.23 -6.53,-35.45 -8.19,-81.35 -8.2,-118.46l78.32 -78.31c0,37.1 1.66,83.01 8.19,118.45 24.02,130.23 13.29,120.59 16.96,243.17l-0.2 0.42 -78.31 78.31c-7.62,7.62 -228.59,7.22 -266.47,12.81 13.02,-15.7 -4.06,-319.26 -7.54,-349.69l78.31 -78.31z"/>
    </g>
    <path class="fil2" d="M1596.12 1338.91c3.49,30.43 20.56,333.99 7.54,349.68 38.57,-5.69 266.91,-5.17 266.67,-13.22 -3.67,-122.58 7.05,-112.93 -16.96,-243.16 -6.54,-35.45 -8.19,-81.36 -8.19,-118.46"/>
    <g>
     <path class="fil3" d="M1660.43 1267.05c25.58,12.31 255.42,14.9 255.24,15.08l-78.31 78.32 -1.15 0.01 0.05 -0.05c-16.93,-0.37 -229.59,-3.23 -254.13,-15.05l78.32 -78.31z"/>
    </g>
    <path class="fil2" d="M1621.27 1306.21c26.6,12.8 274.13,15.09 254.09,15.09"/>
    <g>
     <path class="fil3" d="M961.05 1807.94c0,112.31 -17.61,193.81 -17.61,311.95 0,10.8 0.48,203.79 -4.68,208.94l-78.32 78.32c-0.65,0.65 -1.38,-1.67 -2.22,-7.68 -1.15,-8.25 -0.65,-9.81 -0.65,-17.61l5.69 -5.69c2.13,-56.21 1.86,-169.75 1.86,-177.97 0,-118.14 17.61,-199.64 17.61,-311.95l78.31 -78.31z"/>
    </g>
    <path class="fil2" d="M921.9 1847.09c0,112.31 -17.61,193.81 -17.61,311.95 0,12.15 0.6,255.15 -6.9,201.26 -1.15,-8.25 -0.65,-9.81 -0.65,-17.61"/>
    <g>
     <path class="fil3" d="M950.99 1800.39c84.79,9.72 587.12,41.04 642.16,5.68 14.22,-9.13 -14.63,230.06 -3.81,272.92 9.9,39.23 -4.38,249.56 -15.02,260.2l-0.03 0.03 -78.27 78.28c-0.67,0.67 -1.32,0.55 -1.95,-0.43l4.05 -4.04c10.29,-32.65 22.18,-219.03 12.92,-255.72 -10.82,-42.86 18.03,-282.06 3.81,-272.93 -55.04,35.36 -557.37,4.04 -642.16,-5.68l78.31 -78.31z"/>
    </g>
    <path class="fil2" d="M911.83 1839.54c84.79,9.72 587.12,41.03 642.16,5.68 14.22,-9.13 -14.63,230.06 -3.81,272.93 10.52,41.68 -6.26,276.51 -16.97,259.77"/>
   </g>
  </g>
 </g>
</svg>
