<?xml version="1.0" encoding="UTF-8"?>
<!DOCTYPE svg PUBLIC "-//W3C//DTD SVG 1.1//EN" "http://www.w3.org/Graphics/SVG/1.1/DTD/svg11.dtd">
<!-- Creator: CorelDRAW Home & Student 2018 -->
<svg xmlns="http://www.w3.org/2000/svg" xml:space="preserve" width="41.6665mm" height="35.8225mm" version="1.1" style="shape-rendering:geometricPrecision; text-rendering:geometricPrecision; image-rendering:optimizeQuality; fill-rule:evenodd; clip-rule:evenodd"
viewBox="0 0 1652.72 1420.91"
 xmlns:xlink="http://www.w3.org/1999/xlink">
 <defs>
  <style type="text/css">
   <![CDATA[
    .str1 {stroke:black;stroke-width:39.67;stroke-miterlimit:22.9256}
    .str2 {stroke:black;stroke-width:7.93;stroke-miterlimit:22.9256}
    .str0 {stroke:red;stroke-width:7.93;stroke-miterlimit:22.9256}
    .fil3 {fill:none}
    .fil2 {fill:black}
    .fil0 {fill:red}
    .fil1 {fill:white}
   ]]>
  </style>
 </defs>
 <g id="Layer_x0020_1">
  <metadata id="CorelCorpID_0Corel-Layer"/>
  <g id="_1080642504">
   <polygon class="fil0 str0" points="177.86,503.13 172.63,1380.79 1478.78,1354.9 1449.83,495.25 1273.74,395.56 1302.07,71.07 1153.6,68.74 1140.42,338.29 818.02,151.5 "/>
   <polygon class="fil1 str0" points="330.82,714.77 644.08,714.77 644.08,1031.91 330.82,1031.91 "/>
   <rect class="fil1" x="869.42" y="687.15" width="326.88" height="644.49"/>
  </g>
  <g id="_1080643176">
   <g>
    <path class="fil2 str1" d="M882.73 675.3c0,54.89 2.09,522.94 6.92,536.05 2.3,6.25 15.9,112.05 8.68,112.05l-0.04 0 -30.18 0c-0.89,0 -2.11,-1.62 -3.7,-5.25l5.55 0c1.9,-21.41 -8.55,-101.4 -10.54,-106.8 -4.83,-13.11 -6.92,-481.16 -6.92,-536.05l30.23 0z"/>
   </g>
   <path class="fil3" d="M867.61 675.3c0,54.89 2.09,522.94 6.92,536.05 2.59,7.02 19.44,139.76 4.99,106.8"/>
   <g>
    <g>
     <g>
      <path class="fil2" d="M241.82 437.78c-6.06,22.18 -12.67,516.55 -13.45,572.04 -1.59,112.6 -11.84,220.39 -11.84,334.66l-76.44 76.44c0,-114.27 10.25,-222.05 11.84,-334.66 0.79,-55.48 7.39,-549.85 13.45,-572.03l76.44 -76.44z"/>
     </g>
     <path class="fil3" d="M203.6 476c-6.07,22.18 -12.67,516.55 -13.45,572.03 -1.59,112.6 -11.84,220.39 -11.84,334.66"/>
     <g>
      <path class="fil2" d="M169.83 1323.07c44.42,10.31 283.78,-11.99 374.08,-6.34 88.36,5.53 184.78,2.28 280.51,7.62 37.57,2.09 615.84,1.99 651.23,-15.15l1.7 -1.69 -0.41 0.86 -76.44 76.44c-17.97,17.98 -614.34,18.12 -652.51,15.99 -95.74,-5.33 -192.15,-2.09 -280.51,-7.61 -90.29,-5.65 -329.66,16.64 -374.07,6.34l76.44 -76.44z"/>
     </g>
     <path class="fil3" d="M131.61 1361.29c44.42,10.31 283.78,-11.98 374.08,-6.34 88.36,5.53 184.77,2.28 280.51,7.62 38.77,2.16 653.37,1.98 652.92,-16.84"/>
     <g>
      <path class="fil2" d="M76.44 511.72c47.42,-7.06 157.03,-84.96 223.76,-111.4 102.95,-40.81 339.22,-167.99 431.94,-236.88 14.91,-11.07 94.7,-73.06 95.51,-72.16 36.78,40.84 215.28,84.8 303.19,163.44 69.12,61.81 345.35,162.44 444.79,215.7 3.62,1.94 84.44,43.8 76.55,51.7l-0.04 0.04 -76.4 76.4c-0.82,0.83 -2.61,1.28 -5.55,1.28l5.1 -5.1c-8.77,-12.94 -72.87,-46.15 -76.09,-47.87 -99.45,-53.25 -375.68,-153.89 -444.79,-215.7 -87.91,-78.63 -266.42,-122.61 -303.19,-163.44 -0.81,-0.9 -80.6,61.08 -95.51,72.16 -92.73,68.88 -328.99,196.07 -431.95,236.87 -66.73,26.45 -176.34,104.34 -223.75,111.4l76.44 -76.43z"/>
     </g>
     <path class="fil3" d="M38.22 549.94c47.42,-7.06 157.03,-84.96 223.76,-111.41 102.95,-40.8 339.22,-167.99 431.94,-236.87 14.91,-11.07 94.69,-73.06 95.51,-72.16 36.78,40.84 215.28,84.81 303.2,163.44 69.11,61.81 345.34,162.44 444.79,215.7 4,2.14 102.15,52.98 70.99,52.98"/>
     <rect class="fil3 str2" x="353.42" y="721.16" width="276.29" height="307.42"/>
     <g>
      <path class="fil2" d="M391.64 665.43c8.54,61.54 1.65,156.31 9.9,236.7 1.23,12.06 -3.17,81.43 1.61,79.16 39.21,-18.56 259.29,-1.89 278.92,-10.9l1.44 -1.44 -0.37 0.78 -76.44 76.44c-10.46,10.46 -239.87,-7.43 -279.98,11.56 -4.78,2.26 -0.37,-67.11 -1.61,-79.16 -8.24,-80.39 -1.36,-175.15 -9.9,-236.71l76.44 -76.43z"/>
     </g>
     <path class="fil3" d="M353.42 703.64c8.54,61.55 1.65,156.31 9.9,236.71 1.24,12.05 -3.17,81.43 1.61,79.16 41.05,-19.44 280.35,-0.25 280.35,-12.34"/>
     <g>
      <path class="fil2" d="M393.58 659.59c47.96,11.9 247.85,4.82 287.35,2.57l0.62 -0.61 4.39 0 1.81 0.08 -76.44 76.44c-1.03,1.03 -240.99,11.17 -294.17,-2.03l76.44 -76.44z"/>
     </g>
     <path class="fil3" d="M355.37 697.81c55.92,13.87 318.44,1.94 292.35,1.94l-4.39 0"/>
     <g>
      <path class="fil2" d="M677.66 642.08c16.19,38.91 -11.19,324.4 3.89,342.45l-76.44 76.44c-15.08,-18.05 12.3,-303.54 -3.89,-342.45l76.44 -76.44z"/>
     </g>
     <path class="fil3" d="M639.44 680.3c16.2,38.91 -11.19,324.4 3.89,342.44"/>
     <g>
      <path class="fil2" d="M1230.24 27.24c-2.23,16.31 -10.55,239.38 -27.05,255.88l-76.44 76.44 -2.13 0.95 4.22 -4.22c15.12,-32.05 22.84,-237 24.97,-252.62l76.44 -76.44z"/>
     </g>
     <path class="fil3" d="M1192.02 65.46c-2.32,17 -11.26,258.61 -29.19,256.83"/>
     <g>
      <path class="fil2" d="M1162.14 9.73c52.94,7.14 186.46,13.62 243.22,13.62l-76.44 76.44c-56.75,0 -190.27,-6.48 -243.21,-13.62l76.44 -76.44z"/>
     </g>
     <path class="fil3" d="M1123.92 47.94c52.94,7.14 186.47,13.62 243.21,13.62"/>
     <g>
      <path class="fil2" d="M1360.6 0c-16.43,104.19 -0.37,194.2 -22.85,305.48 -1.61,7.93 1.83,31.97 -1.65,35.45l-0.03 0.03 -76.4 76.4c-0.65,0.65 -1.54,0.59 -2.74,-0.43l4.13 -4.13c0.88,-8.29 -1,-24.62 0.27,-30.89 22.47,-111.28 6.42,-201.29 22.84,-305.48l76.44 -76.44z"/>
     </g>
     <path class="fil3" d="M1322.38 38.22c-16.43,104.19 -0.37,194.2 -22.85,305.48 -1.9,9.41 3.29,41.49 -4.39,35.02"/>
     <g>
      <path class="fil2" d="M1506.52 470.86c0,96.59 -10.69,105.31 4.06,214.36 16.34,120.74 0.06,332.23 10.84,461.47 1.19,14.3 8.18,176.24 10.4,178.34l-76.44 76.44c-2.22,-2.1 -9.2,-164.03 -10.39,-178.34 -10.79,-129.24 5.49,-340.73 -10.84,-461.46 -14.76,-109.05 -4.06,-117.77 -4.06,-214.36l76.43 -76.44z"/>
     </g>
     <path class="fil3" d="M1468.31 509.08c0,96.59 -10.69,105.31 4.06,214.36 16.33,120.73 0.06,332.23 10.84,461.46 1.19,14.3 8.18,176.24 10.39,178.34"/>
    </g>
    <g>
     <path class="fil2 str1" d="M906.54 659.35c16.96,4.7 41.42,6.91 69.36,7.45 101.84,-1.73 227.75,-19.35 217.87,-19.35l7.18 0 0 -0 7.94 0 0 0 15.11 0c10.39,0 -129.46,19.49 -233.49,19.49l-30.23 0c-33.96,0 -64.11,-2.08 -83.96,-7.59l30.23 0z"/>
    </g>
    <path class="fil3" d="M891.43 659.35c80.68,22.39 331.24,-11.9 317.45,-11.9l-7.94 0"/>
   </g>
   <g>
    <path class="fil2 str1" d="M1186.75 635.36c57.03,114.06 25.77,512.96 52.95,701.35 0.56,3.91 1.59,42.11 2.18,56.57l0.43 0c0,3.86 -0.04,5.52 -0.1,5.52l-30.22 0 -0 0c-0.4,0 -1.8,-57.26 -2.5,-62.09 -27.17,-188.39 4.08,-587.29 -52.95,-701.35l30.23 0z"/>
   </g>
   <path class="fil3" d="M1171.64 635.36c57.03,114.06 25.77,512.96 52.95,701.35 0.82,5.65 2.61,83.1 2.61,56.57"/>
  </g>
 </g>
</svg>
