<?xml version="1.0" encoding="UTF-8"?>
<!DOCTYPE svg PUBLIC "-//W3C//DTD SVG 1.1//EN" "http://www.w3.org/Graphics/SVG/1.1/DTD/svg11.dtd">
<!-- Creator: CorelDRAW Home & Student 2018 -->
<svg xmlns="http://www.w3.org/2000/svg" xml:space="preserve" width="52.686mm" height="54.4544mm" version="1.1" style="shape-rendering:geometricPrecision; text-rendering:geometricPrecision; image-rendering:optimizeQuality; fill-rule:evenodd; clip-rule:evenodd"
viewBox="0 0 1890.78 1954.24"
 xmlns:xlink="http://www.w3.org/1999/xlink">
 <defs>
  <style type="text/css">
   <![CDATA[
    .str2 {stroke:black;stroke-width:26.92;stroke-miterlimit:22.9256}
    .str1 {stroke:black;stroke-width:17.94;stroke-miterlimit:22.9256}
    .str0 {stroke:black;stroke-width:7.18;stroke-miterlimit:22.9256}
    .fil3 {fill:none}
    .fil2 {fill:black}
    .fil4 {fill:black}
    .fil0 {fill:#FFCF61}
    .fil1 {fill:white}
   ]]>
  </style>
 </defs>
 <g id="Layer_x0020_1">
  <metadata id="CorelCorpID_0Corel-Layer"/>
  <g id="_873823064">
   <polygon class="fil0" points="276.97,1892.68 264.45,403.45 969.42,41.23 1730.76,374.68 1643.41,1871.31 276.88,1882.79 "/>
   <polygon class="fil1" points="725.24,1430.63 1219.46,1430.63 1219.46,1867.39 725.24,1867.39 "/>
   <polygon class="fil1" points="1242.75,1057.33 1446.96,1057.33 1446.96,1347.97 1242.75,1347.97 "/>
   <polygon class="fil1" points="836.28,1049.61 1038.61,1049.61 1038.61,1334.2 836.28,1334.2 "/>
   <polygon class="fil1" points="411.76,1060.83 633.82,1060.83 633.82,1342.94 411.76,1342.94 "/>
   <polygon class="fil1" points="1242.78,557.24 1435.37,557.24 1435.37,863.26 1242.78,863.26 "/>
   <polygon class="fil1" points="834.06,557.34 1041.35,557.34 1041.35,869.8 834.06,869.8 "/>
   <polygon class="fil1" points="399.63,563.9 608.33,563.9 608.33,873.77 399.63,873.77 "/>
  </g>
  <g id="_873825584">
   <g>
    <path class="fil2" d="M289.34 397.25c0,257.2 -37.6,427.24 -3.06,707.26 4.38,35.47 34.05,739.79 -12.52,786.36l-0.1 0.1 -60.85 60.85c-2.14,2.14 -4.44,2.89 -6.92,2.12 -1.97,-7.67 -0.8,-14.27 -0.8,-22.9l21.19 -21.19c26.43,-161.82 2.91,-713.11 -0.95,-744.4 -34.53,-280.01 3.06,-450.06 3.06,-707.25l60.95 -60.95z"/>
   </g>
   <path class="fil3" d="M258.86 427.73c0,257.2 -37.6,427.24 -3.06,707.25 4.58,37.1 36.83,805.96 -19.44,788.49 -1.97,-7.67 -0.8,-14.27 -0.8,-22.9"/>
   <g>
    <path class="fil2" d="M1729.55 369.29c0,220.9 -18.64,443.23 -18.64,675.83 0,289.85 -51.27,509.55 -51.27,815.66 0,8.79 0,17.58 0,23.31l-60.96 60.95c0,-5.72 0,-14.52 0,-23.31 0,-306.1 51.27,-525.8 51.27,-815.66 0,-232.6 18.64,-454.93 18.64,-675.83l60.95 -60.95z"/>
   </g>
   <path class="fil3" d="M1699.07 399.76c0,220.9 -18.64,443.23 -18.64,675.83 0,289.85 -51.27,509.55 -51.27,815.66 0,8.79 0,17.58 0,23.31"/>
   <g>
    <path class="fil2" d="M294 1851.45c243.4,-0 482.46,-18.64 736.82,-18.64 85.09,0 502.78,15.77 581.84,0.38l9.7 -9.7c3.34,2.02 4.06,3.81 2.47,5.4l-60.95 60.95c-22.32,22.32 -502.13,3.93 -594.01,3.93 -254.35,0 -493.42,18.64 -736.81,18.64l60.95 -60.95z"/>
   </g>
   <path class="fil3" d="M263.52 1881.93c243.4,0 482.46,-18.64 736.82,-18.64 98.41,0 641.84,21.1 591.53,-9.32"/>
   <g>
    <path class="fil2" d="M60.95 448.52c133.19,0 536.38,-290.95 741.88,-372.87 221.79,-88.41 111.31,-114.77 426.81,5.86 218.99,83.73 424.72,163.33 629.22,279.65 26.32,14.97 34.32,21.74 31.33,24.74l-60.96 60.95c-3.26,3.26 -19.58,2.03 -39.44,2.03l19.88 -19.89c-3.42,-2.08 -7.33,-4.36 -11.76,-6.88 -204.5,-116.32 -410.23,-195.93 -629.22,-279.65 -315.5,-120.63 -205.02,-94.27 -426.81,-5.86 -205.5,81.92 -608.69,372.87 -741.88,372.87l60.95 -60.96z"/>
   </g>
   <path class="fil3" d="M30.48 479c133.19,0 536.38,-290.95 741.88,-372.87 221.79,-88.41 111.31,-114.77 426.81,5.86 218.99,83.73 424.72,163.33 629.22,279.65 55.02,31.3 29.97,26.77 -8.12,26.77"/>
   <rect class="fil4 str0" x="713.16" y="1430.85" width="234.31" height="411.94"/>
   <rect class="fil4 str0" x="975.14" y="1433.27" width="234.31" height="411.94"/>
   <polyline class="fil3 str0" points="251.01,392.7 955.98,30.48 1729.55,369.29 "/>
   <rect class="fil1 str1" x="713.16" y="1430.85" width="494.22" height="436.75"/>
   <g>
    <path class="fil4" d="M434.72 518.2c-0,118.92 8.62,192.14 -6.04,311.33 -1.14,9.27 30.28,-15.26 73.9,-15.66 24.59,-0.23 51.27,4.9 76.8,4.65 -2.09,-85.31 21.75,-237.8 1.94,-239.36l60.95 -60.96c25.84,2.04 -22.57,260.74 9.12,292.42 2.24,2.24 2.95,3.38 2.5,3.82l-60.93 60.93 -0.02 0.02c-1.77,1.77 -21.86,-7.65 -35.12,-2.54 -35.89,13.85 -78.49,1.61 -116.19,1.96 -43.63,0.41 -75.04,24.93 -73.91,15.66 14.66,-119.19 6.04,-192.42 6.04,-311.33l60.95 -60.96z"/>
   </g>
   <path class="fil3" d="M404.25 548.68c0,118.92 8.62,192.14 -6.04,311.33 -1.14,9.27 30.28,-15.26 73.91,-15.66 37.7,-0.35 80.31,11.89 116.19,-1.96 16.58,-6.4 43.82,9.92 32.61,-1.28 -31.69,-31.69 16.72,-290.39 -9.12,-292.42"/>
   <g>
    <path class="fil4" d="M422.98 510.37c15.77,0 223.1,0.12 225.17,-1.95l-30.47 30.47 0 0 -0.01 0 0 0 -30.48 30.48c-2.07,2.07 -209.4,1.95 -225.17,1.95l60.96 -60.96z"/>
   </g>
   <path class="fil3" d="M392.5 540.85c15.79,0 223.53,0.12 225.18,-1.96"/>
   <g>
    <path class="fil4" d="M853.75 498.62c-0,34.27 9.25,291.78 4.42,303.5 -8.42,20.39 29.81,-3.92 69.48,-3.92 6.35,0 36.93,-2.06 66.12,-2.65 2.68,-46.33 7.18,-105.74 13.92,-141.83 1.38,-7.39 6.98,-87.32 -1.46,-90.24l60.95 -60.96c8.43,2.92 2.84,82.84 1.45,90.24 -12.32,66.03 -17.15,210.19 -17.11,209.35l-60.96 60.95c0.48,-12.33 -111.05,-3.92 -123.86,-3.92 -39.68,-0 -77.9,24.31 -69.49,3.92 4.84,-11.72 -4.42,-269.24 -4.42,-303.5l60.96 -60.96z"/>
   </g>
   <path class="fil3" d="M823.27 529.1c0,34.27 9.26,291.78 4.42,303.5 -8.41,20.4 29.81,-3.92 69.49,-3.92 12.81,0 124.34,-8.41 123.86,3.92 -0.03,0.84 4.8,-143.31 17.12,-209.34 1.38,-7.39 6.98,-87.32 -1.46,-90.24"/>
   <g>
    <path class="fil4" d="M863.54 492.75c15.3,1.51 182.44,12.79 184.06,15.66l-60.95 60.96c-1.62,-2.87 -168.76,-14.15 -184.06,-15.67l60.95 -60.95z"/>
   </g>
   <path class="fil3" d="M833.06 523.22c15.3,1.51 182.44,12.8 184.06,15.66"/>
   <g>
    <path class="fil4" d="M1264.94 494.7c0,79.66 5.36,180.2 19.08,258.63 13.58,77.66 -71.79,40.95 96.45,40.95 5.68,0 17.55,-0.64 31.02,-0.84 -2.11,-52.64 -4.59,-116.57 -3.7,-130.1 0.83,-12.47 4.29,-109.3 -4.08,-109.65 -4.55,-0.19 -3.4,0.82 -7.83,1.96l60.95 -60.96c4.43,-1.14 3.28,-2.15 7.83,-1.96 8.37,0.36 4.92,97.18 4.09,109.65 -1.57,23.71 7.24,202.44 6.22,203.46l-60.96 60.95 -0.01 0.01c-5.36,-17.28 -77.5,-11.58 -94.49,-11.58 -168.24,0 -82.86,36.71 -96.45,-40.95 -13.72,-78.43 -19.07,-178.98 -19.07,-258.63l60.95 -60.95z"/>
   </g>
   <path class="fil3" d="M1234.46 525.18c0,79.66 5.36,180.2 19.08,258.63 13.58,77.66 -71.79,40.95 96.45,40.95 16.99,0 89.13,-5.7 94.49,11.58 1.08,0 -7.79,-179.69 -6.21,-203.47 0.83,-12.47 4.28,-109.29 -4.09,-109.65 -4.55,-0.19 -3.4,0.82 -7.83,1.96"/>
   <g>
    <path class="fil4" d="M1286.48 486.87c24.83,0.79 165.07,6.6 180.14,11.75l-60.96 60.96c-15.07,-5.15 -155.31,-10.97 -180.14,-11.75l60.95 -60.96z"/>
   </g>
   <path class="fil3" d="M1256 517.35c24.83,0.78 165.07,6.6 180.14,11.75"/>
   <g>
    <path class="fil4" d="M430.8 997.93c8.96,66.47 12.62,147.73 23,217.35 15.89,106.64 -46.51,58 89.28,64.78 5.39,0.27 25.4,0.7 47.08,0.82 2.35,-64.21 13.37,-159.36 -4.6,-194.58 -2.12,-4.16 -1.07,-25.86 -5.76,-23.94l-2.4 2.4 1.28 -1.6 60.96 -60.95c5.99,-5.99 4.6,18.67 6.88,23.14 25.57,50.12 -7.57,221.61 9.12,252.59l-0.08 0.41 -60.96 60.96c-3.93,3.93 -99.65,2.36 -112.48,1.72 -135.79,-6.78 -73.4,41.86 -89.29,-64.78 -10.38,-69.62 -14.03,-150.88 -22.99,-217.35l60.95 -60.95z"/>
   </g>
   <path class="fil3" d="M400.33 1028.4c8.96,66.47 12.62,147.73 23,217.35 15.89,106.64 -46.5,58 89.29,64.78 13.25,0.66 114.95,2.31 112.56,-2.12 -16.68,-30.99 16.45,-202.47 -9.12,-252.59 -2.43,-4.76 -0.7,-32.46 -8.17,-21.54"/>
   <g>
    <path class="fil4" d="M454.3 1003.8c72.18,6.46 126.4,9.8 195.81,9.8l-60.96 60.95c-69.4,0 -123.63,-3.33 -195.8,-9.79l60.95 -60.96z"/>
   </g>
   <path class="fil3" d="M423.83 1034.28c72.18,6.46 126.4,9.79 195.81,9.79"/>
   <g>
    <path class="fil4" d="M842 1007.72c0,21.14 10.5,270.47 11.58,270.38 29.27,-2.29 33.32,-9.96 87,-9.96 9.6,0 24.35,0.51 39.93,1.19 -3.31,-69.07 -3.62,-172.98 -3.65,-204.57l-1.96 1.96c1.11,-1.11 1.68,-1.88 1.96,-2.6l0 -5.04 0 -0.19 60.95 -60.96 0 0.2c0.03,2.61 0.51,3.73 0.01,5.04 0.04,46.62 0.67,263.1 11.58,269.57l0 0.01 -60.95 60.95c-0.28,0.27 -79.13,-4.6 -108.82,-4.6 -53.68,0 -57.73,7.66 -87,9.96 -1.08,0.09 -11.58,-249.24 -11.58,-270.38l60.95 -60.96z"/>
   </g>
   <path class="fil3" d="M811.52 1038.19c0,21.14 10.5,270.46 11.58,270.38 29.27,-2.29 33.32,-9.96 87,-9.96 29.84,0 109.37,4.92 108.82,4.59 -11.39,-6.77 -11.58,-242.78 -11.58,-274.8 0,4.23 1.22,4.65 -1.96,7.83"/>
   <g>
    <path class="fil4" d="M879.2 1013.59c29.04,0 154.54,16.02 162.52,11.75l-60.95 60.95c-7.98,4.27 -133.49,-11.75 -162.52,-11.75l60.95 -60.95z"/>
   </g>
   <path class="fil3" d="M848.73 1044.07c29.04,0 154.54,16.01 162.52,11.75"/>
   <g>
    <path class="fil4" d="M1272.77 1011.63c2.72,23.69 16.01,259.96 5.87,272.17 18.32,-2.7 91.64,-3.6 145.97,-5.32 0.27,-42.57 1.41,-57.5 -12.57,-133.28 -5.09,-27.59 -6.38,-63.32 -6.38,-92.2l60.96 -60.95c0,28.88 1.29,64.61 6.38,92.2 18.69,101.37 10.35,93.86 13.2,189.26l-0.15 0.33 -60.95 60.95c-5.93,5.93 -177.91,5.62 -207.4,9.97 10.13,-12.22 -3.16,-248.49 -5.87,-272.17l60.95 -60.95z"/>
   </g>
   <path class="fil3" d="M1242.3 1042.11c2.71,23.69 16.01,259.95 5.87,272.17 30.02,-4.42 207.75,-4.02 207.56,-10.29 -2.86,-95.41 5.49,-87.9 -13.2,-189.26 -5.09,-27.59 -6.38,-63.32 -6.38,-92.2"/>
   <g>
    <path class="fil4" d="M1292.36 986.18c19.91,9.58 198.8,11.6 198.66,11.74l-60.95 60.95 -0.9 0.01 0.04 -0.04c-13.17,-0.29 -178.69,-2.52 -197.8,-11.71l60.96 -60.95z"/>
   </g>
   <path class="fil3" d="M1261.88 1016.66c20.71,9.96 213.36,11.75 197.77,11.75"/>
   <g>
    <path class="fil4" d="M748.01 1407.16c0,87.41 -13.71,150.85 -13.71,242.8 0,8.4 0.37,158.61 -3.64,162.62l-60.96 60.96c-0.5,0.5 -1.08,-1.3 -1.73,-5.98 -0.89,-6.42 -0.51,-7.64 -0.5,-13.71l4.42 -4.42c1.66,-43.75 1.45,-132.12 1.45,-138.52 0,-91.95 13.71,-155.39 13.71,-242.8l60.95 -60.95z"/>
   </g>
   <path class="fil3" d="M717.53 1437.64c0,87.42 -13.71,150.85 -13.71,242.8 0,9.46 0.47,198.59 -5.37,156.65 -0.9,-6.42 -0.5,-7.64 -0.5,-13.71"/>
   <g>
    <path class="fil4" d="M740.18 1401.29c66,7.57 456.97,31.94 499.81,4.42 11.07,-7.11 -11.38,179.06 -2.96,212.42 7.71,30.53 -3.41,194.23 -11.69,202.52l-0.02 0.03 -60.93 60.93c-0.52,0.52 -1.03,0.43 -1.52,-0.34l3.15 -3.15c8.01,-25.42 17.26,-170.47 10.06,-199.03 -8.42,-33.36 14.04,-219.54 2.96,-212.43 -42.84,27.52 -433.82,3.15 -499.81,-4.42l60.95 -60.95z"/>
   </g>
   <path class="fil3" d="M709.7 1431.76c65.99,7.57 456.97,31.94 499.81,4.42 11.07,-7.11 -11.38,179.06 -2.96,212.43 8.19,32.44 -4.87,215.21 -13.21,202.18"/>
   <line class="fil3 str2" x1="947.47" y1="1430.85" x2="947.47" y2= "1842.79" />
  </g>
 </g>
</svg>
