<?xml version="1.0" encoding="UTF-8"?>
<!DOCTYPE svg PUBLIC "-//W3C//DTD SVG 1.1//EN" "http://www.w3.org/Graphics/SVG/1.1/DTD/svg11.dtd">
<!-- Creator: CorelDRAW Home & Student 2018 -->
<svg xmlns="http://www.w3.org/2000/svg" xml:space="preserve" width="52.686mm" height="54.4544mm" version="1.1" style="shape-rendering:geometricPrecision; text-rendering:geometricPrecision; image-rendering:optimizeQuality; fill-rule:evenodd; clip-rule:evenodd"
viewBox="0 0 2667.2 2756.73"
 xmlns:xlink="http://www.w3.org/1999/xlink">
 <defs>
  <style type="text/css">
   <![CDATA[
    .str4 {stroke:black;stroke-width:37.97;stroke-miterlimit:22.9256}
    .str2 {stroke:black;stroke-width:25.31;stroke-miterlimit:22.9256}
    .str1 {stroke:white;stroke-width:25.31;stroke-miterlimit:22.9256}
    .str3 {stroke:black;stroke-width:10.12;stroke-miterlimit:22.9256}
    .str0 {stroke:#FFCF61;stroke-width:10.12;stroke-miterlimit:22.9256}
    .fil4 {fill:none}
    .fil3 {fill:black}
    .fil2 {fill:black}
    .fil0 {fill:#FFCF61}
    .fil1 {fill:white}
   ]]>
  </style>
 </defs>
 <g id="Layer_x0020_1">
  <metadata id="CorelCorpID_0Corel-Layer"/>
  <g id="_860207760">
   <polygon class="fil0 str0" points="368.67,2638.15 351.01,537.39 1345.47,26.44 2419.44,496.81 2296.22,2608.01 368.55,2624.21 "/>
   <rect class="fil1 str1" x="559.9" y="788.06" width="283.88" height="412.92"/>
   <rect class="fil1 str1" x="1140.57" y="791.75" width="283.88" height="412.92"/>
   <rect class="fil1 str1" x="1739.67" y="795.43" width="283.88" height="412.92"/>
   <rect class="fil1 str1" x="554.37" y="1352.14" width="283.88" height="412.92"/>
   <rect class="fil1 str1" x="1147.95" y="1359.52" width="283.88" height="412.92"/>
   <rect class="fil1 str1" x="1737.83" y="1370.58" width="283.88" height="412.92"/>
   <rect class="fil2 str2" x="961.76" y="1949.4" width="766.82" height="663.38"/>
   <g>
    <g>
     <path class="fil3" d="M408.15 560.38c0.01,362.81 -53.03,602.68 -4.32,997.68 6.18,50.03 48.03,1043.58 -17.66,1109.27l-0.14 0.14 -85.84 85.84c-3.02,3.02 -6.27,4.08 -9.76,3 -2.78,-10.82 -1.13,-20.12 -1.13,-32.31l29.89 -29.89c37.28,-228.27 4.1,-1005.94 -1.34,-1050.07 -48.72,-394.99 4.32,-634.87 4.32,-997.68l85.98 -85.98z"/>
    </g>
    <path class="fil4" d="M365.16 603.37c0,362.81 -53.03,602.68 -4.32,997.68 6.45,52.34 51.95,1136.92 -27.43,1112.28 -2.78,-10.82 -1.13,-20.12 -1.13,-32.31"/>
    <g>
     <path class="fil3" d="M2439.77 520.93c0,311.61 -26.29,625.24 -26.3,953.34 0,408.87 -72.32,718.79 -72.32,1150.59 0,12.4 0,24.8 0,32.88l-85.99 85.98c0,-8.07 0,-20.48 0,-32.88 0,-431.8 72.32,-741.71 72.32,-1150.59 0,-328.11 26.3,-641.74 26.3,-953.34l85.98 -85.98z"/>
    </g>
    <path class="fil4" d="M2396.78 563.92c0,311.61 -26.3,625.24 -26.3,953.34 0,408.87 -72.32,718.8 -72.32,1150.59 0,12.4 0,24.8 0,32.88"/>
    <g>
     <path class="fil3" d="M414.73 2611.72c343.35,-0.01 680.58,-26.3 1039.38,-26.3 120.03,0 709.23,22.24 820.76,0.53l13.68 -13.68c4.71,2.85 5.73,5.38 3.49,7.61l-85.98 85.98c-31.49,31.49 -708.32,5.54 -837.94,5.54 -358.8,0 -696.03,26.3 -1039.38,26.3l85.98 -85.98z"/>
    </g>
    <path class="fil4" d="M371.74 2654.71c343.35,0 680.58,-26.3 1039.38,-26.3 138.83,0 905.41,29.77 834.44,-13.15"/>
    <g>
     <path class="fil3" d="M85.98 632.7c187.89,0 756.63,-410.42 1046.52,-525.98 312.86,-124.72 157.02,-161.9 602.07,8.26 308.92,118.11 599.13,230.4 887.6,394.49 37.13,21.12 48.41,30.67 44.19,34.9l-85.99 85.98c-4.6,4.6 -27.62,2.87 -55.64,2.87l28.05 -28.05c-4.83,-2.93 -10.34,-6.16 -16.59,-9.71 -288.47,-164.09 -578.68,-276.38 -887.6,-394.49 -445.05,-170.16 -289.21,-132.98 -602.07,-8.26 -289.89,115.56 -858.64,525.99 -1046.52,525.99l85.98 -85.99z"/>
    </g>
    <path class="fil4" d="M42.99 675.69c187.89,0 756.63,-410.42 1046.52,-525.98 312.86,-124.72 157.02,-161.9 602.07,8.27 308.92,118.11 599.13,230.4 887.6,394.49 77.61,44.15 42.27,37.76 -11.46,37.76"/>
    <polyline class="fil4 str3" points="354.08,553.95 1348.53,43 2439.77,520.93 "/>
   </g>
   <rect class="fil1 str4" x="1739.67" y="795.43" width="301.29" height="467.01"/>
   <rect class="fil1 str4" x="1131.87" y="764.7" width="301.29" height="467.01"/>
   <rect class="fil1 str4" x="551.2" y="761.02" width="301.29" height="467.01"/>
   <rect class="fil1 str4" x="545.67" y="1325.1" width="301.29" height="467.01"/>
   <rect class="fil1 str4" x="1139.25" y="1332.47" width="301.29" height="467.01"/>
   <rect class="fil1 str4" x="1729.13" y="1343.53" width="301.29" height="467.01"/>
  </g>
 </g>
</svg>
