<?xml version="1.0" encoding="UTF-8"?>
<!DOCTYPE svg PUBLIC "-//W3C//DTD SVG 1.1//EN" "http://www.w3.org/Graphics/SVG/1.1/DTD/svg11.dtd">
<!-- Creator: CorelDRAW Home & Student 2018 -->
<svg xmlns="http://www.w3.org/2000/svg" xml:space="preserve" width="52.686mm" height="54.4544mm" version="1.1" style="shape-rendering:geometricPrecision; text-rendering:geometricPrecision; image-rendering:optimizeQuality; fill-rule:evenodd; clip-rule:evenodd"
viewBox="0 0 2143.82 2215.78"
 xmlns:xlink="http://www.w3.org/1999/xlink">
 <defs>
  <style type="text/css">
   <![CDATA[
    .str1 {stroke:black;stroke-width:40.69;stroke-miterlimit:22.9256}
    .str2 {stroke:black;stroke-width:8.14;stroke-miterlimit:22.9256}
    .str0 {stroke:#FFCF61;stroke-width:8.14;stroke-miterlimit:22.9256}
    .fil3 {fill:none}
    .fil2 {fill:black}
    .fil0 {fill:#FFCF61}
    .fil1 {fill:white}
   ]]>
  </style>
 </defs>
 <g id="Layer_x0020_1">
  <metadata id="CorelCorpID_0Corel-Layer"/>
  <polygon class="fil0 str0" points="276.04,2124.23 261.84,435.7 1061.16,25 1924.39,403.08 1825.35,2100 275.94,2113.02 "/>
  <rect class="fil1 str1" x="752.74" y="1570.63" width="616.35" height="533.2"/>
  <g id="_873820808">
   <g>
    <path class="fil2" d="M328.06 450.42c0,291.62 -42.63,484.42 -3.47,801.91 4.96,40.21 38.61,838.8 -14.2,891.6l-0.11 0.11 -69 68.99c-2.43,2.43 -5.04,3.28 -7.84,2.41 -2.24,-8.7 -0.91,-16.17 -0.91,-25.97l24.03 -24.03c29.96,-183.48 3.3,-808.55 -1.07,-844.02 -39.16,-317.48 3.47,-510.29 3.47,-801.9l69.11 -69.11z"/>
   </g>
   <path class="fil3" d="M293.5 484.97c0,291.62 -42.63,484.42 -3.47,801.9 5.19,42.07 41.76,913.82 -22.05,894.02 -2.24,-8.7 -0.91,-16.17 -0.91,-25.97"/>
   <g>
    <path class="fil2" d="M1961.01 418.71c0,250.47 -21.13,502.55 -21.14,766.27 0,328.64 -58.13,577.74 -58.13,924.81 0,9.97 0,19.93 0,26.42l-69.11 69.11c0,-6.49 0,-16.46 0,-26.42 0,-347.07 58.13,-596.17 58.13,-924.81 0,-263.72 21.14,-515.81 21.14,-766.27l69.11 -69.11z"/>
   </g>
   <path class="fil3" d="M1926.46 453.26c0,250.47 -21.14,502.55 -21.14,766.27 0,328.64 -58.13,577.75 -58.13,924.81 0,9.97 0,19.93 0,26.42"/>
   <g>
    <path class="fil2" d="M333.34 2099.23c275.98,-0 547.03,-21.14 835.43,-21.14 96.48,0 570.06,17.88 659.7,0.43l11 -11c3.78,2.29 4.6,4.32 2.8,6.12l-69.11 69.11c-25.31,25.31 -569.33,4.45 -673.51,4.45 -288.39,0 -559.45,21.14 -835.42,21.14l69.11 -69.11z"/>
   </g>
   <path class="fil3" d="M298.79 2133.78c275.98,0 547.03,-21.14 835.43,-21.14 111.59,0 727.74,23.93 670.7,-10.57"/>
   <g>
    <path class="fil2" d="M69.11 508.55c151.02,0 608.16,-329.89 841.17,-422.77 251.47,-100.25 126.21,-130.13 483.92,6.64 248.3,94.94 481.56,185.19 713.43,317.08 29.84,16.98 38.91,24.65 35.52,28.05l-69.11 69.11c-3.69,3.7 -22.2,2.3 -44.72,2.3l22.54 -22.55c-3.88,-2.36 -8.31,-4.95 -13.33,-7.8 -231.86,-131.89 -465.13,-222.15 -713.43,-317.08 -357.72,-136.77 -232.46,-106.89 -483.92,-6.64 -233.01,92.88 -690.15,422.77 -841.17,422.77l69.11 -69.11z"/>
   </g>
   <path class="fil3" d="M34.55 543.1c151.02,0 608.16,-329.89 841.17,-422.77 251.47,-100.25 126.21,-130.13 483.92,6.64 248.3,94.94 481.56,185.19 713.43,317.08 62.38,35.49 33.98,30.35 -9.21,30.35"/>
   <polyline class="fil3 str2" points="284.6,445.25 1083.91,34.56 1961.01,418.71 "/>
  </g>
  <rect class="fil1 str1" x="390.81" y="548.3" width="244.24" height="354.15"/>
  <rect class="fil1 str1" x="1514.33" y="548.3" width="244.24" height="354.15"/>
  <rect class="fil1 str1" x="932.22" y="548.3" width="244.24" height="354.15"/>
  <rect class="fil1 str1" x="411.16" y="1053.07" width="244.24" height="354.15"/>
  <rect class="fil1 str1" x="1534.69" y="1053.07" width="244.24" height="354.15"/>
  <rect class="fil1 str1" x="952.57" y="1053.07" width="244.24" height="354.15"/>
 </g>
</svg>
