<?xml version="1.0" encoding="UTF-8"?>
<!DOCTYPE svg PUBLIC "-//W3C//DTD SVG 1.1//EN" "http://www.w3.org/Graphics/SVG/1.1/DTD/svg11.dtd">
<!-- Creator: CorelDRAW Home & Student 2018 -->
<svg xmlns="http://www.w3.org/2000/svg" xml:space="preserve" width="52.686mm" height="54.4544mm" version="1.1" style="shape-rendering:geometricPrecision; text-rendering:geometricPrecision; image-rendering:optimizeQuality; fill-rule:evenodd; clip-rule:evenodd"
viewBox="0 0 978.61 1011.46"
 xmlns:xlink="http://www.w3.org/1999/xlink">
 <defs>
  <style type="text/css">
   <![CDATA[
    .str3 {stroke:black;stroke-width:13.93;stroke-miterlimit:22.9256}
    .str2 {stroke:black;stroke-width:9.29;stroke-miterlimit:22.9256}
    .str1 {stroke:black;stroke-width:3.71;stroke-miterlimit:22.9256}
    .str0 {stroke:#9A4D00;stroke-width:3.71;stroke-miterlimit:22.9256}
    .fil2 {fill:none}
    .fil1 {fill:black}
    .fil3 {fill:black}
    .fil0 {fill:#009A3D}
    .fil4 {fill:white}
   ]]>
  </style>
 </defs>
 <g id="Layer_x0020_1">
  <metadata id="CorelCorpID_0Corel-Layer"/>
  <g id="_1083719808">
   <path class="fil0 str0" d="M136.84 974.34l-6.48 -770.78 364.87 -187.47 394.05 172.58 -45.21 774.61 -707.27 5.94 0.04 5.12zm499.86 -432.35l105.69 0 0 150.42 -105.69 0 0 -150.42zm-210.38 -4l104.72 0 0 147.29 -104.72 0 0 -147.29zm-219.72 5.81l114.93 0 0 146.01 -114.93 0 0 -146.01zm430.11 -260.65l99.68 0 0 158.39 -99.68 0 0 -158.39zm-211.55 0.05l107.29 0 0 161.72 -107.29 0 0 -161.72zm-224.85 3.39l108.02 0 0 160.38 -108.02 0 0 -160.38zm168.53 448.6l255.79 0 0 226.05 -255.79 0 0 -226.05z"/>
   <g>
    <g>
     <path class="fil1" d="M149.75 205.61c0,133.12 -19.46,221.13 -1.59,366.05 2.27,18.36 17.62,382.89 -6.48,407l-0.05 0.05 -31.5 31.49c-1.11,1.11 -2.3,1.5 -3.58,1.1 -1.02,-3.97 -0.41,-7.38 -0.41,-11.85l10.97 -10.97c13.68,-83.75 1.5,-369.09 -0.49,-385.28 -17.87,-144.92 1.58,-232.94 1.58,-366.05l31.55 -31.55z"/>
    </g>
    <path class="fil2" d="M133.98 221.38c0,133.12 -19.46,221.13 -1.58,366.05 2.37,19.2 19.06,417.14 -10.06,408.1 -1.02,-3.97 -0.41,-7.38 -0.41,-11.85"/>
    <g>
     <path class="fil1" d="M895.16 191.13c0,114.33 -9.65,229.4 -9.65,349.79 0,150.02 -26.53,263.73 -26.53,422.16 0,4.55 0,9.1 0,12.06l-31.55 31.55c0,-2.96 0,-7.51 0,-12.06 0,-158.43 26.54,-272.14 26.54,-422.16 0,-120.38 9.65,-235.46 9.65,-349.79l31.55 -31.55z"/>
    </g>
    <path class="fil2" d="M879.39 206.91c0,114.33 -9.65,229.4 -9.65,349.79 0,150.02 -26.54,263.73 -26.54,422.16 0,4.55 0,9.1 0,12.06"/>
    <g>
     <path class="fil1" d="M152.16 958.25c125.98,-0 249.71,-9.65 381.35,-9.65 44.04,0 260.22,8.16 301.14,0.2l5.02 -5.02c1.73,1.04 2.1,1.97 1.28,2.79l-31.55 31.55c-11.55,11.55 -259.89,2.03 -307.44,2.03 -131.64,0 -255.38,9.65 -381.35,9.65l31.55 -31.55z"/>
    </g>
    <path class="fil2" d="M136.39 974.03c125.98,0 249.71,-9.65 381.35,-9.65 50.94,0 332.2,10.92 306.16,-4.83"/>
    <g>
     <path class="fil1" d="M31.55 232.14c68.94,0 277.61,-150.59 383.97,-192.99 114.79,-45.76 57.61,-59.4 220.9,3.03 113.34,43.34 219.82,84.54 325.66,144.74 13.62,7.75 17.76,11.25 16.21,12.8l-31.55 31.55c-1.69,1.69 -10.13,1.05 -20.42,1.05l10.29 -10.29c-1.77,-1.08 -3.79,-2.26 -6.09,-3.56 -105.84,-60.21 -212.32,-101.4 -325.66,-144.74 -163.29,-62.43 -106.11,-48.79 -220.9,-3.03 -106.36,42.4 -315.04,192.99 -383.97,192.99l31.55 -31.55z"/>
    </g>
    <path class="fil2" d="M15.77 247.91c68.94,0 277.61,-150.59 383.97,-192.99 114.79,-45.76 57.61,-59.4 220.9,3.03 113.34,43.34 219.82,84.53 325.66,144.74 28.47,16.2 15.51,13.85 -4.21,13.85"/>
    <rect class="fil3 str1" x="369.11" y="740.56" width="121.27" height="213.21"/>
    <rect class="fil3 str1" x="504.7" y="741.82" width="121.27" height="213.21"/>
    <polyline class="fil2 str1" points="129.91,203.25 494.78,15.78 895.16,191.13 "/>
    <rect class="fil4 str2" x="369.11" y="740.56" width="255.79" height="226.05"/>
    <g>
     <path class="fil3" d="M225 268.2c-0,61.55 4.46,99.45 -3.13,161.14 -0.59,4.8 15.67,-7.9 38.25,-8.11 12.73,-0.12 26.53,2.53 39.75,2.41 -1.08,-44.15 11.26,-123.08 1,-123.89l31.55 -31.55c13.37,1.06 -11.68,134.95 4.72,151.35 1.16,1.16 1.52,1.75 1.3,1.98l-31.54 31.54 -0.01 0.01c-0.91,0.91 -11.31,-3.96 -18.18,-1.31 -18.57,7.17 -40.63,0.83 -60.14,1.01 -22.58,0.21 -38.84,12.9 -38.25,8.11 7.59,-61.69 3.13,-99.59 3.13,-161.13l31.55 -31.55z"/>
    </g>
    <path class="fil2" d="M209.23 283.98c0,61.55 4.46,99.45 -3.13,161.14 -0.59,4.8 15.67,-7.9 38.25,-8.11 19.51,-0.18 41.56,6.15 60.14,-1.01 8.58,-3.31 22.68,5.13 16.88,-0.66 -16.4,-16.4 8.65,-150.29 -4.72,-151.35"/>
    <g>
     <path class="fil3" d="M218.92 264.15c8.16,0 115.47,0.06 116.54,-1.01l-15.77 15.77 0 0 -0 0 0 0 -15.78 15.77c-1.07,1.07 -108.38,1.01 -116.54,1.01l31.55 -31.55z"/>
    </g>
    <path class="fil2" d="M203.14 279.92c8.17,0 115.69,0.06 116.54,-1.01"/>
    <g>
     <path class="fil3" d="M441.87 258.07c-0,17.73 4.79,151.02 2.29,157.08 -4.36,10.56 15.43,-2.03 35.96,-2.03 3.29,0 19.11,-1.07 34.22,-1.37 1.39,-23.98 3.72,-54.73 7.2,-73.41 0.71,-3.83 3.61,-45.2 -0.75,-46.7l31.55 -31.55c4.36,1.51 1.47,42.88 0.75,46.71 -6.38,34.18 -8.87,108.79 -8.86,108.35l-31.55 31.55c0.25,-6.38 -57.47,-2.03 -64.11,-2.03 -20.54,-0 -40.32,12.58 -35.97,2.03 2.5,-6.07 -2.29,-139.35 -2.29,-157.08l31.55 -31.55z"/>
    </g>
    <path class="fil2" d="M426.1 273.84c0,17.73 4.79,151.02 2.29,157.08 -4.35,10.56 15.43,-2.03 35.97,-2.03 6.63,0 64.36,-4.35 64.11,2.03 -0.02,0.43 2.48,-74.17 8.86,-108.35 0.71,-3.83 3.61,-45.19 -0.75,-46.71"/>
    <g>
     <path class="fil3" d="M446.94 255.03c7.92,0.78 94.42,6.62 95.26,8.11l-31.55 31.55c-0.84,-1.48 -87.35,-7.33 -95.26,-8.11l31.55 -31.54z"/>
    </g>
    <path class="fil2" d="M431.17 270.8c7.92,0.78 94.42,6.62 95.26,8.11"/>
    <g>
     <path class="fil3" d="M654.69 256.04c0,41.23 2.78,93.27 9.88,133.86 7.03,40.2 -37.16,21.2 49.92,21.2 2.94,0 9.08,-0.33 16.06,-0.43 -1.09,-27.25 -2.38,-60.34 -1.91,-67.33 0.43,-6.46 2.22,-56.57 -2.11,-56.75 -2.36,-0.1 -1.76,0.42 -4.05,1.02l31.55 -31.55c2.29,-0.59 1.7,-1.11 4.05,-1.01 4.33,0.18 2.54,50.3 2.12,56.75 -0.81,12.27 3.75,104.78 3.22,105.31l-31.55 31.55 -0 0c-2.77,-8.94 -40.11,-5.99 -48.9,-5.99 -87.07,0 -42.89,19 -49.92,-21.2 -7.1,-40.59 -9.87,-92.63 -9.87,-133.86l31.54 -31.55z"/>
    </g>
    <path class="fil2" d="M638.92 271.82c0,41.23 2.78,93.27 9.88,133.86 7.03,40.2 -37.16,21.2 49.92,21.2 8.79,0 46.13,-2.95 48.9,5.99 0.56,0 -4.03,-93 -3.21,-105.31 0.43,-6.46 2.22,-56.57 -2.12,-56.75 -2.36,-0.1 -1.76,0.42 -4.05,1.01"/>
    <g>
     <path class="fil3" d="M665.84 251.99c12.85,0.41 85.43,3.42 93.24,6.08l-31.55 31.55c-7.8,-2.67 -80.38,-5.68 -93.23,-6.08l31.55 -31.55z"/>
    </g>
    <path class="fil2" d="M650.07 267.76c12.85,0.4 85.44,3.42 93.24,6.08"/>
    <g>
     <path class="fil3" d="M222.97 516.5c4.64,34.4 6.53,76.46 11.9,112.49 8.22,55.19 -24.07,30.02 46.21,33.53 2.79,0.14 13.15,0.36 24.37,0.42 1.22,-33.23 6.92,-82.48 -2.38,-100.71 -1.1,-2.15 -0.55,-13.39 -2.98,-12.39l-1.24 1.24 0.66 -0.83 31.55 -31.55c3.1,-3.1 2.38,9.66 3.56,11.97 13.23,25.94 -3.92,114.7 4.72,130.73l-0.04 0.21 -31.55 31.55c-2.03,2.03 -51.57,1.22 -58.21,0.89 -70.28,-3.51 -37.99,21.66 -46.21,-33.53 -5.37,-36.03 -7.26,-78.09 -11.9,-112.49l31.54 -31.55z"/>
    </g>
    <path class="fil2" d="M207.2 532.27c4.64,34.4 6.53,76.46 11.9,112.49 8.23,55.19 -24.07,30.02 46.21,33.53 6.86,0.34 59.49,1.19 58.26,-1.1 -8.64,-16.04 8.52,-104.79 -4.72,-130.73 -1.26,-2.46 -0.36,-16.8 -4.23,-11.15"/>
    <g>
     <path class="fil3" d="M235.13 519.53c37.36,3.34 65.42,5.07 101.34,5.07l-31.55 31.54c-35.92,0 -63.98,-1.73 -101.34,-5.07l31.55 -31.55z"/>
    </g>
    <path class="fil2" d="M219.36 535.31c37.36,3.34 65.42,5.07 101.34,5.07"/>
    <g>
     <path class="fil3" d="M435.79 521.56c0,10.94 5.44,139.99 6,139.94 15.15,-1.19 17.24,-5.15 45.03,-5.15 4.97,0 12.6,0.27 20.67,0.62 -1.71,-35.75 -1.87,-89.53 -1.89,-105.88l-1.01 1.01c0.57,-0.57 0.87,-0.98 1.01,-1.34l0 -2.61 0 -0.1 31.54 -31.55 0 0.1c0.01,1.35 0.26,1.93 0,2.61 0.02,24.13 0.35,136.17 5.99,139.52l0 0 -31.55 31.55c-0.14,0.14 -40.96,-2.38 -56.32,-2.38 -27.78,0 -29.88,3.97 -45.03,5.15 -0.56,0.05 -6,-129 -6,-139.94l31.55 -31.55z"/>
    </g>
    <path class="fil2" d="M420.02 537.34c0,10.94 5.43,139.98 5.99,139.94 15.15,-1.19 17.25,-5.15 45.03,-5.15 15.45,0 56.61,2.55 56.32,2.37 -5.89,-3.5 -5.99,-125.66 -5.99,-142.23 0,2.19 0.63,2.41 -1.01,4.05"/>
    <g>
     <path class="fil3" d="M455.05 524.61c15.03,0 79.98,8.29 84.12,6.08l-31.55 31.55c-4.13,2.21 -69.09,-6.08 -84.12,-6.08l31.55 -31.54z"/>
    </g>
    <path class="fil2" d="M439.27 540.38c15.03,0 79.98,8.29 84.12,6.08"/>
    <g>
     <path class="fil3" d="M658.75 523.59c1.41,12.26 8.28,134.55 3.04,140.87 9.48,-1.4 47.43,-1.86 75.55,-2.75 0.14,-22.03 0.73,-29.76 -6.5,-68.98 -2.63,-14.28 -3.3,-32.77 -3.3,-47.72l31.55 -31.55c0,14.94 0.67,33.44 3.3,47.72 9.68,52.47 5.35,48.58 6.83,97.96l-0.08 0.17 -31.55 31.55c-3.07,3.07 -92.08,2.91 -107.34,5.16 5.24,-6.32 -1.64,-128.61 -3.04,-140.87l31.55 -31.55z"/>
    </g>
    <path class="fil2" d="M642.98 539.36c1.4,12.26 8.28,134.54 3.04,140.87 15.54,-2.29 107.52,-2.08 107.42,-5.33 -1.48,-49.38 2.84,-45.49 -6.83,-97.96 -2.63,-14.28 -3.3,-32.77 -3.3,-47.72"/>
    <g>
     <path class="fil3" d="M668.89 510.42c10.3,4.96 102.89,6 102.82,6.08l-31.55 31.55 -0.46 0 0.02 -0.02c-6.82,-0.15 -92.49,-1.3 -102.37,-6.06l31.55 -31.55z"/>
    </g>
    <path class="fil2" d="M653.11 526.19c10.72,5.16 110.43,6.08 102.36,6.08"/>
    <g>
     <path class="fil3" d="M387.15 728.3c0,45.24 -7.09,78.07 -7.09,125.67 0,4.35 0.19,82.09 -1.88,84.17l-31.55 31.55c-0.26,0.26 -0.56,-0.67 -0.89,-3.09 -0.46,-3.32 -0.26,-3.95 -0.26,-7.1l2.29 -2.29c0.86,-22.64 0.75,-68.38 0.75,-71.69 0,-47.59 7.09,-80.42 7.09,-125.66l31.55 -31.55z"/>
    </g>
    <path class="fil2" d="M371.37 744.08c0,45.24 -7.09,78.08 -7.09,125.66 0,4.9 0.24,102.78 -2.78,81.08 -0.46,-3.32 -0.26,-3.95 -0.26,-7.1"/>
    <g>
     <path class="fil3" d="M383.09 725.26c34.16,3.92 236.51,16.53 258.69,2.29 5.73,-3.68 -5.89,92.67 -1.53,109.94 3.99,15.8 -1.76,100.53 -6.05,104.82l-0.01 0.01 -31.53 31.54c-0.27,0.27 -0.53,0.22 -0.79,-0.17l1.63 -1.63c4.14,-13.15 8.93,-88.23 5.2,-103.01 -4.36,-17.27 7.26,-113.62 1.53,-109.95 -22.17,14.24 -224.53,1.63 -258.69,-2.29l31.55 -31.55z"/>
    </g>
    <path class="fil2" d="M367.32 741.04c34.16,3.92 236.51,16.53 258.69,2.29 5.73,-3.68 -5.89,92.68 -1.53,109.95 4.24,16.79 -2.52,111.39 -6.84,104.64"/>
    <line class="fil2 str3" x1="490.38" y1="740.56" x2="490.38" y2= "953.77" />
   </g>
  </g>
 </g>
</svg>
