<?xml version="1.0" encoding="UTF-8"?>
<!DOCTYPE svg PUBLIC "-//W3C//DTD SVG 1.1//EN" "http://www.w3.org/Graphics/SVG/1.1/DTD/svg11.dtd">
<!-- Creator: CorelDRAW Home & Student 2018 -->
<svg xmlns="http://www.w3.org/2000/svg" xml:space="preserve" width="52.686mm" height="54.4544mm" version="1.1" style="shape-rendering:geometricPrecision; text-rendering:geometricPrecision; image-rendering:optimizeQuality; fill-rule:evenodd; clip-rule:evenodd"
viewBox="0 0 4760.87 4920.67"
 xmlns:xlink="http://www.w3.org/1999/xlink">
 <defs>
  <style type="text/css">
   <![CDATA[
    .str3 {stroke:black;stroke-width:67.77;stroke-miterlimit:22.9256}
    .str2 {stroke:black;stroke-width:45.18;stroke-miterlimit:22.9256}
    .str1 {stroke:black;stroke-width:18.07;stroke-miterlimit:22.9256}
    .str0 {stroke:yellow;stroke-width:18.07;stroke-miterlimit:22.9256}
    .fil2 {fill:none}
    .fil1 {fill:black}
    .fil3 {fill:black}
    .fil0 {fill:#FFCF61}
    .fil4 {fill:white}
   ]]>
  </style>
 </defs>
 <g id="Layer_x0020_1">
  <metadata id="CorelCorpID_0Corel-Layer"/>
  <g id="_1083722256">
   <path class="fil0 str0" d="M627.73 4730.41l-31.52 -3749.79 1775.07 -912.04 1917.02 839.6 -219.94 3768.42 -3440.84 28.92 0.21 24.9zm2431.8 -2103.35l514.17 0 0 731.81 -514.17 0 0 -731.81zm-1023.48 -19.45l509.45 0 0 716.58 -509.45 0 0 -716.58zm-1068.92 28.27l559.13 0 0 710.32 -559.13 0 0 -710.32zm2092.47 -1268.03l484.92 0 0 770.56 -484.92 0 0 -770.56zm-1029.15 0.26l521.96 0 0 786.76 -521.96 0 0 -786.76zm-1093.86 16.51l525.51 0 0 780.25 -525.51 0 0 -780.25zm819.87 2182.39l1244.42 0 0 1099.72 -1244.42 0 0 -1099.72z"/>
   <g>
    <g>
     <path class="fil1" d="M728.53 1000.26c0.01,647.6 -94.66,1075.77 -7.72,1780.83 11.02,89.31 85.74,1862.75 -31.53,1980.02l-0.25 0.25 -153.23 153.22c-5.39,5.39 -11.19,7.27 -17.41,5.35 -4.97,-19.32 -2.02,-35.92 -2.02,-57.67l53.36 -53.36c66.54,-407.46 7.32,-1795.58 -2.39,-1874.35 -86.96,-705.05 7.71,-1133.22 7.71,-1780.82l153.47 -153.47z"/>
    </g>
    <path class="fil2" d="M651.8 1076.99c0,647.6 -94.66,1075.77 -7.71,1780.82 11.52,93.42 92.73,2029.36 -48.96,1985.38 -4.97,-19.32 -2.02,-35.92 -2.02,-57.67"/>
    <g>
     <path class="fil1" d="M4354.9 929.84c0,556.22 -46.93,1116.03 -46.94,1701.69 0,729.83 -129.08,1283.02 -129.08,2053.77 0,22.13 0,44.26 0,58.68l-153.48 153.47c0,-14.41 0,-36.55 0,-58.68 0,-770.74 129.09,-1323.94 129.09,-2053.77 0,-585.66 46.94,-1145.48 46.94,-1701.69l153.47 -153.47z"/>
    </g>
    <path class="fil2" d="M4278.17 1006.58c0,556.22 -46.94,1116.03 -46.94,1701.69 0,729.83 -129.09,1283.03 -129.09,2053.77 0,22.13 0,44.26 0,58.68"/>
    <g>
     <path class="fil1" d="M740.27 4661.84c612.87,-0.01 1214.81,-46.94 1855.26,-46.94 214.25,0 1265.96,39.71 1465.03,0.95l24.43 -24.43c8.4,5.08 10.22,9.6 6.23,13.59l-153.47 153.47c-56.21,56.21 -1264.32,9.89 -1495.69,9.89 -640.44,0 -1242.39,46.94 -1855.25,46.94l153.47 -153.47z"/>
    </g>
    <path class="fil2" d="M663.54 4738.58c612.87,0 1214.81,-46.94 1855.26,-46.94 247.8,0 1616.13,53.13 1489.45,-23.48"/>
    <g>
     <path class="fil1" d="M153.47 1129.35c335.37,0 1350.57,-732.59 1868.01,-938.86 558.44,-222.62 280.27,-288.98 1074.67,14.75 551.4,210.83 1069.43,411.26 1584.34,704.15 66.27,37.7 86.41,54.75 78.88,62.29l-153.48 153.47c-8.2,8.21 -49.3,5.11 -99.32,5.11l50.06 -50.07c-8.62,-5.23 -18.46,-10.99 -29.61,-17.33 -514.91,-292.89 -1032.93,-493.33 -1584.34,-704.15 -794.41,-303.73 -516.23,-237.37 -1074.67,-14.75 -517.45,206.27 -1532.64,938.87 -1868.01,938.87l153.47 -153.48z"/>
    </g>
    <path class="fil2" d="M76.74 1206.08c335.37,0 1350.57,-732.59 1868.01,-938.86 558.44,-222.62 280.27,-288.98 1074.67,14.76 551.4,210.83 1069.43,411.25 1584.34,704.15 138.53,78.81 75.45,67.4 -20.46,67.4"/>
    <rect class="fil3 str1" x="1795.7" y="3602.78" width="589.98" height="1037.25"/>
    <rect class="fil3 str1" x="2455.35" y="3608.9" width="589.98" height="1037.25"/>
    <polyline class="fil2 str1" points="632.02,988.79 2407.09,76.75 4354.9,929.84 "/>
    <rect class="fil4 str2" x="1795.71" y="3602.79" width="1244.42" height="1099.72"/>
    <g>
     <path class="fil3" d="M1094.6 1304.8c-0.01,299.43 21.7,483.8 -15.21,783.92 -2.87,23.33 76.24,-38.42 186.08,-39.44 61.92,-0.58 129.08,12.33 193.39,11.7 -5.27,-214.81 54.76,-598.76 4.88,-602.69l153.47 -153.48c65.05,5.13 -56.82,656.52 22.96,736.31 5.65,5.65 7.42,8.51 6.31,9.62l-153.43 153.42 -0.05 0.05c-4.45,4.45 -55.03,-19.27 -88.44,-6.39 -90.36,34.86 -197.64,4.05 -292.56,4.93 -109.85,1.02 -188.96,62.78 -186.09,39.44 36.92,-300.11 15.21,-484.49 15.22,-783.91l153.47 -153.48z"/>
    </g>
    <path class="fil2" d="M1017.87 1381.53c0,299.43 21.7,483.8 -15.22,783.92 -2.87,23.33 76.25,-38.42 186.09,-39.44 94.92,-0.89 202.21,29.93 292.57,-4.93 41.76,-16.1 110.34,24.98 82.12,-3.23 -79.78,-79.78 42.09,-731.17 -22.95,-736.31"/>
    <g>
     <path class="fil3" d="M1065.03 1285.07c39.71,0.01 561.75,0.31 566.96,-4.91l-76.73 76.73 0.01 0 -0.02 0.01 0 0 -76.75 76.74c-5.2,5.21 -527.25,4.92 -566.96,4.92l153.48 -153.48z"/>
    </g>
    <path class="fil2" d="M988.28 1361.82c39.76,0 562.84,0.3 566.98,-4.93"/>
    <g>
     <path class="fil3" d="M2149.69 1255.5c-0.01,86.28 23.3,734.68 11.12,764.2 -21.19,51.35 75.06,-9.87 174.95,-9.87 15.99,0 92.98,-5.2 166.48,-6.67 6.76,-116.66 18.08,-266.25 35.04,-357.11 3.47,-18.61 17.57,-219.87 -3.67,-227.21l153.47 -153.48c21.24,7.35 7.14,208.59 3.66,227.22 -31.02,166.27 -43.18,529.24 -43.09,527.12l-153.48 153.47c1.22,-31.05 -279.61,-9.87 -311.87,-9.86 -99.91,-0.01 -196.16,61.21 -174.97,9.86 12.18,-29.52 -11.12,-677.92 -11.12,-764.19l153.48 -153.48z"/>
    </g>
    <path class="fil2" d="M2072.95 1332.23c0,86.28 23.3,734.68 11.12,764.19 -21.18,51.36 75.06,-9.86 174.97,-9.86 32.26,0 313.09,-21.18 311.87,9.86 -0.08,2.11 12.08,-360.85 43.11,-527.11 3.47,-18.61 17.57,-219.86 -3.67,-227.22"/>
    <g>
     <path class="fil3" d="M2174.34 1240.71c38.51,3.8 459.36,32.21 463.45,39.43l-153.47 153.48c-4.08,-7.22 -424.93,-35.64 -463.45,-39.45l153.47 -153.46z"/>
    </g>
    <path class="fil2" d="M2097.61 1317.44c38.51,3.8 459.36,32.22 463.45,39.44"/>
    <g>
     <path class="fil3" d="M3185.04 1245.64c0,200.57 13.5,453.73 48.05,651.22 34.2,195.55 -180.76,103.11 242.85,103.11 14.31,0 44.2,-1.6 78.11,-2.11 -5.31,-132.55 -11.56,-293.53 -9.31,-327.58 2.1,-31.41 10.8,-275.2 -10.28,-276.1 -11.46,-0.49 -8.57,2.06 -19.72,4.94l153.47 -153.48c11.16,-2.87 8.26,-5.42 19.72,-4.92 21.08,0.89 12.38,244.69 10.29,276.1 -3.96,59.71 18.24,509.73 15.66,512.3l-153.48 153.47 -0.02 0.02c-13.49,-43.5 -195.14,-29.15 -237.92,-29.16 -423.61,0.01 -208.65,92.44 -242.86,-103.11 -34.54,-197.49 -48.03,-450.65 -48.03,-651.22l153.46 -153.47z"/>
    </g>
    <path class="fil2" d="M3108.31 1322.37c0,200.57 13.5,453.73 48.05,651.22 34.2,195.55 -180.76,103.11 242.85,103.11 42.78,0 224.43,-14.34 237.92,29.16 2.73,0 -19.61,-452.44 -15.63,-512.33 2.09,-31.41 10.79,-275.19 -10.29,-276.1 -11.46,-0.49 -8.56,2.06 -19.72,4.93"/>
    <g>
     <path class="fil3" d="M3239.29 1225.9c62.52,1.98 415.63,16.63 453.59,29.59l-153.48 153.48c-37.94,-12.98 -391.06,-27.61 -453.58,-29.59l153.47 -153.48z"/>
    </g>
    <path class="fil2" d="M3162.54 1302.65c62.53,1.97 415.64,16.62 453.59,29.58"/>
    <g>
     <path class="fil3" d="M1084.74 2512.72c22.57,167.37 31.78,371.98 57.91,547.27 40,268.5 -117.1,146.04 224.81,163.12 13.56,0.68 63.95,1.76 118.56,2.06 5.92,-161.68 33.67,-401.27 -11.58,-489.95 -5.35,-10.48 -2.69,-65.12 -14.51,-60.28l-6.05 6.05 3.22 -4.02 153.48 -153.47c15.08,-15.08 11.59,47.02 17.33,58.26 64.38,126.19 -19.05,557.99 22.96,636l-0.2 1.02 -153.48 153.48c-9.89,9.89 -250.9,5.95 -283.21,4.33 -341.92,-17.08 -184.81,105.39 -224.82,-163.11 -26.13,-175.3 -35.33,-379.9 -57.9,-547.27l153.46 -153.47z"/>
    </g>
    <path class="fil2" d="M1008 2589.45c22.57,167.37 31.78,371.98 57.9,547.27 40.02,268.5 -117.09,146.04 224.82,163.12 33.37,1.66 289.43,5.81 283.41,-5.35 -42.01,-78.02 41.43,-509.82 -22.96,-636.01 -6.12,-11.98 -1.76,-81.72 -20.57,-54.24"/>
    <g>
     <path class="fil3" d="M1143.91 2527.5c181.74,16.27 318.28,24.67 493.03,24.67l-153.48 153.46c-174.74,0 -311.28,-8.39 -493.02,-24.65l153.47 -153.48z"/>
    </g>
    <path class="fil2" d="M1067.17 2604.25c181.74,16.26 318.28,24.66 493.03,24.66"/>
    <g>
     <path class="fil3" d="M2120.1 2537.37c0,53.23 26.45,681.02 29.17,680.8 73.7,-5.77 83.89,-25.08 219.05,-25.08 24.18,0 61.32,1.29 100.54,3 -8.34,-173.9 -9.12,-435.56 -9.19,-515.11l-4.93 4.92c2.79,-2.79 4.24,-4.74 4.93,-6.54l0 -12.69 0 -0.49 153.46 -153.48 0 0.5c0.06,6.58 1.28,9.39 0.02,12.68 0.09,117.38 1.7,662.46 29.16,678.76l0 0.02 -153.47 153.47c-0.7,0.69 -199.25,-11.58 -273.99,-11.58 -135.16,0 -145.35,19.29 -219.05,25.08 -2.72,0.23 -29.17,-627.57 -29.17,-680.8l153.47 -153.48z"/>
    </g>
    <path class="fil2" d="M2043.37 2614.11c0,53.22 26.44,681.01 29.15,680.8 73.71,-5.77 83.9,-25.07 219.05,-25.07 75.15,0 275.4,12.39 273.99,11.55 -28.67,-17.04 -29.16,-611.31 -29.16,-691.94 0,10.66 3.08,11.7 -4.93,19.73"/>
    <g>
     <path class="fil3" d="M2213.78 2552.17c73.11,0 389.12,40.33 409.22,29.58l-153.47 153.47c-20.1,10.75 -336.11,-29.58 -409.22,-29.58l153.47 -153.46z"/>
    </g>
    <path class="fil2" d="M2137.04 2628.91c73.11,0 389.11,40.32 409.22,29.58"/>
    <g>
     <path class="fil3" d="M3204.77 2547.24c6.84,59.64 40.3,654.55 14.78,685.3 46.13,-6.8 230.73,-9.07 367.54,-13.4 0.68,-107.18 3.54,-144.79 -31.65,-335.59 -12.8,-69.47 -16.06,-159.44 -16.07,-232.15l153.48 -153.47c0.01,72.71 3.25,162.68 16.06,232.14 47.07,255.24 26.05,236.33 33.24,476.56l-0.39 0.82 -153.47 153.47c-14.93,14.93 -447.97,14.15 -522.22,25.1 25.51,-30.77 -7.96,-625.67 -14.79,-685.31l153.47 -153.47z"/>
    </g>
    <path class="fil2" d="M3128.03 2623.97c6.83,59.64 40.3,654.54 14.78,685.3 75.59,-11.14 523.09,-10.13 522.61,-25.92 -7.19,-240.23 13.83,-221.32 -33.24,-476.55 -12.8,-69.47 -16.06,-159.45 -16.06,-232.14"/>
    <g>
     <path class="fil3" d="M3254.08 2483.14c50.12,24.13 500.56,29.21 500.2,29.56l-153.47 153.47 -2.26 0.02 0.09 -0.09c-33.16,-0.72 -449.94,-6.33 -498.05,-29.49l153.48 -153.47z"/>
    </g>
    <path class="fil2" d="M3177.34 2559.88c52.14,25.08 537.23,29.58 497.96,29.58"/>
    <g>
     <path class="fil3" d="M1883.45 3543.15c0,220.1 -34.51,379.82 -34.51,611.36 0,21.15 0.94,399.37 -9.16,409.47l-153.48 153.48c-1.27,1.27 -2.71,-3.27 -4.35,-15.05 -2.25,-16.17 -1.27,-19.23 -1.27,-34.52l11.14 -11.14c4.17,-110.16 3.64,-332.68 3.64,-348.77 0,-231.52 34.51,-391.25 34.51,-611.35l153.47 -153.47z"/>
    </g>
    <path class="fil2" d="M1806.71 3619.89c0,220.11 -34.51,379.83 -34.51,611.35 0,23.82 1.18,500.04 -13.52,394.43 -2.26,-16.17 -1.27,-19.23 -1.27,-34.52"/>
    <g>
     <path class="fil3" d="M1863.73 3528.36c166.18,19.05 1150.62,80.42 1258.5,11.13 27.88,-17.91 -28.66,450.86 -7.46,534.87 19.4,76.88 -8.58,489.07 -29.44,509.93l-0.05 0.06 -153.41 153.42c-1.31,1.3 -2.58,1.08 -3.82,-0.85l7.93 -7.93c20.16,-64 43.46,-429.24 25.32,-501.15 -21.2,-84 35.34,-552.78 7.46,-534.88 -107.88,69.3 -1092.33,7.92 -1258.5,-11.12l153.47 -153.47z"/>
    </g>
    <path class="fil2" d="M1786.99 3605.1c166.17,19.05 1150.62,80.42 1258.5,11.12 27.88,-17.9 -28.66,450.87 -7.46,534.88 20.61,81.69 -12.26,541.9 -33.25,509.09"/>
    <line class="fil2 str3" x1="2385.68" y1="3602.78" x2="2385.68" y2= "4640.03" />
   </g>
  </g>
 </g>
</svg>
