<?xml version="1.0" encoding="UTF-8"?>
<!DOCTYPE svg PUBLIC "-//W3C//DTD SVG 1.1//EN" "http://www.w3.org/Graphics/SVG/1.1/DTD/svg11.dtd">
<!-- Creator: CorelDRAW Home & Student 2018 -->
<svg xmlns="http://www.w3.org/2000/svg" xml:space="preserve" width="41.6665mm" height="35.8225mm" version="1.1" style="shape-rendering:geometricPrecision; text-rendering:geometricPrecision; image-rendering:optimizeQuality; fill-rule:evenodd; clip-rule:evenodd"
viewBox="0 0 945.4 812.8"
 xmlns:xlink="http://www.w3.org/1999/xlink">
 <defs>
  <style type="text/css">
   <![CDATA[
    .str1 {stroke:black;stroke-width:22.69;stroke-miterlimit:22.9256}
    .str2 {stroke:black;stroke-width:4.54;stroke-miterlimit:22.9256}
    .str0 {stroke:#9A4D00;stroke-width:4.54;stroke-miterlimit:22.9256}
    .fil2 {fill:none}
    .fil1 {fill:black}
    .fil0 {fill:#9A4D00}
   ]]>
  </style>
 </defs>
 <g id="Layer_x0020_1">
  <metadata id="CorelCorpID_0Corel-Layer"/>
  <path class="fil0 str0" d="M118.28 283.02l-3 502.05 747.16 -14.81 -16.57 -491.75 -100.72 -57.03 16.21 -185.62 -84.93 -1.33 -7.54 154.19 -184.42 -106.85 -366.19 201.14zm87.5 121.06l179.19 0 0 181.42 -179.19 0 0 -181.42zm308.1 -15.8l186.98 0 0 368.67 -186.98 0 0 -368.67z"/>
  <g id="_1083720960">
   <g>
    <path class="fil1 str1" d="M504.94 386.29c0,31.4 1.19,299.13 3.96,306.63 1.32,3.57 9.09,64.1 4.97,64.1l-0.02 0 -17.26 0c-0.51,0 -1.2,-0.93 -2.11,-3l3.18 0c1.09,-12.25 -4.89,-58 -6.03,-61.09 -2.76,-7.5 -3.96,-275.24 -3.96,-306.63l17.29 0z"/>
   </g>
   <path class="fil2" d="M496.3 386.29c0,31.4 1.19,299.13 3.96,306.63 1.48,4.02 11.12,79.95 2.85,61.09"/>
   <g>
    <g>
     <g>
      <path class="fil1" d="M138.33 250.42c-3.47,12.69 -7.25,295.48 -7.7,327.22 -0.91,64.41 -6.77,126.07 -6.77,191.44l-43.73 43.72c0,-65.37 5.87,-127.02 6.77,-191.44 0.45,-31.74 4.22,-314.53 7.7,-327.22l43.72 -43.73z"/>
     </g>
     <path class="fil2" d="M116.47 272.29c-3.47,12.69 -7.25,295.48 -7.69,327.22 -0.91,64.41 -6.78,126.07 -6.78,191.44"/>
     <g>
      <path class="fil1" d="M97.15 756.84c25.41,5.89 162.33,-6.86 213.98,-3.63 50.54,3.16 105.7,1.3 160.46,4.36 21.49,1.2 352.28,1.14 372.52,-8.67l0.97 -0.97 -0.24 0.49 -43.73 43.72c-10.28,10.28 -351.42,10.36 -373.26,9.14 -54.76,-3.05 -109.92,-1.19 -160.46,-4.35 -51.65,-3.23 -188.57,9.52 -213.98,3.63l43.72 -43.73z"/>
     </g>
     <path class="fil2" d="M75.28 778.7c25.41,5.89 162.33,-6.85 213.98,-3.63 50.54,3.16 105.7,1.3 160.46,4.36 22.18,1.24 373.75,1.13 373.49,-9.63"/>
     <g>
      <path class="fil1" d="M43.72 292.72c27.12,-4.04 89.82,-48.6 128,-63.73 58.89,-23.34 194.04,-96.1 247.08,-135.5 8.53,-6.33 54.17,-41.79 54.63,-41.28 21.04,23.36 123.15,48.51 173.44,93.49 39.54,35.36 197.55,92.92 254.43,123.38 2.07,1.11 48.3,25.06 43.79,29.57l-0.02 0.02 -43.7 43.7c-0.47,0.47 -1.49,0.73 -3.18,0.73l2.92 -2.92c-5.02,-7.4 -41.68,-26.4 -43.52,-27.38 -56.89,-30.46 -214.9,-88.03 -254.43,-123.39 -50.29,-44.98 -152.4,-70.14 -173.44,-93.49 -0.47,-0.52 -46.11,34.94 -54.63,41.28 -53.04,39.4 -188.19,112.16 -247.09,135.5 -38.17,15.13 -100.87,59.69 -127.99,63.73l43.72 -43.72z"/>
     </g>
     <path class="fil2" d="M21.86 314.58c27.13,-4.04 89.82,-48.6 128,-63.73 58.89,-23.34 194.04,-96.1 247.08,-135.5 8.53,-6.33 54.17,-41.79 54.63,-41.28 21.04,23.36 123.15,48.51 173.44,93.49 39.53,35.36 197.55,92.92 254.43,123.38 2.29,1.23 58.44,30.3 40.61,30.3"/>
     <rect class="fil2 str2" x="202.17" y="412.52" width="158.05" height="175.85"/>
     <g>
      <path class="fil1" d="M224.03 380.65c4.89,35.21 0.95,89.41 5.66,135.4 0.7,6.9 -1.81,46.58 0.92,45.28 22.43,-10.62 148.32,-1.08 159.55,-6.24l0.82 -0.82 -0.21 0.45 -43.72 43.72c-5.98,5.98 -137.21,-4.25 -160.16,6.61 -2.73,1.3 -0.21,-38.39 -0.92,-45.28 -4.71,-45.99 -0.78,-100.19 -5.66,-135.4l43.72 -43.72z"/>
     </g>
     <path class="fil2" d="M202.17 402.5c4.89,35.21 0.95,89.42 5.66,135.41 0.71,6.9 -1.81,46.58 0.92,45.28 23.48,-11.12 160.37,-0.14 160.37,-7.06"/>
     <g>
      <path class="fil1" d="M225.14 377.3c27.43,6.81 141.78,2.76 164.37,1.47l0.35 -0.35 2.51 0 1.04 0.05 -43.72 43.72c-0.59,0.59 -137.86,6.39 -168.27,-1.16l43.72 -43.73z"/>
     </g>
     <path class="fil2" d="M203.28 399.17c31.99,7.94 182.16,1.11 167.23,1.11l-2.51 0"/>
     <g>
      <path class="fil1" d="M387.64 367.29c9.26,22.26 -6.4,185.57 2.23,195.89l-43.73 43.72c-8.63,-10.33 7.04,-173.63 -2.23,-195.89l43.73 -43.73z"/>
     </g>
     <path class="fil2" d="M365.78 389.15c9.26,22.26 -6.4,185.56 2.23,195.89"/>
     <g>
      <path class="fil1" d="M703.73 15.58c-1.28,9.33 -6.04,136.93 -15.47,146.37l-43.73 43.72 -1.22 0.54 2.41 -2.41c8.65,-18.34 13.06,-135.57 14.29,-144.5l43.72 -43.72z"/>
     </g>
     <path class="fil2" d="M681.87 37.44c-1.33,9.73 -6.44,147.93 -16.7,146.92"/>
     <g>
      <path class="fil1" d="M664.78 5.56c30.28,4.09 106.66,7.79 139.13,7.79l-43.73 43.72c-32.46,0 -108.84,-3.71 -139.12,-7.79l43.72 -43.72z"/>
     </g>
     <path class="fil2" d="M642.91 27.43c30.28,4.09 106.66,7.79 139.12,7.79"/>
     <g>
      <path class="fil1" d="M778.3 0c-9.4,59.6 -0.21,111.09 -13.07,174.74 -0.92,4.54 1.05,18.29 -0.95,20.28l-0.02 0.02 -43.7 43.7c-0.37,0.37 -0.88,0.34 -1.57,-0.25l2.36 -2.36c0.5,-4.74 -0.57,-14.09 0.15,-17.67 12.86,-63.66 3.67,-115.14 13.07,-174.74l43.73 -43.72z"/>
     </g>
     <path class="fil2" d="M756.44 21.86c-9.4,59.6 -0.21,111.09 -13.07,174.74 -1.08,5.38 1.88,23.73 -2.51,20.04"/>
     <g>
      <path class="fil1" d="M861.77 269.35c0,55.25 -6.11,60.24 2.32,122.62 9.35,69.07 0.03,190.04 6.2,263.97 0.68,8.18 4.68,100.81 5.95,102.01l-43.72 43.72c-1.27,-1.2 -5.26,-93.83 -5.94,-102.01 -6.17,-73.93 3.14,-194.91 -6.2,-263.97 -8.44,-62.38 -2.32,-67.37 -2.32,-122.62l43.72 -43.73z"/>
     </g>
     <path class="fil2" d="M839.91 291.21c0,55.25 -6.12,60.24 2.32,122.62 9.34,69.06 0.03,190.04 6.2,263.97 0.68,8.18 4.68,100.81 5.94,102.02"/>
    </g>
    <g>
     <path class="fil1 str1" d="M518.57 377.16c9.7,2.69 23.69,3.95 39.68,4.26 58.25,-0.99 130.28,-11.07 124.63,-11.07l4.1 0 0 -0 4.54 0 0 0 8.64 0c5.94,0 -74.05,11.15 -133.56,11.15l-17.29 0c-19.43,0 -36.67,-1.19 -48.03,-4.34l17.29 0z"/>
    </g>
    <path class="fil2" d="M509.92 377.16c46.15,12.81 189.48,-6.81 181.59,-6.81l-4.54 0"/>
   </g>
   <g>
    <path class="fil1 str1" d="M678.85 363.45c32.62,65.24 14.74,293.43 30.29,401.19 0.32,2.23 0.91,24.09 1.25,32.36l0.25 0c0,2.21 -0.02,3.16 -0.06,3.16l-17.29 0 -0 0c-0.23,0 -1.03,-32.75 -1.43,-35.52 -15.54,-107.76 2.33,-335.95 -30.29,-401.19l17.29 0z"/>
   </g>
   <path class="fil2" d="M670.21 363.45c32.62,65.24 14.74,293.43 30.29,401.19 0.47,3.23 1.49,47.54 1.49,32.36"/>
  </g>
 </g>
</svg>
