<?xml version="1.0" encoding="UTF-8"?>
<!DOCTYPE svg PUBLIC "-//W3C//DTD SVG 1.1//EN" "http://www.w3.org/Graphics/SVG/1.1/DTD/svg11.dtd">
<!-- Creator: CorelDRAW Home & Student 2018 -->
<svg xmlns="http://www.w3.org/2000/svg" xml:space="preserve" width="41.6665mm" height="35.8225mm" version="1.1" style="shape-rendering:geometricPrecision; text-rendering:geometricPrecision; image-rendering:optimizeQuality; fill-rule:evenodd; clip-rule:evenodd"
viewBox="0 0 1794.46 1542.78"
 xmlns:xlink="http://www.w3.org/1999/xlink">
 <defs>
  <style type="text/css">
   <![CDATA[
    .str1 {stroke:black;stroke-width:43.07;stroke-miterlimit:22.9256}
    .str2 {stroke:black;stroke-width:8.61;stroke-miterlimit:22.9256}
    .str0 {stroke:#FFCF61;stroke-width:8.61;stroke-miterlimit:22.9256}
    .fil2 {fill:none}
    .fil1 {fill:black}
    .fil0 {fill:#FFCF61}
   ]]>
  </style>
 </defs>
 <g id="Layer_x0020_1">
  <metadata id="CorelCorpID_0Corel-Layer"/>
  <g id="_871925696">
   <path class="fil0 str0" d="M227.86 521l-5.68 952.94 1418.18 -28.11 -31.44 -933.38 -191.18 -108.24 30.76 -352.32 -161.21 -2.53 -14.31 292.67 -350.06 -202.81 -695.06 381.79zm166.08 229.79l340.12 0 0 344.35 -340.12 0 0 -344.35zm584.8 -29.99l354.91 0 0 699.76 -354.91 0 0 -699.76z"/>
   <g>
    <g>
     <path class="fil1 str1" d="M958.43 733.22c0,59.6 2.27,567.79 7.51,582.02 2.5,6.78 17.26,121.66 9.43,121.66l-0.05 0 -32.77 0c-0.97,0 -2.29,-1.76 -4.01,-5.7l6.03 0c2.07,-23.24 -9.28,-110.09 -11.44,-115.96 -5.25,-14.23 -7.51,-522.42 -7.51,-582.02l32.82 0z"/>
    </g>
    <path class="fil2" d="M942.02 733.22c0,59.6 2.27,567.79 7.51,582.02 2.81,7.62 21.1,151.74 5.41,115.96"/>
    <g>
     <g>
      <g>
       <path class="fil1" d="M262.56 475.33c-6.58,24.09 -13.76,560.86 -14.61,621.1 -1.72,122.26 -12.86,239.29 -12.85,363.36l-83 82.99c0,-124.07 11.13,-241.1 12.86,-363.36 0.85,-60.24 8.02,-597.01 14.61,-621.1l82.99 -83z"/>
      </g>
      <path class="fil2" d="M221.06 516.82c-6.59,24.09 -13.76,560.85 -14.6,621.1 -1.73,122.26 -12.86,239.29 -12.86,363.36"/>
      <g>
       <path class="fil1" d="M184.39 1436.55c48.23,11.19 308.12,-13.01 406.16,-6.88 95.94,6 200.62,2.47 304.57,8.27 40.79,2.27 668.66,2.16 707.08,-16.45l1.84 -1.84 -0.45 0.93 -83 82.99c-19.51,19.52 -667.03,19.67 -708.47,17.36 -103.95,-5.79 -208.63,-2.27 -304.57,-8.26 -98.03,-6.13 -357.93,18.07 -406.15,6.88l82.99 -83z"/>
      </g>
      <path class="fil2" d="M142.9 1478.04c48.23,11.19 308.12,-13.01 406.16,-6.88 95.94,6 200.62,2.48 304.57,8.27 42.1,2.35 709.4,2.15 708.92,-18.29"/>
      <g>
       <path class="fil1" d="M82.99 555.61c51.48,-7.67 170.49,-92.25 242.95,-120.96 111.78,-44.31 368.31,-182.4 468.99,-257.19 16.18,-12.02 102.82,-79.33 103.7,-78.35 39.94,44.34 233.75,92.08 329.2,177.46 75.04,67.12 374.97,176.37 482.94,234.2 3.93,2.11 91.68,47.56 83.11,56.13l-0.04 0.04 -82.95 82.95c-0.89,0.9 -2.83,1.39 -6.03,1.39l5.53 -5.54c-9.53,-14.05 -79.12,-50.11 -82.61,-51.97 -107.97,-57.82 -407.9,-167.08 -482.94,-234.2 -95.45,-85.38 -289.27,-133.13 -329.2,-177.45 -0.88,-0.98 -87.52,66.32 -103.7,78.35 -100.68,74.79 -357.21,212.89 -468.99,257.19 -72.45,28.72 -191.46,113.29 -242.94,120.96l82.99 -82.99z"/>
      </g>
      <path class="fil2" d="M41.5 597.1c51.49,-7.67 170.49,-92.25 242.95,-120.96 111.78,-44.3 368.31,-182.4 468.99,-257.19 16.18,-12.02 102.81,-79.33 103.7,-78.35 39.93,44.34 233.75,92.08 329.2,177.46 75.04,67.12 374.96,176.37 482.94,234.2 4.34,2.33 110.92,57.52 77.08,57.52"/>
      <rect class="fil2 str2" x="383.73" y="783.01" width="299.99" height="333.79"/>
      <g>
       <path class="fil1" d="M425.23 722.5c9.28,66.82 1.8,169.72 10.75,257 1.34,13.09 -3.44,88.41 1.74,85.95 42.58,-20.16 281.53,-2.05 302.84,-11.84l1.56 -1.56 -0.4 0.85 -82.99 82.99c-11.36,11.36 -260.44,-8.07 -303.99,12.55 -5.19,2.46 -0.4,-72.86 -1.75,-85.95 -8.95,-87.29 -1.47,-190.18 -10.75,-257.01l82.99 -82.99z"/>
      </g>
      <path class="fil2" d="M383.73 763.99c9.27,66.83 1.8,169.72 10.75,257.01 1.34,13.09 -3.44,88.41 1.75,85.95 44.57,-21.1 304.39,-0.27 304.39,-13.4"/>
      <g>
       <path class="fil1" d="M427.34 716.16c52.07,12.92 269.11,5.24 311.99,2.79l0.67 -0.67 4.76 0 1.97 0.09 -82.99 82.99c-1.12,1.12 -261.66,12.13 -319.4,-2.2l82.99 -83z"/>
      </g>
      <path class="fil2" d="M385.84 757.66c60.72,15.06 345.75,2.11 317.43,2.11l-4.77 0"/>
      <g>
       <path class="fil1" d="M735.78 697.14c17.58,42.25 -12.15,352.22 4.22,371.82l-83 82.99c-16.37,-19.6 13.36,-329.57 -4.22,-371.82l83 -83z"/>
      </g>
      <path class="fil2" d="M694.28 738.64c17.58,42.24 -12.14,352.22 4.22,371.81"/>
      <g>
       <path class="fil1" d="M1335.75 29.57c-2.42,17.71 -11.46,259.92 -29.37,277.83l-83 82.99 -2.32 1.03 4.58 -4.58c16.42,-34.8 24.79,-257.33 27.12,-274.28l82.99 -82.99z"/>
      </g>
      <path class="fil2" d="M1294.25 71.07c-2.52,18.46 -12.23,280.79 -31.69,278.86"/>
      <g>
       <path class="fil1" d="M1261.81 10.56c57.48,7.76 202.46,14.79 264.08,14.79l-83 82.99c-61.61,0 -206.59,-7.04 -264.07,-14.79l82.99 -82.99z"/>
      </g>
      <path class="fil2" d="M1220.31 52.06c57.48,7.76 202.46,14.79 264.07,14.79"/>
      <g>
       <path class="fil1" d="M1477.29 0c-17.83,113.12 -0.4,210.86 -24.81,331.67 -1.74,8.61 1.99,34.72 -1.8,38.49l-0.03 0.03 -82.96 82.96c-0.71,0.71 -1.67,0.64 -2.98,-0.47l4.48 -4.48c0.96,-9 -1.09,-26.74 0.29,-33.54 24.4,-120.83 6.97,-218.55 24.8,-331.68l83 -82.99z"/>
      </g>
      <path class="fil2" d="M1435.8 41.5c-17.84,113.12 -0.4,210.86 -24.81,331.67 -2.06,10.22 3.57,45.04 -4.77,38.03"/>
      <g>
       <path class="fil1" d="M1635.73 511.24c0,104.87 -11.61,114.34 4.41,232.74 17.74,131.09 0.06,360.72 11.77,501.05 1.3,15.53 8.88,191.35 11.29,193.63l-82.99 82.99c-2.41,-2.28 -9.99,-178.1 -11.28,-193.63 -11.71,-140.32 5.96,-369.95 -11.77,-501.04 -16.02,-118.4 -4.41,-127.88 -4.41,-232.74l82.99 -83z"/>
      </g>
      <path class="fil2" d="M1594.24 552.74c0,104.87 -11.61,114.34 4.41,232.74 17.74,131.09 0.06,360.72 11.77,501.04 1.29,15.53 8.88,191.35 11.28,193.63"/>
     </g>
     <g>
      <path class="fil1 str1" d="M984.29 715.89c18.42,5.11 44.98,7.5 75.31,8.09 110.57,-1.88 247.28,-21.01 236.55,-21.01l7.79 0 0 -0 8.62 0 0 0 16.41 0c11.28,0 -140.56,21.16 -253.52,21.16l-32.82 0c-36.87,0 -69.61,-2.26 -91.16,-8.24l32.82 0z"/>
     </g>
     <path class="fil2" d="M967.89 715.89c87.6,24.31 359.65,-12.92 344.68,-12.92l-8.62 0"/>
    </g>
    <g>
     <path class="fil1 str1" d="M1288.53 689.86c61.92,123.84 27.99,556.96 57.49,761.5 0.61,4.24 1.73,45.72 2.36,61.43l0.47 0c0,4.19 -0.04,5.99 -0.11,5.99l-32.81 0 -0 0c-0.43,0 -1.96,-62.17 -2.72,-67.42 -29.51,-204.55 4.43,-637.66 -57.49,-761.5l32.82 0z"/>
    </g>
    <path class="fil2" d="M1272.12 689.86c61.92,123.84 27.99,556.96 57.49,761.5 0.89,6.14 2.83,90.23 2.83,61.43"/>
   </g>
  </g>
 </g>
</svg>
