<?xml version="1.0" encoding="UTF-8"?>
<!DOCTYPE svg PUBLIC "-//W3C//DTD SVG 1.1//EN" "http://www.w3.org/Graphics/SVG/1.1/DTD/svg11.dtd">
<!-- Creator: CorelDRAW Home & Student 2018 -->
<svg xmlns="http://www.w3.org/2000/svg" xml:space="preserve" width="41.6665mm" height="35.8225mm" version="1.1" style="shape-rendering:geometricPrecision; text-rendering:geometricPrecision; image-rendering:optimizeQuality; fill-rule:evenodd; clip-rule:evenodd"
viewBox="0 0 626.35 538.5"
 xmlns:xlink="http://www.w3.org/1999/xlink">
 <defs>
  <style type="text/css">
   <![CDATA[
    .str1 {stroke:black;stroke-width:15.03;stroke-miterlimit:22.9256}
    .str2 {stroke:black;stroke-width:3.01;stroke-miterlimit:22.9256}
    .str0 {stroke:#009A3D;stroke-width:3.01;stroke-miterlimit:22.9256}
    .fil2 {fill:none}
    .fil1 {fill:black}
    .fil0 {fill:#009A3D}
   ]]>
  </style>
 </defs>
 <g id="Layer_x0020_1">
  <metadata id="CorelCorpID_0Corel-Layer"/>
  <path class="fil0 str0" d="M62.43 184.25l-1.98 332.62 495.01 -9.81 -10.98 -325.79 -66.73 -37.78 10.74 -122.97 -56.27 -0.88 -4.99 102.16 -122.18 -70.79 -242.61 133.26zm57.97 80.21l118.72 0 0 120.19 -118.72 0 0 -120.19zm204.12 -10.47l123.88 0 0 244.25 -123.88 0 0 -244.25z"/>
  <g id="_860197872">
   <g>
    <path class="fil1 str1" d="M334.54 255.93c0,20.8 0.79,198.18 2.62,203.15 0.87,2.37 6.02,42.46 3.29,42.46l-0.02 0 -11.44 0c-0.34,0 -0.8,-0.61 -1.4,-1.99l2.1 0c0.72,-8.11 -3.24,-38.43 -3.99,-40.48 -1.83,-4.97 -2.62,-182.35 -2.62,-203.15l11.45 0z"/>
   </g>
   <path class="fil2" d="M328.81 255.93c0,20.8 0.79,198.18 2.62,203.15 0.98,2.66 7.37,52.97 1.89,40.48"/>
   <g>
    <g>
     <g>
      <path class="fil1" d="M91.64 165.91c-2.3,8.41 -4.8,195.76 -5.1,216.79 -0.6,42.67 -4.49,83.52 -4.49,126.83l-28.97 28.97c0,-43.31 3.89,-84.15 4.49,-126.83 0.3,-21.03 2.8,-208.38 5.1,-216.79l28.97 -28.97z"/>
     </g>
     <path class="fil2" d="M77.16 180.39c-2.3,8.41 -4.8,195.76 -5.1,216.79 -0.6,42.67 -4.49,83.52 -4.49,126.83"/>
     <g>
      <path class="fil1" d="M64.36 501.42c16.83,3.91 107.55,-4.54 141.77,-2.4 33.49,2.09 70.03,0.86 106.31,2.89 14.24,0.79 233.39,0.75 246.8,-5.74l0.64 -0.64 -0.16 0.32 -28.97 28.97c-6.81,6.81 -232.82,6.87 -247.29,6.06 -36.28,-2.02 -72.82,-0.79 -106.31,-2.88 -34.22,-2.14 -124.93,6.31 -141.77,2.4l28.97 -28.97z"/>
     </g>
     <path class="fil2" d="M49.88 515.9c16.83,3.91 107.55,-4.54 141.77,-2.4 33.49,2.09 70.03,0.86 106.31,2.89 14.69,0.82 247.61,0.75 247.44,-6.38"/>
     <g>
      <path class="fil1" d="M28.97 193.93c17.97,-2.68 59.51,-32.2 84.8,-42.22 39.02,-15.47 128.56,-63.67 163.7,-89.77 5.65,-4.2 35.89,-27.69 36.19,-27.35 13.94,15.48 81.59,32.14 114.9,61.94 26.19,23.43 130.88,61.56 168.57,81.74 1.37,0.74 32,16.6 29.01,19.59l-0.02 0.02 -28.95 28.95c-0.31,0.31 -0.99,0.49 -2.1,0.49l1.93 -1.93c-3.33,-4.9 -27.62,-17.49 -28.84,-18.14 -37.69,-20.18 -142.37,-58.32 -168.57,-81.75 -33.32,-29.8 -100.97,-46.47 -114.9,-61.94 -0.31,-0.34 -30.55,23.15 -36.19,27.35 -35.14,26.11 -124.68,74.31 -163.7,89.77 -25.29,10.02 -66.83,39.54 -84.8,42.22l28.97 -28.97z"/>
     </g>
     <path class="fil2" d="M14.48 208.42c17.97,-2.68 59.51,-32.2 84.8,-42.22 39.02,-15.46 128.56,-63.67 163.7,-89.77 5.65,-4.2 35.89,-27.69 36.19,-27.35 13.94,15.48 81.59,32.14 114.91,61.94 26.19,23.43 130.88,61.56 168.57,81.74 1.52,0.81 38.71,20.08 26.9,20.08"/>
     <rect class="fil2 str2" x="133.94" y="273.3" width="104.71" height="116.51"/>
     <g>
      <path class="fil1" d="M148.42 252.18c3.24,23.32 0.63,59.24 3.75,89.71 0.47,4.57 -1.2,30.86 0.61,30 14.86,-7.04 98.27,-0.72 105.7,-4.13l0.54 -0.54 -0.14 0.3 -28.97 28.97c-3.96,3.96 -90.91,-2.82 -106.11,4.38 -1.81,0.86 -0.14,-25.43 -0.61,-30 -3.12,-30.47 -0.51,-66.38 -3.75,-89.71l28.97 -28.97z"/>
     </g>
     <path class="fil2" d="M133.94 266.67c3.24,23.33 0.63,59.24 3.75,89.71 0.47,4.57 -1.2,30.86 0.61,30 15.56,-7.37 106.25,-0.09 106.25,-4.68"/>
     <g>
      <path class="fil1" d="M149.16 249.97c18.18,4.51 93.93,1.83 108.9,0.97l0.23 -0.23 1.66 0 0.69 0.03 -28.97 28.97c-0.39,0.39 -91.33,4.23 -111.48,-0.77l28.97 -28.97z"/>
     </g>
     <path class="fil2" d="M134.68 264.46c21.19,5.26 120.68,0.74 110.8,0.74l-1.66 0"/>
     <g>
      <path class="fil1" d="M256.82 243.33c6.14,14.75 -4.24,122.94 1.47,129.78l-28.97 28.97c-5.72,-6.84 4.66,-115.04 -1.47,-129.78l28.97 -28.97z"/>
     </g>
     <path class="fil2" d="M242.33 257.82c6.14,14.75 -4.24,122.94 1.47,129.78"/>
     <g>
      <path class="fil1" d="M466.24 10.32c-0.85,6.18 -4,90.72 -10.25,96.97l-28.97 28.97 -0.81 0.36 1.6 -1.6c5.73,-12.15 8.65,-89.82 9.46,-95.74l28.97 -28.97z"/>
     </g>
     <path class="fil2" d="M451.75 24.81c-0.88,6.44 -4.27,98.01 -11.06,97.33"/>
     <g>
      <path class="fil1" d="M440.43 3.69c20.06,2.71 70.67,5.16 92.17,5.16l-28.97 28.97c-21.51,0 -72.11,-2.46 -92.17,-5.16l28.97 -28.97z"/>
     </g>
     <path class="fil2" d="M425.94 18.17c20.06,2.71 70.67,5.16 92.17,5.16"/>
     <g>
      <path class="fil1" d="M515.64 0c-6.22,39.48 -0.14,73.6 -8.66,115.77 -0.61,3 0.69,12.12 -0.63,13.44l-0.01 0.01 -28.96 28.96c-0.25,0.25 -0.58,0.22 -1.04,-0.16l1.56 -1.56c0.33,-3.14 -0.38,-9.33 0.1,-11.71 8.52,-42.17 2.43,-76.28 8.66,-115.77l28.97 -28.97z"/>
     </g>
     <path class="fil2" d="M501.16 14.48c-6.23,39.48 -0.14,73.6 -8.66,115.77 -0.72,3.57 1.25,15.72 -1.66,13.27"/>
     <g>
      <path class="fil1" d="M570.94 178.45c0,36.6 -4.05,39.91 1.54,81.24 6.19,45.76 0.02,125.91 4.11,174.89 0.45,5.42 3.1,66.79 3.94,67.59l-28.97 28.97c-0.84,-0.8 -3.49,-62.16 -3.94,-67.59 -4.09,-48.98 2.08,-129.13 -4.11,-174.89 -5.59,-41.33 -1.54,-44.63 -1.54,-81.24l28.97 -28.97z"/>
     </g>
     <path class="fil2" d="M556.46 192.93c0,36.6 -4.05,39.91 1.54,81.24 6.19,45.76 0.02,125.91 4.11,174.89 0.45,5.42 3.1,66.79 3.94,67.59"/>
    </g>
    <g>
     <path class="fil1 str1" d="M343.56 249.88c6.43,1.78 15.7,2.62 26.29,2.82 38.59,-0.66 86.31,-7.33 82.57,-7.33l2.72 0 0 -0 3.01 0 0 0 5.73 0c3.94,0 -49.06,7.39 -88.49,7.39l-11.45 0c-12.87,0 -24.3,-0.79 -31.82,-2.88l11.45 0z"/>
    </g>
    <path class="fil2" d="M337.83 249.88c30.58,8.49 125.53,-4.51 120.31,-4.51l-3.01 0"/>
   </g>
   <g>
    <path class="fil1 str1" d="M449.75 240.79c21.61,43.23 9.77,194.4 20.07,265.8 0.21,1.48 0.6,15.96 0.83,21.44l0.16 0c0,1.46 -0.02,2.09 -0.04,2.09l-11.45 0 -0 0c-0.15,0 -0.68,-21.7 -0.95,-23.53 -10.3,-71.4 1.55,-222.57 -20.07,-265.8l11.45 0z"/>
   </g>
   <path class="fil2" d="M444.03 240.79c21.61,43.23 9.77,194.4 20.07,265.8 0.31,2.14 0.99,31.49 0.99,21.44"/>
  </g>
 </g>
</svg>
