<?xml version="1.0" standalone="no"?>
<!DOCTYPE svg PUBLIC "-//W3C//DTD SVG 1.0//EN" "http://www.w3.org/TR/2001/REC-SVG-20010904/DTD/svg10.dtd">
<svg xmlns="http://www.w3.org/2000/svg" xmlns:xlink="http://www.w3.org/1999/xlink" id="body_1" width="15" height="23">

<g transform="matrix(0.3333333 0 0 0.3333333 0 0)">
	<g transform="matrix(0.8037993 0 0 0.814736 0.001658842 0)">
	</g>
    <path transform="matrix(0.8037993 0 0 0.814736 0.001658842 0)"  d="M53.4 71.75L54.01 1.449997L44.88 10.86L44.88 84.11L53.4 71.74L53.4 71.75zM54.01 1.449997L14.75 2.849997L4.400003 10.86L44.89001 10.86L54.02001 1.449997zM3.980003 10.86L44.88 10.86L44.88 84.11L3.980003 84.11L3.980003 10.86z" stroke="#B3B3B3" stroke-width="0.36" fill="#B3B3B3" fill-rule="nonzero" />
	<g transform="matrix(0.8037993 0 0 0.814736 0.001658842 0)">
	</g>
    <path transform="matrix(0.8037993 0 0 0.814736 0.001658842 0)"  d="M3.89 10.74C 3.69 28.85 3.12 44.09 3.75 62.46C 3.86 65.81 4.36 82.28 4.36 79.96" stroke="#000000" stroke-width="3.5" fill="none" />
	<g transform="matrix(0.8037993 0 0 0.814736 0.001658842 0)">
	</g>
    <path transform="matrix(0.8037993 0 0 0.814736 0.001658842 0)"  d="M45.86 9.5C 45.17 12.25 46.04 63.32 44.82 73.41C 44.31 77.61 47.13 81.96001 44.32 81.81001" stroke="#000000" stroke-width="3.5" fill="none" />
	<g transform="matrix(0.8037993 0 0 0.814736 0.001658842 0)">
	</g>
    <path transform="matrix(0.8037993 0 0 0.814736 0.001658842 0)"  d="M4.2 82.43C 10.25 81 41.92 83.2 41.83 81.81" stroke="#000000" stroke-width="3.5" fill="none" />
	<g transform="matrix(0.8037993 0 0 0.814736 0.001658842 0)">
	</g>
    <path transform="matrix(0.8037993 0 0 0.814736 0.001658842 0)"  d="M6.52 71.13C 15.61 70.27 40.69 71.88 45.08 69.89" stroke="#000000" stroke-width="3.5" fill="none" />
	<g transform="matrix(0.8037993 0 0 0.814736 0.001658842 0)">
	</g>
    <path transform="matrix(0.8037993 0 0 0.814736 0.001658842 0)"  d="M16.59 2.07C 15.72 2.33 5.04 9.15 3.89 10.74C 12.01 9.389999 39.6 12.05 44.91 10.4C 44.87 10.04 44.73 10.22 44.77 9.809999C 45.93 4.599999 57.07 2.449999 52.05 3.309999" stroke="#000000" stroke-width="3.5" fill="none" />
	<g transform="matrix(0.8037993 0 0 0.814736 0.001658842 0)">
	</g>
    <path transform="matrix(0.8037993 0 0 0.814736 0.001658842 0)"  d="M15.23 2.8C 16.85 2.28 54.17 3.28 52.36 1.13" stroke="#000000" stroke-width="3.5" fill="none" />
	<g transform="matrix(0.8037993 0 0 0.814736 0.001658842 0)">
	</g>
    <path transform="matrix(0.8037993 0 0 0.814736 0.001658842 0)"  d="M53.34 3.13C 54.72 5.4 52.95 59.6 54.23 70.05C 54.24 70.1 54.22 73.63 54.22 72.53" stroke="#000000" stroke-width="3.5" fill="none" />
	<g transform="matrix(0.8037993 0 0 0.814736 0.001658842 0)">
	</g>
    <path transform="matrix(0.8037993 0 0 0.814736 0.001658842 0)"  d="M46.79 81.81C 50.05 79.67 53.74 72.71 53.91 70.50999" stroke="#000000" stroke-width="3.5" fill="none" />
	<g transform="matrix(0.8037993 0 0 0.814736 0.001658842 0)">
	</g>
    <path transform="matrix(0.8037993 0 0 0.814736 0.001658842 0)"  d="M13.34 19.41L29.91 19.41L29.91 25.6L13.34 25.6L13.34 19.41z" stroke="#000000" stroke-width="3.5" fill="#000000" fill-rule="nonzero" />
	<g transform="matrix(0.8037993 0 0 0.814736 0.001658842 0)">
	</g>
    <path transform="matrix(0.8037993 0 0 0.814736 0.001658842 0)"  d="M46.48 68.81C 47.23 68.16 52.52 62.59 52.67 61.69" stroke="#000000" stroke-width="3.5" fill="none" />
	<g transform="matrix(0.8037993 0 0 0.814736 0.001658842 0)">
	</g>
    <path transform="matrix(0.8037993 0 0 0.814736 0.001658842 0)"  d="M44.31 81.81L45.24 83.21" stroke="#000000" stroke-width="0.36" fill="none" />
	<g transform="matrix(0.8037993 0 0 0.814736 0.001658842 0)">
	</g>
    <path transform="matrix(0.8037993 0 0 0.814736 0.001658842 0)"  d="M16.59 2.07L16.13 0.36" stroke="#000000" stroke-width="0.36" fill="none" />
</g>
</svg>