<?xml version="1.0" standalone="no"?>
<!DOCTYPE svg PUBLIC "-//W3C//DTD SVG 1.0//EN" "http://www.w3.org/TR/2001/REC-SVG-20010904/DTD/svg10.dtd">
<svg xmlns="http://www.w3.org/2000/svg" xmlns:xlink="http://www.w3.org/1999/xlink" id="body_1" width="25" height="27">

<g transform="matrix(0.25 0 0 0.2477064 0 0)">
	<g transform="matrix(0.2507145 0 0 0.2493528 0 0.0002016556)">
	</g>
    <path transform="matrix(0.2507145 0 0 0.2493528 0 0.0002016556)"  d="M95.33 16.62L394.66 12.66L389.38 395.06L311.59 430.66L13.58 431.98L17.53 48.27L95.33 16.62" stroke="#000000" stroke-width="3.02" fill="#B3B3B3" fill-rule="nonzero" />
	<g transform="matrix(0.2507145 0 0 0.2493528 0 0.0002016556)">
	</g>
    <path transform="matrix(0.2507145 0 0 0.2493528 0 0.0002016556)"  d="M387.76 12.3C 373.43 146.08 382.6 223.36 385.81 347.62C 385.95 353.18 386.36 367.52 386.05 377.95C 385.61 378.72 385.35 379.61 385.31 380.55C 385.11 385.12 383.37 392.07 387.39 394.65C 391.66 397.4 394.35 395.19 396 390.53L396 390.53L396.2 390.66L396.28 389.66C 400.28 376.64 397.33 347.62 397.33 347.62C 394.1899 225.6 385.18 147.56 398.45 16.59C 399.64 13.64 398.21 10.29 395.2499 9.099997C 392.2999 7.909997 388.95 9.339996 387.7599 12.3L387.7599 12.3L387.76 12.3z" stroke="none" fill="#000000" fill-rule="nonzero" />
	<g transform="matrix(0.2507145 0 0 0.2493528 0 0.0002016556)">
	</g>
    <path transform="matrix(0.2507145 0 0 0.2493528 0 0.0002016556)"  d="M393.1 14.45C 382.37 41.15 387.3 121.3 386.5 152.4C 385.85 177.77 386.64 197.66 384.54 223.29C 382.81 244.47 390.44 257.98 389.47 284.87C 388.83 302.7 391.56 327.15 391.56 347.63C 391.56 351.05 392.35 388.58 390.49 389.82C 390.77 387.92 390.97 382.7 391.04 380.8" stroke="none" fill="none" />
	<g transform="matrix(0.2507145 0 0 0.2493528 0 0.0002016556)">
	</g>
    <path transform="matrix(0.2507145 0 0 0.2493528 0 0.0002016556)"  d="M383.68 12.67C 348.96 31.43 336.83 36.29 303.5 61.17C 301.37 63.53 301.55 67.17 303.91 69.3C 306.27 71.42999 309.91 71.24999 312.04 68.88999C 343.54 45.68999 360.45 38.85999 392.29 20.30999C 394.4 17.92999 394.18 14.28999 391.8 12.17999C 389.42 10.06999 385.78 10.28999 383.67 12.66999L383.67 12.66999L383.68 12.67z" stroke="none" fill="#000000" fill-rule="nonzero" />
	<g transform="matrix(0.2507145 0 0 0.2493528 0 0.0002016556)">
	</g>
    <path transform="matrix(0.2507145 0 0 0.2493528 0 0.0002016556)"  d="M387.99 16.49C 383.31 21.77 361.25 29.34 352.27 35.4C 340.31 43.46 317.86 53.87 307.77 65.03" stroke="none" fill="none" />
	<g transform="matrix(0.2507145 0 0 0.2493528 0 0.0002016556)">
	</g>
    <path transform="matrix(0.2507145 0 0 0.2493528 0 0.0002016556)"  d="M311.57 62.9C 204.37 59.9 138.74 45.59 24.14001 52.45C 21.84002 51.04 18.79001 51.4 16.89001 53.46L16.89001 53.46L16.80001 53.56C -3.439985 69.88 55.98001 61.89 56.03001 61.89C 153.44 58.85 221.22 71.96 313.17 74.3C 316.32 73.86 318.51 70.94 318.07 67.79C 317.63 64.64 314.7101 62.45 311.56 62.89L311.56 62.89L311.57 62.9z" stroke="none" fill="#000000" fill-rule="nonzero" />
	<g transform="matrix(0.2507145 0 0 0.2493528 0 0.0002016556)">
	</g>
    <path transform="matrix(0.2507145 0 0 0.2493528 0 0.0002016556)"  d="M312.37 68.61C 290.24 71.73 231.81 64.57 210.01 60.43C 188.37 56.32 42.17999 53.63 19.78 58.43C 20.66 57.96 20.48 58.08 21.14 57.36" stroke="none" fill="none" />
	<g transform="matrix(0.2507145 0 0 0.2493528 0 0.0002016556)">
	</g>
    <path transform="matrix(0.2507145 0 0 0.2493528 0 0.0002016556)"  d="M386.54 8.18C 280.32 14.92 190.09 3.93 85.49002 4.68C 82.63002 3.28 79.18002 4.460001 77.78002 7.31C 76.38002 10.17 77.56002 13.62 80.41002 15.02C 182.32 18.95 284.72 26.27 386.36 19.7C 389.54 19.75 392.16 17.21 392.2 14.03C 392.25 10.85 389.7101 8.23 386.53 8.190001L386.53 8.190001L386.54 8.18z" stroke="none" fill="#000000" fill-rule="nonzero" />
	<g transform="matrix(0.2507145 0 0 0.2493528 0 0.0002016556)">
	</g>
    <path transform="matrix(0.2507145 0 0 0.2493528 0 0.0002016556)"  d="M386.46 13.94C 368.28 13.68 349.84 20.6 325.79 17.65C 297.32 14.16 255.33 18.58 223.98 14.32C 196.77 10.63 166.1 14.34 135.08 10.5C 126.77 9.47 85.67999 11.19 82.95999 9.86" stroke="none" fill="none" />
	<g transform="matrix(0.2507145 0 0 0.2493528 0 0.0002016556)">
	</g>
    <path transform="matrix(0.2507145 0 0 0.2493528 0 0.0002016556)"  d="M96 1.04C 96 1.04 -32.03999 77.72 12.03 71.79L12.03 71.79L12.85 71.62C 14.71 71.15 16.12 69.82 16.78 68.16C 34.38 53.54 86.02 20.74001 102.61 10.46C 105.21 8.630003 105.85 5.040003 104.02 2.440002C 102.19 -0.1599975 98.60001 -0.7999976 96 1.030002L96 1.030002L96 1.04z" stroke="none" fill="#000000" fill-rule="nonzero" />
	<g transform="matrix(0.2507145 0 0 0.2493528 0 0.0002016556)">
	</g>
    <path transform="matrix(0.2507145 0 0 0.2493528 0 0.0002016556)"  d="M99.31 5.76C 81.95 17.93 71.43 20.98 51.92 36.97C 46.56 41.37 5.139999 67.67 11.42 66.05" stroke="none" fill="none" />
	<g transform="matrix(0.2507145 0 0 0.2493528 0 0.0002016556)">
	</g>
    <path transform="matrix(0.2507145 0 0 0.2493528 0 0.0002016556)"  d="M311.18 76.88C 311.18 76.88 308.11 71.77 308.11 71.77C 306.47 69.03999 302.94 68.16 300.21 69.78999C 297.48 71.42999 296.6 74.95999 298.23 77.68999C 298.23 77.68999 301.3 82.8 301.3 82.8C 302.94 85.53 306.47 86.41 309.2 84.78C 311.93 83.14 312.81 79.61 311.18 76.88z" stroke="none" fill="#000000" fill-rule="nonzero" />
	<g transform="matrix(0.2507145 0 0 0.2493528 0 0.0002016556)">
	</g>
    <path transform="matrix(0.2507145 0 0 0.2493528 0 0.0002016556)"  d="M306.24 79.85L303.18 74.74" stroke="none" fill="none" />
	<g transform="matrix(0.2507145 0 0 0.2493528 0 0.0002016556)">
	</g>
    <path transform="matrix(0.2507145 0 0 0.2493528 0 0.0002016556)"  d="M297.42 72.18C 299.92 160.75 304.08 261.99 298.13 348.76C 297.07 364.22 299.63 404.02 299.98 425.24C 299.98 428.42 302.56 431 305.74 431C 308.92 431 311.5 428.42 311.5 425.24C 311.17 404.78 308.54 365.38 309.52 350.48C 315.57 258.29 311.57 164.75 308.94 72.17999C 308.94 68.99999 306.36 66.41999 303.18 66.41999C 300 66.41999 297.42 68.99999 297.42 72.17999L297.42 72.17999L297.42 72.18z" stroke="none" fill="#000000" fill-rule="nonzero" />
	<g transform="matrix(0.2507145 0 0 0.2493528 0 0.0002016556)">
	</g>
    <path transform="matrix(0.2507145 0 0 0.2493528 0 0.0002016556)"  d="M303.18 72.18C 303.18 99.83 305.59 121.11 304.67 150.44C 303.15 198.84 305.75 245.24 307.31 293.33C 308.16 319.51 307.66 324.19 303.82 349.62C 301.41 365.57 309.79 403.16 306.07 413.62C 305.37 415.6 305.73 423.02 305.73 425.24" stroke="none" fill="none" />
	<g transform="matrix(0.2507145 0 0 0.2493528 0 0.0002016556)">
	</g>
    <path transform="matrix(0.2507145 0 0 0.2493528 0 0.0002016556)"  d="M389.43 384.88C 333.27 416 355.23 405.28 306.11 423.97C 302.23 425.45 299.52 427.3 299.47 431.69C 299.64 434.87 302.36 437.3 305.53 437.13C 307.26 437.04 308.78 436.18 309.77 434.91L309.77 434.91L310.0999 434.77C 360.3799 416 340.21 425.29 394.7399 395.1C 397.5599 393.63 398.6599 390.16 397.1999 387.33C 395.7299 384.51 392.2599 383.41 389.4299 384.87L389.4299 384.87L389.43 384.88z" stroke="none" fill="#000000" fill-rule="nonzero" />
	<g transform="matrix(0.2507145 0 0 0.2493528 0 0.0002016556)">
	</g>
    <path transform="matrix(0.2507145 0 0 0.2493528 0 0.0002016556)"  d="M392.08 389.99C 369.65 401.63 366.33 404.19 345.92 418.09C 336.92 424.22 304.94 427.85 305.22 431.37" stroke="none" fill="none" />
	<g transform="matrix(0.2507145 0 0 0.2493528 0 0.0002016556)">
	</g>
    <path transform="matrix(0.2507145 0 0 0.2493528 0 0.0002016556)"  d="M12.87 56.6C 9.01 125.89 17.44 150.57 15.82 215.67C 14.34 274.97 12.03 358.2 7.71 417.74C 7.38 418.47 7.19 419.28 7.19 420.13C 7.21 423.78 6.92 422.8 8.14 426.38L8.14 426.38L17.66 426.76C 17.85 426.35 18.08 424.47 18.34 421.4301C 18.71 422.33 18.67 421.98 18.74 422.6901C 18.71 421.2701 18.72 422.1201 18.71 420.1401C 18.71 419.6801 18.66 419.2301 18.55 418.8001C 21.32 381.9701 26.97 230.5101 27.33 215.9901C 28.94 150.8501 20.57 126.6401 24.28 58.13008C 24.7 54.98008 22.48 52.08008 19.33 51.66008C 16.18 51.24008 13.28 53.46008 12.86 56.61008L12.86 56.61008L12.87 56.6z" stroke="none" fill="#000000" fill-rule="nonzero" />
	<g transform="matrix(0.2507145 0 0 0.2493528 0 0.0002016556)">
	</g>
    <path transform="matrix(0.2507145 0 0 0.2493528 0 0.0002016556)"  d="M18.58 57.36C 18.46 58.23 16.02 104.82 16.02 105.01C 16.68 129.82 15.85 128.09 20.28 152.91C 23.81 172.66 21.24 259.06 17.17 278.56C 11.22 307.11 20.81 373.14 14.1 406.34C 13.74 408.14 12.95 431.75 12.95 420.14" stroke="none" fill="none" />
	<g transform="matrix(0.2507145 0 0 0.2493528 0 0.0002016556)">
	</g>
    <path transform="matrix(0.2507145 0 0 0.2493528 0 0.0002016556)"  d="M302.41 425.67C 199.05 415.97 116.43 419.77 13.57001 421.25C 12.88001 421.26 11.57001 421.26 10.41001 421.2C 10.27001 421.06 10.12001 420.93 9.970008 420.8C 7.510008 418.78 3.880008 419.14 1.860008 421.6C -4.699992 430.67 7.700008 432.85 13.70001 432.77C 115.99 431.36 197.94 427.46 300.87 437.09C 304.02 437.51 306.92 435.3 307.35 432.15C 307.7701 429 305.56 426.1 302.41 425.67z" stroke="none" fill="#000000" fill-rule="nonzero" />
	<g transform="matrix(0.2507145 0 0 0.2493528 0 0.0002016556)">
	</g>
    <path transform="matrix(0.2507145 0 0 0.2493528 0 0.0002016556)"  d="M301.64 431.37C 286.24 429.29 266.29 428.55 249.49 426.9C 222.35 424.23 184.52 427.37 156.57 424.35C 128.36 421.3 53.33002 422.67 23.64003 426.44C 22.51003 426.58 3.860029 428.2 6.31003 425.24" stroke="none" fill="none" />
	<g transform="matrix(0.2507145 0 0 0.2493528 0 0.0002016556)">
	</g>
    <path transform="matrix(0.2507145 0 0 0.2493528 0 0.0002016556)"  d="M386.15 41.46C 359.42 61.25 327.31 77.39999 307.45 95.86C 304.44 96.88 302.83 100.16 303.85 103.17C 304.87 106.18 308.15 107.79 311.16 106.77C 338.56 85.09 362.61 73.22 392.89 50.8C 395.47 48.93999 396.05 45.34 394.19 42.75999C 392.33 40.17999 388.73 39.59999 386.15 41.46z" stroke="none" fill="#000000" fill-rule="nonzero" />
	<g transform="matrix(0.2507145 0 0 0.2493528 0 0.0002016556)">
	</g>
    <path transform="matrix(0.2507145 0 0 0.2493528 0 0.0002016556)"  d="M389.53 46.12C 368.16 61.56 353.95 74.5 328.35 86.44C 323.97 88.48 309.38 101.28 309.31 101.3" stroke="none" fill="none" />
	<g transform="matrix(0.2507145 0 0 0.2493528 0 0.0002016556)">
	</g>
    <path transform="matrix(0.2507145 0 0 0.2493528 0 0.0002016556)"  d="M291.42 100.36C 272.81 99.5 76.51001 84.79 26.59003 90.99C 25.53003 89.72 23.94003 88.9 22.16003 88.9C 22.16003 88.9 20.94003 88.9 20.93003 88.9L20.93003 88.9L20.93003 91.91C 17.63003 92.64001 15.63003 93.54 15.17003 94.66C 16.89003 98.8 16.53003 100.2 20.93003 100.39L20.93003 100.39L20.93003 100.41C 112.33 101.87 203.03 108.09 294.49 111.44C 297.55 110.59 299.35 107.42 298.5 104.35C 297.65 101.29 294.48 99.49001 291.41 100.34L291.41 100.34L291.42 100.36z" stroke="none" fill="#000000" fill-rule="nonzero" />
	<g transform="matrix(0.2507145 0 0 0.2493528 0 0.0002016556)">
	</g>
    <path transform="matrix(0.2507145 0 0 0.2493528 0 0.0002016556)"  d="M292.96 105.9C 275.16 110.84 205.26 96.8 171.36 100.28C 154.48 102.01 108.54 95.68 85.47999 95.68C 63.62999 95.68 42.40999 94.66 20.93999 94.66L20.93999 94.66L22.16999 94.66" stroke="none" fill="none" />
	<g transform="matrix(0.2507145 0 0 0.2493528 0 0.0002016556)">
	</g>
    <path transform="matrix(0.2507145 0 0 0.2493528 0 0.0002016556)"  d="M151.29 103.86C 151.65 209.45 144.91 275.75 153.09 388.46C 153.95 400.32 153.65 399.59 153 410.76C 151.5 413.56 152.55 417.05 155.35 418.56C 158.15 420.06 161.64 419.01 163.15 416.21C 165.35 398.79 165.7 403.22 164.43 386.4C 155.97 274.91 163.16 208.29 162.81 103.86C 162.81 100.68 160.23 98.09998 157.05 98.09998C 153.87 98.09998 151.29 100.68 151.29 103.86z" stroke="none" fill="#000000" fill-rule="nonzero" />
	<g transform="matrix(0.2507145 0 0 0.2493528 0 0.0002016556)">
	</g>
    <path transform="matrix(0.2507145 0 0 0.2493528 0 0.0002016556)"  d="M157.05 103.86C 157.05 128.74 158.33 146.42 154.12 171.3C 150.21 194.35 155.43 241.89 153.1 270.33C 150.43 302.84 152.86 354.98 158.76 387.42C 159.44 391.15 159.9 410.07 158.07 413.48" stroke="none" fill="none" />
	<g transform="matrix(0.2507145 0 0 0.2493528 0 0.0002016556)">
	</g>
    <path transform="matrix(0.2507145 0 0 0.2493528 0 0.0002016556)"  d="M168.24 205.03C 167.69 215.21 167.53 226.39 166.71 236.7C 166.32 237.47 166.11 238.34 166.11 239.27C 166.15 242.65 165.96 240.76 166.98 244.91L166.98 244.91L176.81 245.13C 179.23 239.38 179.32 213.19 179.58 207.08C 180.14 203.95 178.06 200.96 174.93 200.39C 171.8 199.83 168.81 201.91 168.24 205.04L168.24 205.04L168.24 205.03z" stroke="none" fill="#000000" fill-rule="nonzero" />
	<g transform="matrix(0.2507145 0 0 0.2493528 0 0.0002016556)">
	</g>
    <path transform="matrix(0.2507145 0 0 0.2493528 0 0.0002016556)"  d="M173.91 206.05C 173.81 206.62 171.87 253.7 171.87 239.26" stroke="none" fill="none" />
	<g transform="matrix(0.2507145 0 0 0.2493528 0 0.0002016556)">
	</g>
    <path transform="matrix(0.2507145 0 0 0.2493528 0 0.0002016556)"  d="M136.98 205.54C 130.48 251.45 121.27 249.75 162.01 253.28C 164.27 254.21 166.95 253.62 168.61 251.66C 170.66 249.22 170.34 245.59 167.9 243.55C 160.95 239.4 148.86 243.24 142.41 239.92C 147.19 221.89 144.71 232.9 148.49 205.55C 148.49 202.37 145.91 199.79 142.73 199.79C 139.55 199.79 136.97 202.37 136.97 205.55L136.97 205.55L136.98 205.54z" stroke="none" fill="#000000" fill-rule="nonzero" />
	<g transform="matrix(0.2507145 0 0 0.2493528 0 0.0002016556)">
	</g>
    <path transform="matrix(0.2507145 0 0 0.2493528 0 0.0002016556)"  d="M142.74 205.54C 142.74 219.35 136.37 240.05 136.56 241.35C 137.76 249.44 162.23 246.32 164.19 247.95" stroke="none" fill="none" />
	<g transform="matrix(0.2507145 0 0 0.2493528 0 0.0002016556)">
	</g>
    <path transform="matrix(0.2507145 0 0 0.2493528 0 0.0002016556)"  d="M169.06 201.36C 168.04 201.34 118.89 197.59 147.39 214.39C 148.53 215.06 149.13 215.16 150.39 215.36C 152.83 215.58 155.05 214.25 156.08 212.18C 160.08 212.86 161.4 212.69 170.58 212.78C 173.73 212.36 175.95 209.47 175.53 206.31C 175.11 203.16 172.22 200.94 169.06 201.36z" stroke="none" fill="#000000" fill-rule="nonzero" />
	<g transform="matrix(0.2507145 0 0 0.2493528 0 0.0002016556)">
	</g>
    <path transform="matrix(0.2507145 0 0 0.2493528 0 0.0002016556)"  d="M169.82 207.07C 157.14 208.76 141.44 201.18 148.14 206.89C 149.72 208.23 149.71 209.52 150.91 209.62" stroke="none" fill="none" />
</g>
</svg>