<?xml version="1.0" standalone="no"?>
<!DOCTYPE svg PUBLIC "-//W3C//DTD SVG 1.0//EN" "http://www.w3.org/TR/2001/REC-SVG-20010904/DTD/svg10.dtd">
<svg xmlns="http://www.w3.org/2000/svg" xmlns:xlink="http://www.w3.org/1999/xlink" id="body_1" width="45" height="24">

<g transform="matrix(0.1058824 0 0 0.1048035 0 0)">
	<g transform="matrix(0.003063332 0 0 0.003062618 0 0.000203377)">
	</g>
    <path transform="matrix(0.003063332 0 0 0.003062618 0 0.000203377)"  d="M131379.5 27128.67L130559 56179.87L98044.02 72293.54L4119.51 69131.47L4550.25 4628.2L99660.89 8836.16L131379.5 27128.67" stroke="#99CCCC" stroke-width="246.7" fill="#99CCCC" fill-rule="nonzero" />
	<g transform="matrix(0.003063332 0 0 0.003062618 0 0.000203377)">
	</g>
    <path transform="matrix(0.003063332 0 0 0.003062618 0 0.000203377)"  d="M131050.8 25910.72C 130633 34350.31 129910.2 41458.83 130100.3 49938.13C 130125.7 51072.58 130187.6 53031 129936.2 54171.63C 130132.9 53764.45 130369.2 53585.09 130616.6 53547.73C 130358.1 53656.52 130176.4 53912.11 130176.4 54210.24C 129730.2 54789.12 129956.2 54438.19 129562.5 55301.39C 129715.7 55685.75 129794 55901.73 130179.5 56140.29C 133336.8 58093.52 132903.6 50532.68 132889 49874.48C 132697.9 41320.68 133636.1 34342.04 133536.5 25910.71C 133536.5 25224.28 132980.1 24667.85 132293.7 24667.85C 131607.2 24667.85 131050.8 25224.28 131050.8 25910.71L131050.8 25910.71L131050.8 25910.72zM131547.3 53908.76C 131846.4 54146.21 132105.6 54440.77 132264.1 54606.92L132264.1 54606.92L131880.5 54600.38L131613.4 54210.22C 131613.4 54102.54 131589.7 54000.4 131547.3 53908.75z" stroke="#000000" stroke-width="93.99" fill="#000000" fill-rule="nonzero" />
	<g transform="matrix(0.003063332 0 0 0.003062618 0 0.000203377)">
	</g>
    <path transform="matrix(0.003063332 0 0 0.003062618 0 0.000203377)"  d="M132293.7 25910.72C 132293.7 32049.71 131811.5 37560.98 131297.6 43585.25C 131183.3 44925.69 132065.1 55311.49 130913.3 54954.15C 130865.2 54767.03 130894.9 54418.2 130894.9 54210.23" stroke="none" fill="none" />
	<g transform="matrix(0.003063332 0 0 0.003062618 0 0.000203377)">
	</g>
    <path transform="matrix(0.003063332 0 0 0.003062618 0 0.000203377)"  d="M135877.8 25367.36C 130049 22172.97 123807.3 19219.49 118245 15853.77C 112854.5 12592.03 107552.5 9834.67 101723 7407.149C 101249.9 7235.199 100726.9 7479.429 100554.9 7952.6C 100383 8425.77 100627.2 8948.77 101100.4 9120.72C 106820.9 13083.7 111076 14969.47 116690.3 18366.64C 122160.7 21676.85 128746 24854.83 134520 27960.66C 135236.2 28335.64 136120.6 28059.09 136495.6 27342.92C 136870.6 26626.75 136594 25742.33 135877.8 25367.35L135877.8 25367.35L135877.8 25367.36z" stroke="#000000" stroke-width="93.99" fill="#000000" fill-rule="nonzero" />
	<g transform="matrix(0.003063332 0 0 0.003062618 0 0.000203377)">
	</g>
    <path transform="matrix(0.003063332 0 0 0.003062618 0 0.000203377)"  d="M135198.9 26664.01C 130681.3 24298.9 127906.8 22417.2 122959.9 20244.64C 119776.6 18846.72 115403.4 15481.37 111240.5 13653.2C 108470.5 12436.85 103496.5 9021.422 101411.7 8263.932" stroke="none" fill="none" />
	<g transform="matrix(0.003063332 0 0 0.003062618 0 0.000203377)">
	</g>
    <path transform="matrix(0.003063332 0 0 0.003062618 0 0.000203377)"  d="M137882.8 23497.63C 131821.2 20164.72 124739.5 16873.01 119115.2 13087.53C 114388.5 9906.092 109360 8053.751 105854.6 5534.091C 106306.1 6195.241 106052.4 7577.621 105050 7374.841L105050 7374.841L104962.6 7238.661C 105466 7238.661 105874.1 6830.501 105874.1 6327.111C 105874.1 5823.721 105466 5415.562 104962.6 5415.562C 103939.1 4789.562 102600.7 6619.952 104522.3 7941.762C 108280.4 10526.92 112772.5 12081.25 117591.9 15324.73C 123319.2 19179.16 130637 22615.93 136819.2 25956.49C 137498.3 26250.19 138286.7 25937.86 138580.4 25258.82C 138874.1 24579.78 138561.8 23791.33 137882.8 23497.63z" stroke="#000000" stroke-width="93.99" fill="#000000" fill-rule="nonzero" />
	<g transform="matrix(0.003063332 0 0 0.003062618 0 0.000203377)">
	</g>
    <path transform="matrix(0.003063332 0 0 0.003062618 0 0.000203377)"  d="M137351 24727.05C 134363.6 23434.96 131864.8 21396.98 128060.3 19678.96C 122581.4 17204.93 119833.4 15259.96 115104.9 11949.99C 114419.8 11470.53 103459.1 6327.09 104962.6 6327.09" stroke="none" fill="none" />
	<g transform="matrix(0.003063332 0 0 0.003062618 0 0.000203377)">
	</g>
    <path transform="matrix(0.003063332 0 0 0.003062618 0 0.000203377)"  d="M98934.86 10980.22C 100313 23945.51 98795.35 45052.86 98550.26 58661.42C 98506.1 61114.35 98171.21 66594.53 98638.83 69323.65C 98381.65 69578.98 98333.42 69609.33 98139.26 69898.71C 99123.47 68537.79 100977 70050.8 100560.2 70647.57C 100237.4 70105.32 100921.6 70625.74 99778.56 70027.86C 99778.56 69741.32 99546.17 69508.93 99259.63 69508.93C 98973.09 69508.93 98740.7 69741.32 98740.7 70027.86L98740.7 70027.86L98047.98 70344.01C 97831.98 70930.54 97865.41 71422.33 98451.95 71845.91C 102463.8 74743.02 101354.4 59381.79 101365.1 58772.32C 101592.7 45937.29 103242.7 22159.91 101521.3 10282.07C 101328.5 9567.884 100593.2 9145.164 99878.97 9337.954C 99164.78 9530.754 98742.06 10266.03 98934.85 10980.23L98934.85 10980.23L98934.86 10980.22z" stroke="#000000" stroke-width="93.99" fill="#000000" fill-rule="nonzero" />
	<g transform="matrix(0.003063332 0 0 0.003062618 0 0.000203377)">
	</g>
    <path transform="matrix(0.003063332 0 0 0.003062618 0 0.000203377)"  d="M100228 10631.14C 101537.2 15482.73 100120.5 45767.55 100120.5 52971.3C 100120.5 57236.49 99754.99 60168.39 99914.49 64549.4C 99938.42 65208.95 99599.59 70334.87 99582.43 70350.66C 99169.09 70730.08 99259.62 71101.37 99259.62 70027.84" stroke="none" fill="none" />
	<g transform="matrix(0.003063332 0 0 0.003062618 0 0.000203377)">
	</g>
    <path transform="matrix(0.003063332 0 0 0.003062618 0 0.000203377)"  d="M101796.3 6264.19C 84201.22 6005.03 66473.28 3678.04 48736.58 3622.41C 35116.06 3579.73 25208.86 2959.04 11738.33 1839.51C 10181.04 1710.12 8521.622 1712.83 6958.412 1690.38C 6168.362 1690.38 5528.052 2320.94 5528.052 3098.91C 5528.052 3876.88 6168.362 4507.44 6958.412 4507.44C 11243.33 4569.24 11562.68 4735.51 16328.42 5220.65C 29100.79 6521 41053.5 6209.17 53764.93 6444.4C 69260.61 6731.06 87444.22 9392.83 102474.7 8972.45C 103234.3 8787.92 103698.1 8032.16 103510.8 7284.29C 103323.4 6536.42 102555.8 6079.66 101796.3 6264.19z" stroke="#000000" stroke-width="93.99" fill="#000000" fill-rule="nonzero" />
	<g transform="matrix(0.003063332 0 0 0.003062618 0 0.000203377)">
	</g>
    <path transform="matrix(0.003063332 0 0 0.003062618 0 0.000203377)"  d="M102135.5 7618.32C 100199.2 8088.65 59478.73 5035.87 53764.93 5035.87C 40739.32 5035.87 24268.31 5003.06 11538.5 3234.22C 10885.61 3143.56 7748.21 3098.91 6958.4 3098.91" stroke="none" fill="none" />
	<g transform="matrix(0.003063332 0 0 0.003062618 0 0.000203377)">
	</g>
    <path transform="matrix(0.003063332 0 0 0.003062618 0 0.000203377)"  d="M133976.9 56689.31C 131860.6 57274.11 123937 59818.69 122527.2 60389.31C 121705.8 60721.74 98010.85 70443.42 98897.36 73521.48C 98962.49 73747.21 99051.3 73844.05 99183.53 74036.48C 99367.57 74570.2 99949.41 74853.55 100483.1 74669.51C 101016.9 74485.47 101300.2 73903.63 101116.2 73369.9C 101437.1 73708.25 101466.5 73819.14 101479.8 74273.55C 103011.3 72824.81 116311.3 66494.13 117395.7 65979.16C 124772.8 62476.03 123053.3 63064.78 129741.8 61249.93C 131415.8 60795.63 132643.3 60042.82 134327.7 59512.3C 135107.3 59415.47 135660.6 58704.98 135563.8 57925.41C 135467 57145.84 134756.5 56592.48 133976.9 56689.32L133976.9 56689.32L133976.9 56689.31z" stroke="#000000" stroke-width="93.99" fill="#000000" fill-rule="nonzero" />
	<g transform="matrix(0.003063332 0 0 0.003062618 0 0.000203377)">
	</g>
    <path transform="matrix(0.003063332 0 0 0.003062618 0 0.000203377)"  d="M134152.3 58100.8C 132343.6 58325.67 130796.2 59965.11 126727.6 60351.19C 124958.1 60519.19 108470.3 68566.16 107036.3 69399.14C 105987.9 70008.12 99833.21 72789.41 100149.9 73703.18" stroke="none" fill="none" />
	<g transform="matrix(0.003063332 0 0 0.003062618 0 0.000203377)">
	</g>
    <path transform="matrix(0.003063332 0 0 0.003062618 0 0.000203377)"  d="M106189 32366.84C 105841.2 36147.63 104379.9 40058.19 108334.8 39325.61C 110844.1 38860.83 111966.3 41057.32 111710.5 36456.37C 111614.1 34720.72 113514 30289.13 108654.4 31299.74C 108392.6 31053.78 108040.3 30903.17 107652.7 30903.17C 106844.4 30903.17 106189 31558.53 106189 32366.84zM108939.1 34302.07L109046.3 34285.79C 108917.2 35049.94 108824.3 35596.01 108859.8 36319.21C 108827.1 36317.48 108794.6 36316.25 108762 36315.39C 108804.9 35685.32 108873 34971.62 108939.1 34302.08zM108725.9 37693.69C 108729.7 37726.62 108732.3 37760.18 108733.1 37794.47C 108730.3 37762.65 108728 37728.85 108725.9 37693.69z" stroke="#000000" stroke-width="93.99" fill="#000000" fill-rule="nonzero" />
	<g transform="matrix(0.003063332 0 0 0.003062618 0 0.000203377)">
	</g>
    <path transform="matrix(0.003063332 0 0 0.003062618 0 0.000203377)"  d="M107652.7 32366.84C 107652.7 33115.94 107023.5 38260.49 107329.8 38106.67C 109353.7 37090.76 110993.9 39210.65 110370.4 37129C 109938.5 35687.17 111092.1 32797.33 110459.5 32797.33C 109700.3 32797.33 106455 32904.89 109589.5 32904.89" stroke="none" fill="none" />
	<g transform="matrix(0.003063332 0 0 0.003062618 0 0.000203377)">
	</g>
    <path transform="matrix(0.003063332 0 0 0.003062618 0 0.000203377)"  d="M97922.28 69565.41C 89757.76 69451.05 83116.24 68322.91 74405.53 68307.98C 56437.79 68277.27 38924.11 68105.55 20971.18 67397.16C 20534.03 67379.89 -2493.76 65787.45 275.6895 70445.13C 616.1395 71017.73 1135.559 71262.82 1712.959 70909.79L1712.959 70909.79L1720.24 70528.76C 2115.82 70497.68 2411.25 70151.93 2380.159 69756.34C 2349.079 69360.76 2003.329 69065.33 1607.74 69096.41L1607.74 69096.41L1465.76 68732.28L1658.43 68538.63C 3327.84 68662.09 2698.39 69987.13 2322.91 70785.81C 5278.49 69130.95 21620.97 70015.49 25388.44 70193.48C 43866.72 71066.55 62251.5 70343.84 80536.74 70881.66C 87395.85 71083.45 90982.73 72253.43 98229.66 71781.5C 98841.59 71696.64 99268.88 71131.69 99184.02 70519.76C 99099.16 69907.82 98534.2 69480.54 97922.27 69565.4L97922.27 69565.4L97922.28 69565.41z" stroke="#000000" stroke-width="93.99" fill="#000000" fill-rule="nonzero" />
	<g transform="matrix(0.003063332 0 0 0.003062618 0 0.000203377)">
	</g>
    <path transform="matrix(0.003063332 0 0 0.003062618 0 0.000203377)"  d="M98075.97 70673.46C 93341.19 71330.3 86302.86 69597.36 80536.75 69597.36C 64178.85 69597.36 47841.31 69495.1 31497.59 69176.24C 27337.87 69095.09 4321.551 67370.52 1458.109 69741.92C 1458.109 69857.13 1563.569 69820.49 1663.979 69812.6" stroke="none" fill="none" />
	<g transform="matrix(0.003063332 0 0 0.003062618 0 0.000203377)">
	</g>
    <path transform="matrix(0.003063332 0 0 0.003062618 0 0.000203377)"  d="M4576.03 3659.05C 4264.33 8460.07 3728.49 12259.73 3646.47 17232.7C 3456.51 28739.87 2339.46 39371.38 2410.14 51093.92C 2428.27 54107.97 2112.74 64243.62 2701.37 68258.77C 2671.89 68314.89 2632.29 68391.63 2571.24 68503L2571.24 68503L2739.61 68503C 2812.76 68941.01 2898.48 69292.93 2998.89 69535.44C 4375.47 70105.69 3687.18 70105.69 5063.76 69535.44L5063.76 69535.44L5491.41 68503C 5497.33 64992.96 5469.45 61517.09 5431.709 58008.04C 5281.35 44018.58 6182.169 30844.34 6156.39 17101.95C 6147.26 12248.63 6836.66 8220.77 6714.67 3399.77C 6643.13 2809.169 6106.31 2388.55 5515.71 2460.09C 4925.11 2531.63 4504.49 3068.45 4576.03 3659.05z" stroke="#000000" stroke-width="93.99" fill="#000000" fill-rule="nonzero" />
	<g transform="matrix(0.003063332 0 0 0.003062618 0 0.000203377)">
	</g>
    <path transform="matrix(0.003063332 0 0 0.003062618 0 0.000203377)"  d="M5645.35 3529.41C 5908.08 5695.8 4668.67 12697.01 4901.43 17167.32C 5223.87 23360.34 4057.1 33739.23 3932.89 40535.55C 3758.84 50055.8 4031.32 59083.03 4031.32 68503C 4031.32 68258.03 4031.32 68013.18 4031.32 67768.21" stroke="none" fill="none" />
	<g transform="matrix(0.003063332 0 0 0.003062618 0 0.000203377)">
	</g>
    <path transform="matrix(0.003063332 0 0 0.003062618 0 0.000203377)"  d="M104424.5 3754.4C 80021.15 3758.35 58233.15 3545.82 33815.33 1691.75C 24696.83 999.26 16502.58 566.6801 7387.039 285.0699C 6600.809 260.77 5811.619 72.04994 5186.969 47.74994L5186.969 47.74994L5137.629 94.86993C 5133.189 463.9299 5331.169 308.8799 5575.889 599.3699C 5393.458 438.89 5154.279 341.5699 4892.159 341.5699C 4320.059 341.5699 3856.389 805.24 3856.389 1377.34C 4005.639 1907.25 4630.659 2845.82 5315.989 2788.71C 14348.03 2036.15 24549.79 3231.91 33644.11 3922.42C 58239.67 5790.18 79839.19 6105.96 104424.5 6102.01C 105072.8 6102.01 105598.3 5576.54 105598.3 4928.21C 105598.3 4279.88 105072.8 3754.41 104424.5 3754.41L104424.5 3754.41L104424.5 3754.4z" stroke="#000000" stroke-width="93.99" fill="#000000" fill-rule="nonzero" />
	<g transform="matrix(0.003063332 0 0 0.003062618 0 0.000203377)">
	</g>
    <path transform="matrix(0.003063332 0 0 0.003062618 0 0.000203377)"  d="M104424.5 4928.19C 89104.99 4928.19 72651.86 4978.89 57411.39 4362.63C 41885.61 3734.78 25573.84 1840.25 10047.81 1368.07C 9874.263 1362.77 4887.973 1501.66 4892.163 1377.32" stroke="none" fill="none" />
	<g transform="matrix(0.003063332 0 0 0.003062618 0 0.000203377)">
	</g>
    <path transform="matrix(0.003063332 0 0 0.003062618 0 0.000203377)"  d="M83841.17 22092.43C 84001.65 28427.79 83561.29 33229.8 83894.83 39944.96C 84372.44 49564.76 83586.33 59903.44 82961.57 69559.02C 82907.05 70400.13 82836.25 70084.86 82922.1 70421.73C 83620.14 69718.51 82534.78 70130.5 83742.5 69671.76C 83691.8 69749.72 83662.32 69842.85 83662.32 69942.76L83662.32 69942.76L82964.9 70425.43C 82852.78 71316.01 83027.19 71176.63 83931.22 71887L83931.22 71887L85195.43 71399.89C 86370.83 70351.42 86460.87 42357.45 86322.6 39831.49C 85956.5 33139.64 86462.48 28141.27 86199.88 21811.7C 86122.28 21160.41 85531.45 20695.14 84880.16 20772.73C 84228.87 20850.32 83763.59 21441.16 83841.19 22092.45L83841.19 22092.45L83841.17 22092.43zM84290.78 69462.79L84426.59 69410.61C 85026.94 69881.44 85362.32 69866.88 85421.66 70482.89C 85223.68 70145.28 85395.63 70401.11 84657.26 69942.74C 84657.26 69713.43 84501.96 69520.39 84290.79 69462.79z" stroke="#000000" stroke-width="93.99" fill="#000000" fill-rule="nonzero" />
	<g transform="matrix(0.003063332 0 0 0.003062618 0 0.000203377)">
	</g>
    <path transform="matrix(0.003063332 0 0 0.003062618 0 0.000203377)"  d="M85020.51 21952.05C 85575.95 26621.45 84241.68 32207.84 84949.83 37769.55C 85468.39 41842.8 85208.86 59679.79 84617.77 63603.54C 84439.27 64788.19 84159.77 73085.8 84159.77 69942.73" stroke="none" fill="none" />
	<g transform="matrix(0.003063332 0 0 0.003062618 0 0.000203377)">
	</g>
    <path transform="matrix(0.003063332 0 0 0.003062618 0 0.000203377)"  d="M84959.21 19335.81C 78482.13 19178.54 71911.15 18189.52 65642.77 18140.55C 50428.45 18021.76 34959.78 18270.19 19762.6 17980.32C 19020.77 17966.26 18471.99 17894.47 17857.34 17847.47L17857.34 17847.47L17924.57 17865.85L17919.14 17945.41C 17835.88 17927.77 17749.78 17918.4 17661.34 17918.4C 17628.41 17875.97 17608.67 17848.58 17595.47 17829.46C 17430.43 17819.59 17258.23 17812.07 17074.93 17808.37L17074.93 17808.37L16896.44 20436.09C 17259.33 20534.77 17380.46 20627.28 17562.53 20483.95L17562.53 20483.95L17495.55 20480.62L17574.62 20474.21C 17601.76 20451.76 17630.25 20423.88 17661.33 20390.33C 17692.17 20390.33 17722.88 20389.22 17753.1 20387L17753.1 20387L17751.5 20411.18L19719.67 20520.96C 34621.06 20939.73 50594.23 20478.77 65642.77 20598.67C 72054.86 20649.74 78617.31 21665.64 85297.2 21770.49C 85969.45 21677.11 86438.91 21056.42 86345.55 20384.16C 86252.16 19711.9 85631.48 19242.44 84959.22 19335.81L84959.22 19335.81L84959.21 19335.81zM17857.34 17847.47C 17771.49 17840.93 17684.53 17834.76 17595.47 17829.46C 17570.92 17794.18 17568.58 17788.51 17544.78 17773.09C 17711.29 17808.61 17442.39 17734.23 17857.35 17847.47zM17562.53 20483.95L17574.62 20474.21C 17643.33 20468.78 17634.57 20471 17747.19 20474.46L17747.19 20474.46L17745.96 20492.96L17562.54 20483.96zM17544.77 17773.09L17486.06 17736.83C 17483.35 17748.79 17484.83 17741.39 17482.11 17759.16L17482.11 17759.16L17544.77 17773.1zM17751.5 20411.17L17750.39 20427.7L17694.88 20407.96L17751.5 20411.17zM17750.39 20427.7L17747.18 20474.45L17891.5 20478.03L17750.39 20427.7z" stroke="#000000" stroke-width="93.99" fill="#000000" fill-rule="nonzero" />
	<g transform="matrix(0.003063332 0 0 0.003062618 0 0.000203377)">
	</g>
    <path transform="matrix(0.003063332 0 0 0.003062618 0 0.000203377)"  d="M85128.2 20553.15C 83091.2 20835.99 69671.74 19369.61 65642.77 19369.61C 61283.22 19369.61 58878.64 19867.08 53852.63 19440.29C 49861.77 19101.45 18803.55 19431.16 18199.26 19182C 18061.11 19125.14 16913.22 19154.37 17661.33 19154.37" stroke="none" fill="none" />
	<g transform="matrix(0.003063332 0 0 0.003062618 0 0.000203377)">
	</g>
    <path transform="matrix(0.003063332 0 0 0.003062618 0 0.000203377)"  d="M17080.73 18707.83C 17119.09 26658.95 17630.13 28451.59 16630.01 36690.49C 15900.64 42699.59 15449.8 51607.17 15471.02 57639.34C 15471.14 57661.3 14960.97 65700.24 14961.22 65701.73C 15026.23 66032.05 15123.55 66276.16 15246.65 66482.29C 14077.17 68406.42 21220.97 68967.54 17573.27 65162.57C 18238.37 61067.48 18111.69 62728.51 18094.42 57600.62C 18074.31 51660.34 18355.43 42992.68 19049.15 37127.16C 20065.3 28534.37 19687.36 27061.82 19317.81 18739.91C 19326.69 18122.17 18833.05 17614.22 18215.31 17605.34C 17597.57 17596.46 17089.62 18090.1 17080.74 18707.84L17080.74 18707.84L17080.73 18707.83zM15960.84 67324.02C 16021.03 67388.91 16082.96 67457.48 16146.36 67531.38C 16072.23 67474.63 16010.55 67404.2 15960.84 67324.02zM17399.84 65735.16L17947.27 66278.88L17807.76 66296.27L17430.56 65961.5C 17430.56 65883.17 17419.83 65807.19 17399.85 65735.15zM17551.56 65297.02C 17558.47 65392.98 17542.68 65479.07 17502.59 65601.45L17502.59 65601.45L17551.56 65297.02z" stroke="#000000" stroke-width="93.99" fill="#000000" fill-rule="nonzero" />
	<g transform="matrix(0.003063332 0 0 0.003062618 0 0.000203377)">
	</g>
    <path transform="matrix(0.003063332 0 0 0.003062618 0 0.000203377)"  d="M18199.26 18723.87C 18087.88 26478.74 19415.61 28178.87 17839.57 36908.82C 17123.28 40876.36 17738.79 45026.22 16871.15 49919.5C 16374.3 52722.01 17325.94 62591.46 16290.05 65100.64C 15877.57 66100.02 18231.57 66973.09 16603.73 66597.86C 16557.23 66401.98 16585.23 66165.77 16585.23 65961.5" stroke="none" fill="none" />
	<g transform="matrix(0.003063332 0 0 0.003062618 0 0.000203377)">
	</g>
    <path transform="matrix(0.003063332 0 0 0.003062618 0 0.000203377)"  d="M49537.86 19583.74C 49195.19 28029.37 49003.14 33796.46 49244.29 42316.6C 49465.33 50125.38 48851.54 57310.62 47939.37 65009.99C 47929.87 65090.66 47556.25 67463.66 47797.76 67948.92L47797.76 67948.92L47814.54 67878.24L47956.52 67852.09C 47722.65 68034.03 47799.87 68097.94 47954.42 68632.89L47954.42 68632.89L50222.33 68210.29C 50278.7 67885.63 50266 68170.32 50309.29 67616.73C 50996.47 58819.3 52131.04 51190.25 51742.86 42043.98C 51383.79 33582.68 51625.8 27899.36 51719.92 19583.72C 51719.92 18981.16 51231.46 18492.7 50628.89 18492.7C 50026.33 18492.7 49537.86 18981.16 49537.86 19583.72L49537.86 19583.72L49537.86 19583.74zM49676.75 67534.34L50080.97 67459.71C 50229.36 67967.91 50246.75 67788.19 50223.56 67986.41L50223.56 67986.41L50216.41 67991.1C 49970.57 67737.38 50136.97 67891.43 49677.99 67574.55C 49677.99 67561.1 49677.62 67547.66 49676.76 67534.34z" stroke="#000000" stroke-width="93.99" fill="#000000" fill-rule="nonzero" />
	<g transform="matrix(0.003063332 0 0 0.003062618 0 0.000203377)">
	</g>
    <path transform="matrix(0.003063332 0 0 0.003062618 0 0.000203377)"  d="M50628.89 19583.74C 50628.89 27375.49 49602.87 34020.59 50493.58 42180.3C 50766.8 44683.19 50092.2 61183.56 49454.48 63565.69C 49021.65 65182.43 49014.86 69463.16 49014.86 67574.56" stroke="none" fill="none" />
	<g transform="matrix(0.003063332 0 0 0.003062618 0 0.000203377)">
	</g>
    <path transform="matrix(0.003063332 0 0 0.003062618 0 0.000203377)"  d="M21232.93 34756.74C 21088.98 36457.98 20628.39 38445.88 20848.94 40217.31L20848.94 40217.31L20837.96 40225.94L20799.72 40637.93L20915.55 40637.93C 20980.68 40974.3 21074.42 41301.05 21204.19 41614.37C 22506.15 42153.65 21855.11 42153.65 23157.06 41614.37C 23485.42 40821.85 23567.32 40843.56 23561.4 40637.93L23561.4 40637.93L23561.52 40637.93C 23762.33 36901.66 23685.61 38861.82 23773.93 34756.73C 23773.93 34055 23205.16 33486.23 22503.43 33486.23C 21801.69 33486.23 21232.93 34055 21232.93 34756.73L21232.93 34756.73L21232.93 34756.74z" stroke="#000000" stroke-width="93.99" fill="#000000" fill-rule="nonzero" />
	<g transform="matrix(0.003063332 0 0 0.003062618 0 0.000203377)">
	</g>
    <path transform="matrix(0.003063332 0 0 0.003062618 0 0.000203377)"  d="M22503.43 34756.74C 22503.43 36823.09 22180.62 39013.66 22180.62 40637.93C 22180.62 40363.35 22180.62 40088.65 22180.62 39814.08" stroke="none" fill="none" />
</g>
</svg>