<?xml version="1.0" encoding="iso-8859-1"?>
<!-- Generator: Adobe Illustrator 17.1.0, SVG Export Plug-In . SVG Version: 6.00 Build 0)  -->
<!DOCTYPE svg PUBLIC "-//W3C//DTD SVG 1.1//EN" "http://www.w3.org/Graphics/SVG/1.1/DTD/svg11.dtd">
<svg version="1.1" id="Capa_1" xmlns="http://www.w3.org/2000/svg" xmlns:xlink="http://www.w3.org/1999/xlink" x="0px" y="0px"
	 viewBox="0 0 442 442" style="enable-background:new 0 0 442 442;" xml:space="preserve">
<g>
	<path d="M377.306,64.693C335.588,22.976,280.077,0,221,0S106.412,22.976,64.694,64.693C22.976,106.412,0,161.923,0,221
		s22.976,114.588,64.694,156.307C106.412,419.024,161.923,442,221,442s114.588-22.976,156.306-64.693
		C419.024,335.588,442,280.077,442,221S419.024,106.412,377.306,64.693z M369.956,355.813l-35.561-35.56
		c21.913-24.97,34.781-56.064,36.937-89.253h50.418C419.392,278.898,400.19,322.439,369.956,355.813z M20.25,231h50.418
		c2.156,33.189,15.025,64.283,36.937,89.253l-35.561,35.56C41.81,322.439,22.608,278.898,20.25,231z M72.044,86.187l35.561,35.56
		C85.692,146.717,72.824,177.811,70.667,211H20.25C22.608,163.102,41.81,119.561,72.044,86.187z M221,351.667
		c-72.05,0-130.667-58.617-130.667-130.667S148.95,90.333,221,90.333S351.667,148.95,351.667,221S293.05,351.667,221,351.667z
		 M320.253,107.605C295.283,85.692,264.189,72.823,231,70.667V20.25c47.898,2.358,91.44,21.561,124.814,51.795L320.253,107.605z
		 M211,70.667c-33.189,2.156-64.283,15.025-89.253,36.938l-35.561-35.56C119.56,41.81,163.102,22.608,211,20.25V70.667z
		 M121.747,334.395c24.97,21.913,56.064,34.781,89.253,36.938v50.417c-47.898-2.358-91.44-21.561-124.814-51.795L121.747,334.395z
		 M231,371.333c33.189-2.156,64.283-15.025,89.253-36.938l35.561,35.56C322.44,400.19,278.898,419.392,231,421.75V371.333z
		 M371.333,211c-2.156-33.189-15.025-64.283-36.937-89.253l35.561-35.56C400.19,119.561,419.392,163.102,421.75,211H371.333z"/>
	<path d="M221,140.667c-44.296,0-80.333,36.037-80.333,80.333s36.038,80.333,80.333,80.333s80.333-36.037,80.333-80.333
		S265.296,140.667,221,140.667z M221,281.333c-33.268,0-60.333-27.065-60.333-60.333s27.065-60.333,60.333-60.333
		s60.333,27.065,60.333,60.333S254.268,281.333,221,281.333z"/>
</g>
<g>
</g>
<g>
</g>
<g>
</g>
<g>
</g>
<g>
</g>
<g>
</g>
<g>
</g>
<g>
</g>
<g>
</g>
<g>
</g>
<g>
</g>
<g>
</g>
<g>
</g>
<g>
</g>
<g>
</g>
</svg>
