<?xml version="1.0" encoding="iso-8859-1"?>
<!-- Generator: Adobe Illustrator 18.1.1, SVG Export Plug-In . SVG Version: 6.00 Build 0)  -->
<svg version="1.1" id="Capa_1" xmlns="http://www.w3.org/2000/svg" xmlns:xlink="http://www.w3.org/1999/xlink" x="0px" y="0px"
	 viewBox="0 0 304.626 304.626" style="enable-background:new 0 0 304.626 304.626;" xml:space="preserve">
<g>
	<path style="fill:#010002;" d="M152.316,304.623c83.985,0,152.31-68.326,152.31-152.31S236.295,0.003,152.316,0.003
		S0,68.328,0,152.313S68.331,304.623,152.316,304.623z M91.137,248.628c-9.529-6.075-18.096-13.489-25.433-22.023h25.433V248.628z
		 M210.356,54.1c11.884,7.054,22.409,16.132,31.024,26.864h-31.024V54.1z M210.356,119.031h51.22
		c3.214,10.535,4.977,21.707,4.977,33.282c0,12.668-2.159,24.818-5.983,36.213h-50.213V119.031z M210.356,226.6h28.561
		c-8.126,9.459-17.78,17.53-28.561,23.926V226.6z M129.21,40.431c7.462-1.539,15.191-2.355,23.105-2.355
		c6.826,0,13.473,0.707,19.972,1.86v41.016h-43.072V40.431H129.21z M129.21,119.031h43.072v69.495H129.21V119.031z M129.21,226.6
		h43.072v38.084c-6.5,1.153-13.146,1.86-19.972,1.86c-7.914,0-15.637-0.816-23.105-2.355V226.6H129.21z M91.137,56.003v24.954
		H63.245C71.094,71.178,80.531,62.764,91.137,56.003z M38.073,152.313c0-11.574,1.762-22.746,4.977-33.282h48.087v69.495H44.056
		C40.233,177.131,38.073,164.98,38.073,152.313z"/>
</g>
<g>
</g>
<g>
</g>
<g>
</g>
<g>
</g>
<g>
</g>
<g>
</g>
<g>
</g>
<g>
</g>
<g>
</g>
<g>
</g>
<g>
</g>
<g>
</g>
<g>
</g>
<g>
</g>
<g>
</g>
</svg>
