<?xml version="1.0" encoding="utf-8"?>
<!-- Svg Vector Icons : http://www.onlinewebfonts.com/icon -->
<!DOCTYPE svg PUBLIC "-//W3C//DTD SVG 1.1//EN" "http://www.w3.org/Graphics/SVG/1.1/DTD/svg11.dtd">
<svg version="1.1" xmlns="http://www.w3.org/2000/svg" xmlns:xlink="http://www.w3.org/1999/xlink" x="0px" y="0px" viewBox="0 0 1000 1000" enable-background="new 0 0 1000 1000" xml:space="preserve">
<metadata> Svg Vector Icons : http://www.onlinewebfonts.com/icon </metadata>
<g><path d="M616,159.9c25.3,34.7,49.1,71.8,64.6,106.1h149.2c31.1,0,56.5,25.4,56.5,56.5s-25.4,56.5-56.5,56.5H692.6c-10.4,41.7-34.7,77.8-67.8,103.8h204.9c31.1,0,56.5,25.4,56.5,56.5c0,31.1-25.4,56.5-56.5,56.5l-682.5,0c-31.1,0-56.5-25.4-56.5-56.5c0-31.1,25.4-56.5,56.5-56.5h228.4c-33.2-26.1-57.6-62.3-68.2-103.8H147.2c-31.1,0-56.5-25.4-56.5-56.5s25.4-56.5,56.5-56.5h172.2c15.4-34.2,39.2-71.3,64.6-106.1H10v749.4h980l0-749.4H616z M389.3,803.2H147.2c-31.1,0-56.5-25.4-56.5-56.5c0-31.1,25.4-56.5,56.5-56.5h242.1c31.1,0,56.5,25.4,56.5,56.5S420.4,803.2,389.3,803.2z M829.7,803.2H587.6c-31.1,0-56.5-25.4-56.5-56.5c0-31.1,25.4-56.5,56.5-56.5h242.1c31.1,0,56.5,25.4,56.5,56.5S860.9,803.2,829.7,803.2z"/><path d="M500,90.7c0,0-141.8,148.7-141.8,226c0,77.2,63.4,139.5,141.8,139.5c78.4,0,141.8-62.3,141.8-139.5C641.8,239.4,500,90.7,500,90.7z M445.8,370.9c-12.7,0-43.8-24.2-43.8-54.2c0-30,32.3-54.2,43.8-54.2c11.5,0,0,24.2,0,54.2C445.8,346.7,458.5,370.9,445.8,370.9z"/></g>
</svg>