<?xml version="1.0" encoding="iso-8859-1"?>
<!-- Generator: Adobe Illustrator 19.0.0, SVG Export Plug-In . SVG Version: 6.00 Build 0)  -->
<svg version="1.1" id="Layer_1" xmlns="http://www.w3.org/2000/svg" xmlns:xlink="http://www.w3.org/1999/xlink" x="0px" y="0px"
	 viewBox="0 0 460.002 460.002" style="enable-background:new 0 0 460.002 460.002;" xml:space="preserve">
<g>
	<g>
		<path d="M427.137,0H32.865C14.743,0,0,14.743,0,32.865v394.272c0,18.122,14.743,32.865,32.865,32.865h394.272
			c18.122,0,32.865-14.743,32.865-32.865V32.865C460.002,14.743,445.259,0,427.137,0z M137.305,399.443c0,8.284-6.716,15-15,15
			H56.251c-8.284,0-15-6.716-15-15v-66.054c0-8.284,6.716-15,15-15h66.054c8.284,0,15,6.716,15,15V399.443z M137.305,263.028
			c0,8.284-6.716,15-15,15H56.251c-8.284,0-15-6.716-15-15v-66.054c0-8.284,6.716-15,15-15h66.054c8.284,0,15,6.716,15,15V263.028z
			 M137.305,126.613c0,8.284-6.716,15-15,15H56.251c-8.284-0.001-15-6.717-15-15.001V60.559c0-8.284,6.716-15,15-15h66.054
			c8.284,0,15,6.716,15,15V126.613z M277.071,399.443c0,8.284-6.716,15-15,15h-66.054c-8.284,0-15-6.716-15-15v-66.054
			c0-8.284,6.715-15,15-15h66.054c8.284,0,15,6.716,15,15V399.443z M277.071,263.028c0,8.284-6.716,15-15,15h-66.054
			c-8.284,0-15-6.716-15-15v-66.054c0-8.284,6.715-15,15-15h66.054c8.284,0,15,6.716,15,15V263.028z M277.071,126.613
			c0,8.284-6.716,15-15,15h-66.054c-8.285-0.001-15-6.717-15-15.001V60.559c0-8.284,6.716-15,15-15h66.054c8.284,0,15,6.716,15,15
			V126.613z M418.751,399.443c0,8.284-6.716,15-15,15h-66.054c-8.284,0-15-6.716-15-15v-66.054c0-8.284,6.716-15,15-15h66.054
			c8.284,0,15,6.716,15,15V399.443z M418.751,263.028c0,8.284-6.716,15-15,15h-66.054c-8.284,0-15-6.716-15-15v-66.054
			c0-8.284,6.716-15,15-15h66.054c8.284,0,15,6.716,15,15V263.028z M418.751,126.612c0,8.284-6.716,15-15,15h-66.054
			c-8.284,0-15-6.716-15-15V60.559c0-8.284,6.716-15,15-15h66.054c8.284,0,15,6.716,15,15V126.612z"/>
	</g>
</g>
<g>
</g>
<g>
</g>
<g>
</g>
<g>
</g>
<g>
</g>
<g>
</g>
<g>
</g>
<g>
</g>
<g>
</g>
<g>
</g>
<g>
</g>
<g>
</g>
<g>
</g>
<g>
</g>
<g>
</g>
</svg>
