<?xml version="1.0" standalone="no"?>
<!DOCTYPE svg PUBLIC "-//W3C//DTD SVG 1.0//EN" "http://www.w3.org/TR/2001/REC-SVG-20010904/DTD/svg10.dtd">
<svg xmlns="http://www.w3.org/2000/svg" xmlns:xlink="http://www.w3.org/1999/xlink" id="body_1" width="25" height="23">

<g transform="matrix(0.2232143 0 0 0.223301 0 0)">
	<g transform="matrix(0.1522094 0 0 0.1520183 0.0006503086 0)">
	</g>
    <path transform="matrix(0.1522094 0 0 0.1520183 0.0006503086 0)"  d="M311.75 357.45L729.83 101.67L414.95 5.53L8.33 236.62L311.75 357.45" stroke="#000000" stroke-width="4.96" fill="#CCCCFF" fill-rule="nonzero" />
	<g transform="matrix(0.1522094 0 0 0.1520183 0.0006503086 0)">
	</g>
    <path transform="matrix(0.1522094 0 0 0.1520183 0.0006503086 0)"  d="M661.51 107.04C 569.44 83.45 502.93 60.98 414.6 31.69C 412.47 31.69 410.75 33.41 410.75 35.54C 410.75 37.67 412.48 39.39 414.6 39.39C 502.75 70.04 569.56 91.67 661.51 114.74C 663.64 114.74 665.36 113.02 665.36 110.89C 665.36 108.76 663.63 107.04 661.51 107.04z" stroke="none" fill="#000000" fill-rule="nonzero" />
	<g transform="matrix(0.1522094 0 0 0.1520183 0.0006503086 0)">
	</g>
    <path transform="matrix(0.1522094 0 0 0.1520183 0.0006503086 0)"  d="M661.51 110.89C 645.58 110.89 591.99 89.96 569.35 85.32C 541.48 79.6 499.49 65.16 470.74 56.21C 457.62 52.13 422.07 35.54 414.6 35.54" stroke="none" fill="none" />
	<g transform="matrix(0.1522094 0 0 0.1520183 0.0006503086 0)">
	</g>
    <path transform="matrix(0.1522094 0 0 0.1520183 0.0006503086 0)"  d="M611.34 135.73C 607.04 137.4 411.59 74.8 381.84 65.74C 381.47 65.35 381.01 65.03 380.47 64.81C 375.64 62.89 371.65 63.67 373.82 69.89L373.82 69.89L375.79 70.63L375.44 71.1C 375.44 71.1 377.62 71.97 377.62 71.97C 378.38 72.27 379.18 72.32 379.92 72.14C 409.84 82.95 440.88 90.5 471.24 100.07C 489.9 105.95 600.67 148.45 615.07 142.47C 616.93 141.44 617.6 139.09 616.57 137.23C 615.54 135.37 613.19 134.7 611.33 135.73L611.33 135.73L611.34 135.73z" stroke="none" fill="#000000" fill-rule="nonzero" />
	<g transform="matrix(0.1522094 0 0 0.1520183 0.0006503086 0)">
	</g>
    <path transform="matrix(0.1522094 0 0 0.1520183 0.0006503086 0)"  d="M613.21 139.1C 602.97 144.79 548.62 120.48 534.35 116.07C 492.97 103.29 451.97 89.15001 410.13 77.79001C 407.96 77.20001 378.31 69.37001 376.87 67.51001L376.87 67.51001L379.06 68.38001" stroke="none" fill="none" />
	<g transform="matrix(0.1522094 0 0 0.1520183 0.0006503086 0)">
	</g>
    <path transform="matrix(0.1522094 0 0 0.1520183 0.0006503086 0)"  d="M548.45 166.58C 522.11 158.87 508.12 148.45 481.8 141.11C 429.54 126.53 371.07 113.48 319.95 98.12C 319.21 97.38 318.16 96.93999 317.02 96.99C 315.55 96.93 310.32 94.32999 309.55 99.57C 309.45 100.23 311.01 101.23 313.87 102.48L313.87 102.48L313.65 103.97C 313.38 103.97 313.5 103.98 313.28 103.94C 315.46 104.72 314.95 104.52 317.43 104.68C 317.88 104.66 318.31 104.56 318.7 104.39C 352.02 116.67 465.87 144.62 480.32 148.66C 506.1 155.87 520.23 166.32 547.37 174.2C 549.48 174.5 551.43 173.03 551.72 170.92C 552.02 168.81 550.55 166.87 548.45 166.57L548.45 166.57L548.45 166.58z" stroke="none" fill="#000000" fill-rule="nonzero" />
	<g transform="matrix(0.1522094 0 0 0.1520183 0.0006503086 0)">
	</g>
    <path transform="matrix(0.1522094 0 0 0.1520183 0.0006503086 0)"  d="M547.91 170.39C 528.0099 167.57 504.47 149.46 481.06 144.89C 446.55 138.14 404.82 121.57 368.61 114.65C 351.66 111.41 329.6 106.41 313.37 100.13C 314.72 100.03 315.2 100.94 317.23 100.84" stroke="none" fill="none" />
	<g transform="matrix(0.1522094 0 0 0.1520183 0.0006503086 0)">
	</g>
    <path transform="matrix(0.1522094 0 0 0.1520183 0.0006503086 0)"  d="M488.3 202.89C 455.59 194.19 292.02 132.44 260.16 122.95C 259.46 122.19 258.45 121.72 257.33 121.72C 256.86 121.72 256.4 121.73 255.93 121.72C 256.52 121.77 256.08 121.72 257.22 122.05L257.22 122.05L257.22 122.13C 256.23 121.88 255.51 121.74 255.12 121.72L255.12 121.72L254.34 121.91L254.03 129.05C 255.37 129.43 255.6 129.44 256.49 129.43L256.49 129.43L268.53 134.02C 334.21 158.2 424.25 194.18 489.27 210.53C 491.38 210.26 492.88 208.34 492.61 206.23C 492.34 204.12 490.42 202.62 488.31 202.89L488.31 202.89L488.3 202.89z" stroke="none" fill="#000000" fill-rule="nonzero" />
	<g transform="matrix(0.1522094 0 0 0.1520183 0.0006503086 0)">
	</g>
    <path transform="matrix(0.1522094 0 0 0.1520183 0.0006503086 0)"  d="M488.79 206.71C 476.26 208.29 427.93 187.68 411.7 182.28C 392.52 175.9 372.47 166.47 352.33 159.31C 328.63 150.89 308.13 143.35 283.86 135.38C 283.56 135.28 256.12 125.47 255.7 125.53C 255.26 125.6 257.19 125.56 257.35 125.56" stroke="none" fill="none" />
	<g transform="matrix(0.1522094 0 0 0.1520183 0.0006503086 0)">
	</g>
    <path transform="matrix(0.1522094 0 0 0.1520183 0.0006503086 0)"  d="M400.62 233.8C 400.36 233.78 272.97 184.69 259.25 180.11C 259.22 180.1 204.66 159.53 193.5 156.83C 191.87 155.67 189.59 155.94 188.3 157.51C 186.94 159.15 187.17 161.58 188.81 162.94C 193.58 166.93 257.17 187.54 257.17 187.54C 274.12 193.19 396.37 241.22 401.53 241.46C 403.64 241.21 405.15 239.29 404.9 237.18C 404.65 235.07 402.7299 233.56 400.62 233.81L400.62 233.81L400.62 233.8zM192.99 156.7C 192.82 156.66 192.66 156.63 192.52 156.61C 192.76 156.63 192.86 156.65 192.99 156.7z" stroke="none" fill="#000000" fill-rule="nonzero" />
	<g transform="matrix(0.1522094 0 0 0.1520183 0.0006503086 0)">
	</g>
    <path transform="matrix(0.1522094 0 0 0.1520183 0.0006503086 0)"  d="M401.07 237.63C 393.85 238.49 377.82 228.26 368.26 224.49C 329.97 209.39 298.41 195.09 258.2 183.82C 243.37 179.66 223.88 170.46 212.63 167.76C 206 166.17 197.64 160.13 192.41 160.35C 191.65 160.38 191.89 160.49 191.25 159.96" stroke="none" fill="none" />
	<g transform="matrix(0.1522094 0 0 0.1520183 0.0006503086 0)">
	</g>
    <path transform="matrix(0.1522094 0 0 0.1520183 0.0006503086 0)"  d="M340.71 282.1C 301.62 270.61 268.15 251.39 226.82 238.1C 221.02 236.23 128.03 208.35 121.66 205.9C 120.96 204.99 119.85 204.4 118.61 204.4C 116.48 204.4 114.76 206.13 114.76 208.25C 115.35 216.05 217.48 243.18 224.48 245.43C 267.09 259.14 300.66 279.18 341.65 289.74C 343.7599 289.48 345.2599 287.56 345 285.45C 344.74 283.34 342.82 281.84 340.71 282.1z" stroke="none" fill="#000000" fill-rule="nonzero" />
	<g transform="matrix(0.1522094 0 0 0.1520183 0.0006503086 0)">
	</g>
    <path transform="matrix(0.1522094 0 0 0.1520183 0.0006503086 0)"  d="M341.18 285.93C 331.68 287.1 267.1 255.58 252.4 250.57C 216.8 238.45 180.93 228.21 145.17 216.15C 140.55 214.59 118.62 210.56 118.62 208.27" stroke="none" fill="none" />
	<g transform="matrix(0.1522094 0 0 0.1520183 0.0006503086 0)">
	</g>
    <path transform="matrix(0.1522094 0 0 0.1520183 0.0006503086 0)"  d="M641.47 84.62C 583.97 108.1 528.64 160.06 458.53 188.38C 400.59 211.78 346.89 242.32 290.89 270.09C 289.77 270.65 253.5999 285.46 239.4799 291.78C 238.95 291.68 238.39 291.7 237.83 291.84C 237.57 291.9 237.28 291.98 237.02 292.04C 237.35 291.99 237.1 292.03 237.84 292.01L237.84 292.01L238.1 292.41C 235.75 293.48 234.24 294.22 233.95 294.5L233.95 294.5L237.3 299.7C 238.51 299.66 238.58 299.61 239.75 299.31C 240.25 299.18 240.7 298.97 241.08 298.68C 266.57 289.94 254.72 296.63 294.37 276.97C 349.85 249.46 403.53 218.88 460.8799 195.72C 532.85 166.66 581.5099 119.44 641.35 92.33C 643.48 92.36 645.23 90.66 645.2599 88.53C 645.29 86.4 643.59 84.65 641.47 84.62zM237.01 292.05L237 292.05L236.99 292.05z" stroke="none" fill="#000000" fill-rule="nonzero" />
	<g transform="matrix(0.1522094 0 0 0.1520183 0.0006503086 0)">
	</g>
    <path transform="matrix(0.1522094 0 0 0.1520183 0.0006503086 0)"  d="M641.41 88.48C 630.68 88.32 573.93 130.03 560.72 137.07C 523.78 156.75 501.1 178.74 459.71 192.06C 427.43 202.45 409.8799 212.51 381.41 229.32C 364.71 239.18 346.42 243.97 327.21 254.93C 309.89 264.82 275.64 283.09 257.17 289.67C 256.67 289.85 231.8 297.38 238.78 295.59" stroke="none" fill="none" />
	<g transform="matrix(0.1522094 0 0 0.1520183 0.0006503086 0)">
	</g>
    <path transform="matrix(0.1522094 0 0 0.1520183 0.0006503086 0)"  d="M567.75 64.36C 513.18 94.67 461.08 120.85 408.66 155.4C 351.42 193.14 292.11 222.56 229.06 249.32C 224.43 251.29 206.03 258.59 198.4 264.55L198.4 264.55L198.36 264.56L198.38 264.56C 196.92 265.71 195.85 266.8 195.36 267.8L195.36 267.8L198.58 272.11C 200.64 271.98 199.83 272.18 201.07 271.78C 201.74 271.54 202.3 271.13 202.73 270.62C 211.12 265.81 223.5 260.05 231.82 256.51C 295.01 229.64 355.53 199.66 412.9 161.84C 465.52 127.15 518.25 100.75 572.9 70.09001C 574.48 68.67001 574.62 66.23001 573.2 64.65001C 571.78 63.07001 569.34 62.93001 567.76 64.35001L567.76 64.35001L567.75 64.36z" stroke="none" fill="#000000" fill-rule="nonzero" />
	<g transform="matrix(0.1522094 0 0 0.1520183 0.0006503086 0)">
	</g>
    <path transform="matrix(0.1522094 0 0 0.1520183 0.0006503086 0)"  d="M570.32 67.22C 560.18 76.3 508.79 98.73 491.6 109.39C 451.52 134.24 422.19 149.18 382.77 178C 369.76 187.51 348.6 192.35 330.77 204.09C 299.54 224.66 265.23 239.65 230.43 252.91C 225.56 254.76 194.57 270.01 199.76 268.14" stroke="none" fill="none" />
	<g transform="matrix(0.1522094 0 0 0.1520183 0.0006503086 0)">
	</g>
    <path transform="matrix(0.1522094 0 0 0.1520183 0.0006503086 0)"  d="M500.51 46.66C 447.24 81.79 405.69 110.52 348.92 140.46C 307.29 162.42 279.35 179.73 236.8 200.68C 192.52 222.49 205.13 217.88 151.86 237.49C 138.34 242.47 96.77002 258.81 119.5 259.32C 119.96 259.33 120.54 259.28 121.03 259.25C 122.63 259.21 123.98 258.19 124.53 256.78C 188.2 231.13 118.69 258.38 189.61 233.06C 213.97 224.36 218.77 218.15 239.97 207.7C 282.49 186.75 310.6 169.4 352.1 147.48C 409.37 117.22 451.12 88.47 504.88 53.00999C 506.63 51.8 507.07 49.39999 505.87 47.64999C 504.66 45.89999 502.27 45.46 500.51 46.65999L500.51 46.65999L500.51 46.66z" stroke="none" fill="#000000" fill-rule="nonzero" />
	<g transform="matrix(0.1522094 0 0 0.1520183 0.0006503086 0)">
	</g>
    <path transform="matrix(0.1522094 0 0 0.1520183 0.0006503086 0)"  d="M502.7 49.84C 480.65 65.02 457.77 78.63 436.27 94.28C 420.02 106.11 404.06 111.28 386.89 124.7C 369.7 138.12 332.9 149.08 309.43 165.58C 279.34 186.73 271.24 189.38 238.39 204.21C 217.57 213.6 214.37 221.29 188.47 229.4C 175.71 233.39 130.29 248.15 118.65 255.06C 118.88 255.71 120.15 255.43 120.93 255.41" stroke="none" fill="none" />
	<g transform="matrix(0.1522094 0 0 0.1520183 0.0006503086 0)">
	</g>
    <path transform="matrix(0.1522094 0 0 0.1520183 0.0006503086 0)"  d="M442.74 28.17C 376.05 66.23 325.24 111.55 251.02 145.91C 194.12 172.25 129.53 206.76 73.25999 231.14C 72.45999 231.49 71.98 231.69 71.60999 231.84C 70.07999 231.1 68.18999 231.44 67.02999 232.77C 65.66999 234.47 65.03999 236.22 66.22999 238.24C 66.69999 239.04 69.07999 238.74 72.95999 237.6C 72.91999 237.69 72.87 237.77 72.81999 237.86L72.81999 237.86L72.83999 237.83C 72.90999 237.75 72.97999 237.66 73.04999 237.57C 105.95 227.8 245.78 156.81 253.81 153.09C 328.87 118.33 378.86 73.50999 445.97 35.17C 447.9 34.28 448.75 32 447.87 30.06C 446.9799 28.13 444.7 27.28 442.76 28.16L442.76 28.16L442.74 28.17z" stroke="none" fill="#000000" fill-rule="nonzero" />
	<g transform="matrix(0.1522094 0 0 0.1520183 0.0006503086 0)">
	</g>
    <path transform="matrix(0.1522094 0 0 0.1520183 0.0006503086 0)"  d="M444.35 31.68C 414.48 45.36 385.21 74.66 352.18 92.39C 313.66 113.06 298.19 131.8 252.41 149.51C 227.99 158.96 204.41 173.71 178.53 184.93C 159.58 193.14 141.84 202.31 121.88 210.85C 116.49 213.16 63.98 242.12 69.92999 235.32" stroke="none" fill="none" />
	<g transform="matrix(0.1522094 0 0 0.1520183 0.0006503086 0)">
	</g>
    <path transform="matrix(0.1522094 0 0 0.1520183 0.0006503086 0)"  d="M724.28 96.08C 723.95 96.12 524.59 28.68 489.29 20.71C 473.75 17.2 439.78 11.77 422.56 4.849999C 421.85 4.009999 420.8 3.48 419.62 3.48C 418.95 3.51 418.42 3.539999 417.79 3.809999C 395.75 13.17 487.38 28.17 487.4 28.18C 528.84 37.54 719.9301 104.84 727.02 103.29C 729.01 102.54 730.01 100.31 729.26 98.32C 728.51 96.33 726.28 95.33 724.29 96.08L724.29 96.08L724.28 96.08z" stroke="none" fill="#000000" fill-rule="nonzero" />
	<g transform="matrix(0.1522094 0 0 0.1520183 0.0006503086 0)">
	</g>
    <path transform="matrix(0.1522094 0 0 0.1520183 0.0006503086 0)"  d="M725.65 99.68C 719.92 101.85 699.41 91.22 692.37 88.96C 664.2 79.94 636.86 69.74 608.47 60.46C 591 54.75 586.6299 51.38 566.86 47.23C 553.8 44.49 536.26 35.9 519.17 32.13C 495.09 26.81 482.2 21.71 455.83 17.87C 448.44 16.79 414.98 7.339997 419.63 7.339997" stroke="none" fill="none" />
	<g transform="matrix(0.1522094 0 0 0.1520183 0.0006503086 0)">
	</g>
    <path transform="matrix(0.1522094 0 0 0.1520183 0.0006503086 0)"  d="M315.32 355.68C 249.27 326.46 203.58 307.92 135.56 282.9C 92.05002 266.9 48.46001 247.67 6.140015 228.73C 4.430015 227.47 2.020015 227.83 0.7500148 229.55C -0.5099852 231.26 -0.1499852 233.68 1.570015 234.94C 44.31002 254.41 88.93002 273.96 132.99 290.18C 201.03 315.21 246.84 333.84 312.94 363.02C 314.96 363.68 317.14 362.57 317.79 360.55C 318.45 358.53 317.34 356.35 315.32 355.7L315.32 355.7L315.32 355.68z" stroke="none" fill="#000000" fill-rule="nonzero" />
	<g transform="matrix(0.1522094 0 0 0.1520183 0.0006503086 0)">
	</g>
    <path transform="matrix(0.1522094 0 0 0.1520183 0.0006503086 0)"  d="M314.13 359.34C 294.81 353.06 275.74 340.5 257.82 333.32C 242.77 327.29 233.85 325.96 217.98 317.54C 186.91 301.06 141.65 291.77 106.27 275.3C 90.45001 267.94 70.36002 263.06 53.95001 254.11C 44.44001 248.92 8.570011 235.29 3.860012 231.82" stroke="none" fill="none" />
	<g transform="matrix(0.1522094 0 0 0.1520183 0.0006503086 0)">
	</g>
    <path transform="matrix(0.1522094 0 0 0.1520183 0.0006503086 0)"  d="M309.99 365.54C 209.81 327.38 105.19 287.41 8.630005 240.84C 6.990005 239.48 4.560005 239.71 3.200005 241.35C 1.840005 242.99 2.070005 245.42 3.710005 246.77C 92.34 290.47 217.44 341.8 309.77 373.23C 311.89 373.29 313.67 371.61 313.73 369.49C 313.79 367.36 312.11 365.59 309.99 365.53L309.99 365.53L309.99 365.54z" stroke="none" fill="#000000" fill-rule="nonzero" />
	<g transform="matrix(0.1522094 0 0 0.1520183 0.0006503086 0)">
	</g>
    <path transform="matrix(0.1522094 0 0 0.1520183 0.0006503086 0)"  d="M309.88 369.39C 306.24 369.29 257.19 347.16 243.23 343.47C 230.21 340.03 176.03 319.16 164.51 312.72C 148.18 303.59 110.16 291.5 89.89001 282.16C 74.13 274.9 65.08001 272.58 48.91001 263.39C 39.21001 257.88 13.43001 249.82 6.170006 243.81" stroke="none" fill="none" />
	<g transform="matrix(0.1522094 0 0 0.1520183 0.0006503086 0)">
	</g>
    <path transform="matrix(0.1522094 0 0 0.1520183 0.0006503086 0)"  d="M725.76 93.66C 663.74 123.34 565.44 190.35 503.07 229.42C 471.97 248.9 470.83 246.62 444.98 268.4C 428.12 282.61 365.28 314.06 336.67 335C 336.65 335.01 296.09 362.44 315.64 360.89L315.64 360.89L315.68 360.89C 317.27 360.89 318.63 359.93 319.22 358.56L319.22 358.56L340.66 341.6C 369.97 319.9901 432.15 289.29 450.07 274.19C 477.1801 251.36 503.33 237.99 533.9901 218.31C 583.15 186.77 678.4301 125.01 727.85 101.08C 729.9 100.5 731.09 98.38003 730.52 96.33002C 729.94 94.28002 727.82 93.09003 725.77 93.66003L725.77 93.66003L725.76 93.66zM317.78 359.68C 317.61 359.84 317.42 360 317.21 360.13L317.21 360.13L317.78 359.68z" stroke="none" fill="#000000" fill-rule="nonzero" />
	<g transform="matrix(0.1522094 0 0 0.1520183 0.0006503086 0)">
	</g>
    <path transform="matrix(0.1522094 0 0 0.1520183 0.0006503086 0)"  d="M726.81 97.36C 709.12 102.34 657.88 140.07 636.52 150.43C 612.97 161.86 597.16 178.99 572.45 190.88C 558.26 197.71 545.96 206.7 532.01 214.99C 510.72 227.65 500.44 237.66 476.37 249.8C 457.95 259.08 451.62 269.29 438.87 278.13C 424.36 288.18 404.22 293.21 384.29 307.76C 368.42 319.35 355.45 328.14 338.66 338.29C 333.06 341.68 324.94 351.59 315.39 356.74C 314.59 357.17 315.38 357.03 315.68 357.03" stroke="none" fill="none" />
	<g transform="matrix(0.1522094 0 0 0.1520183 0.0006503086 0)">
	</g>
    <path transform="matrix(0.1522094 0 0 0.1520183 0.0006503086 0)"  d="M726.76 104.11C 671.74 141.44 610.12 174.92 552.56 214C 523.6 233.66 490.84 250.04 459.43 270.53C 429.18 290.27 406.61 302.36 376.23 323.61C 345 345.46 345.19 337.92 317.73 364.2C 316.59 365.29 313.67 367.77 311.76 367.92C 309.67 367.53 307.66 368.9 307.26 370.99C 306.87 373.08 308.24 375.09 310.33 375.49C 315.47 375.97 319.41 373.26 323.06 369.75C 349.52 344.32 349.66 351.58 380.98 329.66C 411.1 308.59 433.7 296.51 463.77 276.88C 495.24 256.33 527.96 239.99 556.96 220.3C 614.3099 181.37 675.98 147.88 730.71 110.7C 732.53 109.6 733.1199 107.24 732.03 105.42C 730.93 103.6 728.5699 103 726.74 104.1L726.74 104.1L726.76 104.11z" stroke="none" fill="#000000" fill-rule="nonzero" />
	<g transform="matrix(0.1522094 0 0 0.1520183 0.0006503086 0)">
	</g>
    <path transform="matrix(0.1522094 0 0 0.1520183 0.0006503086 0)"  d="M728.74 107.41C 709.74 118.82 706.07 125.22 681.57 136.64C 678.61 138.02 641.26 160.11 638.28 162.09C 613.52 178.58 592.9 193.52 566.9 209.23C 547.56 220.92 543.88 227.36 519.81 237.54C 503.6 244.4 495.86 253.3 480.79 261.42C 470.25 267.1 453.43 279.86 441.03 287.39C 427.66 295.5 410.2 304.02 398.79 311.37C 384.03 320.87 374.2 332.52 355.37 341.64C 342.87 347.7 330.7 353.63 322.57 364.57C 320.46 367.41 314.73 372.41 311.04 371.71" stroke="none" fill="none" />
	<g transform="matrix(0.1522094 0 0 0.1520183 0.0006503086 0)">
	</g>
    <path transform="matrix(0.1522094 0 0 0.1520183 0.0006503086 0)"  d="M408.84 2.11C 398.47 14.5 236.19 106.09 217.56 114.93C 211.17 117.96 143.08 148.9 140.99 150.03C 5.829987 223.4 165.77 142.85 79.09999 186.44C 79.09999 186.44 -19.25001 232.64 8.099991 234.52C 9.57999 234.52 10.85999 233.68 11.50999 232.46C 25.47999 221.74 67.84999 200.72 82.15999 193.52C 173.02 147.75 11.41999 229.15 144.72 156.78C 146.79 155.66 215.82 124.28 221.15 121.75C 240.62 112.51 404.34 20.34 415.71 5.599998C 416.67 3.699998 415.92 1.379999 414.02 0.4199986C 412.12 -0.5400013 409.8 0.2099987 408.84 2.109999L408.84 2.109999L408.84 2.11z" stroke="none" fill="#000000" fill-rule="nonzero" />
	<g transform="matrix(0.1522094 0 0 0.1520183 0.0006503086 0)">
	</g>
    <path transform="matrix(0.1522094 0 0 0.1520183 0.0006503086 0)"  d="M412.28 3.86C 409.62 9.07 393.84 15.1 385.23 22.79C 371.94 34.66 343.17 44.28 323.89 57.86C 301.96 73.3 277.43 91.55 253.18 101.72C 227.46 112.51 211.66 124.39 184.34 134.38C 155.09 145.07 129.61 159.98 104.34 177.81C 90.66003 187.46 71.44003 192.28 54.42003 202.91C 47.29003 207.37 4.750031 230.68 8.110027 230.68" stroke="none" fill="none" />
	<g transform="matrix(0.1522094 0 0 0.1520183 0.0006503086 0)">
	</g>
    <path transform="matrix(0.1522094 0 0 0.1520183 0.0006503086 0)"  d="M22.69 236.12L413.05 14.67L697.44 99.29L308.72 346.98L32.06 236.85" stroke="#000000" stroke-width="4.96" fill="none" />
	<g transform="matrix(0.1522094 0 0 0.1520183 0.0006503086 0)">
	</g>
    <path transform="matrix(0.1522094 0 0 0.1520183 0.0006503086 0)"  d="M730.72 110.71L728.67 449.1L352.93 668.73" stroke="#FF0000" stroke-width="6.2" stroke-dasharray="12.3975,30.99376" fill="none" />
	<g transform="matrix(0.1522094 0 0 0.1520183 0.0006503086 0)">
	</g>
    <path transform="matrix(0.1522094 0 0 0.1520183 0.0006503086 0)"  d="M310.33 375.49L317.65 677.55" stroke="#FF0000" stroke-width="6.2" stroke-dasharray="12.3975,30.99376" fill="none" />
	<g transform="matrix(0.1522094 0 0 0.1520183 0.0006503086 0)">
	</g>
    <path transform="matrix(0.1522094 0 0 0.1520183 0.0006503086 0)"  d="M10.88 250.29L23.93 553.18L317.52 672.23" stroke="#FF0000" stroke-width="6.2" stroke-dasharray="12.3975,30.99376" fill="none" />
</g>
</svg>